<mxfile host="app.diagrams.net" modified="2021-04-11T12:04:57.087Z" agent="5.0 (X11; Linux x86_64) AppleWebKit/537.36 (KHTML, like Gecko) Chrome/88.0.4324.182 Safari/537.36" etag="LA-N6VJxGUxY4fWoqGW6" version="14.5.10" type="github">
  <diagram id="mt97GfDToI3BDXoiO_Mr" name="Page-1">
    <mxGraphModel dx="2182" dy="806" grid="1" gridSize="10" guides="1" tooltips="1" connect="1" arrows="1" fold="1" page="1" pageScale="1" pageWidth="827" pageHeight="1169" math="0" shadow="0">
      <root>
        <mxCell id="0" />
        <mxCell id="1" parent="0" />
        <mxCell id="6S1AxzFZSBlunfZrIVeZ-3" value="VRP/vrp_utils.py" style="rounded=1;whiteSpace=wrap;html=1;" vertex="1" parent="1">
          <mxGeometry x="20" y="40" width="120" height="60" as="geometry" />
        </mxCell>
        <mxCell id="6S1AxzFZSBlunfZrIVeZ-14" value="" style="edgeStyle=orthogonalEdgeStyle;rounded=0;orthogonalLoop=1;jettySize=auto;html=1;entryX=0.5;entryY=0;entryDx=0;entryDy=0;" edge="1" parent="1" source="6S1AxzFZSBlunfZrIVeZ-7" target="6S1AxzFZSBlunfZrIVeZ-16">
          <mxGeometry relative="1" as="geometry">
            <mxPoint x="590.0000000000002" y="249.9999999999999" as="targetPoint" />
          </mxGeometry>
        </mxCell>
        <mxCell id="6S1AxzFZSBlunfZrIVeZ-21" style="edgeStyle=orthogonalEdgeStyle;rounded=0;orthogonalLoop=1;jettySize=auto;html=1;entryX=0.5;entryY=0;entryDx=0;entryDy=0;" edge="1" parent="1" source="6S1AxzFZSBlunfZrIVeZ-7" target="6S1AxzFZSBlunfZrIVeZ-19">
          <mxGeometry relative="1" as="geometry" />
        </mxCell>
        <mxCell id="6S1AxzFZSBlunfZrIVeZ-22" style="edgeStyle=orthogonalEdgeStyle;rounded=0;orthogonalLoop=1;jettySize=auto;html=1;entryX=0.5;entryY=0;entryDx=0;entryDy=0;" edge="1" parent="1" source="6S1AxzFZSBlunfZrIVeZ-7" target="6S1AxzFZSBlunfZrIVeZ-24">
          <mxGeometry relative="1" as="geometry">
            <mxPoint x="-80" y="250" as="targetPoint" />
          </mxGeometry>
        </mxCell>
        <mxCell id="6S1AxzFZSBlunfZrIVeZ-7" value="&lt;font color=&quot;#ffffff&quot; style=&quot;font-size: 25px&quot;&gt;&lt;b&gt;ENV&lt;/b&gt;&lt;/font&gt;" style="rounded=1;whiteSpace=wrap;html=1;fillColor=#6666FF;" vertex="1" parent="1">
          <mxGeometry x="180" y="155" width="120" height="60" as="geometry" />
        </mxCell>
        <mxCell id="6S1AxzFZSBlunfZrIVeZ-8" value="&lt;font color=&quot;#ffffff&quot; style=&quot;font-size: 25px&quot;&gt;&lt;b&gt;ENV&lt;/b&gt;&lt;/font&gt;" style="rounded=1;whiteSpace=wrap;html=1;fillColor=#6666FF;" vertex="1" parent="1">
          <mxGeometry x="110" y="810" width="120" height="60" as="geometry" />
        </mxCell>
        <mxCell id="6S1AxzFZSBlunfZrIVeZ-10" style="edgeStyle=orthogonalEdgeStyle;rounded=0;orthogonalLoop=1;jettySize=auto;html=1;" edge="1" parent="1" source="6S1AxzFZSBlunfZrIVeZ-9" target="6S1AxzFZSBlunfZrIVeZ-7">
          <mxGeometry relative="1" as="geometry" />
        </mxCell>
        <mxCell id="6S1AxzFZSBlunfZrIVeZ-9" value="&lt;font style=&quot;font-size: 17px&quot;&gt;&lt;span style=&quot;color: rgb(3 , 47 , 98) ; font-family: , &amp;#34;consolas&amp;#34; , &amp;#34;liberation mono&amp;#34; , &amp;#34;menlo&amp;#34; , monospace ; background-color: rgb(255 , 255 , 255)&quot;&gt;&lt;font style=&quot;font-size: 17px&quot;&gt;args[&#39;n_nodes&#39;]: number of nodes in VRP&lt;br&gt;&lt;/font&gt;&lt;/span&gt;&lt;span style=&quot;color: rgb(3 , 47 , 98) ; font-family: , &amp;#34;consolas&amp;#34; , &amp;#34;liberation mono&amp;#34; , &amp;#34;menlo&amp;#34; , monospace ; background-color: rgb(255 , 255 , 255)&quot;&gt;args[&#39;n_custs&#39;]: number of customers in VRP&lt;br&gt;&lt;/span&gt;&lt;span style=&quot;color: rgb(3 , 47 , 98) ; font-family: , &amp;#34;consolas&amp;#34; , &amp;#34;liberation mono&amp;#34; , &amp;#34;menlo&amp;#34; , monospace ; background-color: rgb(255 , 255 , 255)&quot;&gt;args[&#39;input_dim&#39;]: dimension of the problem which is 2&lt;/span&gt;&lt;/font&gt;&lt;span style=&quot;color: rgb(3 , 47 , 98) ; font-family: , &amp;#34;consolas&amp;#34; , &amp;#34;liberation mono&amp;#34; , &amp;#34;menlo&amp;#34; , monospace ; background-color: rgb(255 , 255 , 255)&quot;&gt;&lt;font style=&quot;font-size: 17px&quot;&gt;&lt;br&gt;&lt;/font&gt;&lt;/span&gt;" style="rounded=0;whiteSpace=wrap;html=1;fillColor=#FFFFFF;" vertex="1" parent="1">
          <mxGeometry x="370" y="10" width="400" height="110" as="geometry" />
        </mxCell>
        <mxCell id="6S1AxzFZSBlunfZrIVeZ-11" value="Input" style="text;html=1;align=center;verticalAlign=middle;resizable=0;points=[];autosize=1;strokeColor=none;" vertex="1" parent="1">
          <mxGeometry x="260" y="50" width="40" height="20" as="geometry" />
        </mxCell>
        <mxCell id="6S1AxzFZSBlunfZrIVeZ-15" value="attribute" style="text;html=1;align=center;verticalAlign=middle;resizable=0;points=[];autosize=1;strokeColor=none;" vertex="1" parent="1">
          <mxGeometry x="320" y="170" width="60" height="20" as="geometry" />
        </mxCell>
        <mxCell id="6S1AxzFZSBlunfZrIVeZ-16" value="" style="rounded=0;whiteSpace=wrap;html=1;fillColor=#FFFFFF;" vertex="1" parent="1">
          <mxGeometry x="520" y="280" width="460" height="230" as="geometry" />
        </mxCell>
        <mxCell id="6S1AxzFZSBlunfZrIVeZ-17" value="" style="shape=image;verticalLabelPosition=bottom;labelBackgroundColor=#ffffff;verticalAlign=top;aspect=fixed;imageAspect=0;image=data:image/png,iVBORw0KGgoAAAANSUhEUgAAAtkAAAGgCAYAAAB/iHsKAAAABHNCSVQICAgIfAhkiAAAABl0RVh0U29mdHdhcmUAZ25vbWUtc2NyZWVuc2hvdO8Dvz4AACAASURBVHic7N15eEzXG8Dxb0hmRDOxJCkSRSKWWBIlYo0t1lhKqdQStEW1VItoq/xsLaVqaS0tRa2177taghA7CSEJkliSIBNLJpaZkPv7I0EmmQg1Gur9PE+eh3vuuffcbe57zz3nXAtFURSEEEIIIYQQZpMntwsghBBCCCHEf40E2UIIIYQQQpiZBNlCCCGEEEKYmQTZQgghhBBCmJkE2UIIIYQQQpiZBNlCCCGEEEKYmQTZQgghhBBCmJkE2UIIIYQQQpiZBNlCCCGEEEKYmQTZQgghhBBCmJllbhfg3xfGOB9/5sQ/NJpq6fsrZ3+u/8xLSYkNZun0Raw8HMr5uCQMgEplg8bekboj5/Nz3fxmLrfISeqmAVQevIsUdWN+PjGRNrldIPGaOMRQrz4sT07NklJi4Ep29izz1NwPd/2O9aBDpKDh4wWTmVM578sq6BvnwP/6U2ejDjy7kPhHYwrndoGydYWJfiMIiEx9trImrKVb/REEZ0mwoua0gyxs9AbemoX4D3oDr+TCVPFuQGNt2g1VF32MQ9FJz7eIhB0M6DSYbdpUwAob+2IU16jT0vTJ6HR6QIJsIV4vNpSoW5vKGovHUxzKFcgxV16NNfZAPPlxzJBXvEmsKaRK/6cmP9Y5za4uQb0WzTIE4snEBB0gTPeyyieEyA1vYJBdjOYjJ9E8/X+XZvnjMyX0uZZwecEstmlTSbWvz/B54+nukuNPqvgX5PH6krnzOgN2lH/GPNfmf4L3T6kMD55LV1sJkN5shak3YBwj3J6zJlqdn8IKXLXITyGbl1OyN1Wlj/uy+z09iqbEM9Zi32P15wNof8OX0KVtqPySy/dEfgo+esDSWOccZNtWpefEqhkmxLPYrzVhp15S8YQQueINDLJflI4T4TEAlOr2hQTYrxKHUtRwKPUcGXScPBwBPL05gBBPpbGlEKCorCmklgc1c7J1LkcD5+fJEc3uCAM4vKwSZceSgjZWwEMKauQtphAijXR8fG7J6NKbiTi6OOV2YcQLOc/B0Du5XYg3kD63C2BemvwUBFBbU0iai+Su6EiCE5VcWLEV+dKD64KOEmQLIdK8AjXZOmI2z+OXZTs5GB6LVmfASlMYJ2d3avt9ysB2FciuVWRKVCDzZy9mQ9BZzmt1KM+Y7/mZ7ix5sF+tLHWgFhY1GB4806xND24cXsXvC9ayNzSay+nb6Vjek0Z+H9HXN/vtjDu8hJmzN7MnPIIErR69ygZHl8rU9uvDAL8qFMmS49F2OtF11VoGsYUx42azJySa69hg51SJht0+Y4hflWzWmcipNfP4bdk+TkQ/OpbFcPHwpJ3/p3zi/U72G5kUw+Zlf7JqyxFORCWgMyi85eiMR93WdO/VkUZO+UxkOsdkXz9mxBgfF4ucOj7qd/JFjUFsNTy6GR9nVM0qjMq4DCoy4O9FfOaU/hyatIN+TQLYpitKq6WbmOyeXZOCi8xt154fI6DiyI2s7Vg0+21+xT3/+QMkbaZXve8IzOfDpD0/01p9g/1//Mxvaw9zIlqLAYDCtJm/g4nVM+9DHaeWTWXKsp2ciNKSRGHK1W1Gr4Ff0jZpJo06/0mUWz+2repFuczr1cexf8Es5m45zImoWHQGKyzt7XFzr8373frQ1ett8++gRzT5yacCVPkp9EwZkji1fjNj14dyMCKB2OQHWBa2w9O9It0+aktP9+yWksTh9euYsiKU4JhbxCY/IEVjS4XKFenRuS2D65jaxmiG+37P9/Fv8/myMUxR9vPVhK2sCo1HiyXFnFxo06U933coa7o5hu4yK+Zu4rfdZzkTl8S1FEus7eyo6vkuX33alg7O6uw3U3eVDSvWMWPbWU5E3+ZGiiW2jkWpWbsOAz5qhI+jKmueuF008V3Ijsw/nzl1JjwyH8fegcQDWAARa3B/d43xPI6NCNzkz+Pu7bpj+PtOY1FyYT5eMIY5lU39xgBcY6LfdwRE5qHG0HEc7GBncq4CmvzADeylJlsIkS6Xg2w9x8d+jP+iSO5rSuJVvQHe9vnIo43n5JE9/DU0kO1Hf2btmCZZbug3d3xP54CVnDdYUai8J43rOmKddIlD6fk27hrBX1Pfz3oz/kcydpZMJvrIUS7oFAq6N8DTPvPdoBIln3LfeT46wib2p9uc4yRhRaHy7ni525JHG8PJI9v588h2Nm8ZweKp71MyU86rS7+k9ehAkrChqHstmlRXY6GL5+ThYFaNCmZP6K9sHVM/U7CsQq0GSOZm6Hw++fFXwp2qUrVuKdy0kRwMPciqUcc4GT2Ltd9WxfiWlMi2gR/Rb+tFFFUx3L1qU0OjxqAN41DQBsYF7Wff2PnMa1si62bG/s2g7sNYH3efVE1JPLxqU4Rk4sJPcWD5RIK2rKfH1Nn8z6tgpow2uHk1oLFL+qgQhoscDooix75D6qLU8GnIA10cIUHhJFCYsnXdKaHKeCxLUDLj/229+bh5SbatiGHrgp38+HNTTN6Sz6xlRUQK2DamV3OTYehzuMusyRHMTXq2mrk8JR3Z2KOoWUZg+GfnD2BbhgqOeQiMCeNAeAKa+d3otTUeK01J3KqXIh96krUKBbLEV7rHvwUGbChRtylN7C1IDNlEQKcIbvYtym1AUamy7nd9JIu79WbkqZvkdaxEA5+qOKgtSNZGcihoFaN27WbD2PksM3XumYPamoJqQJM/532vv8KcARPpGXwLVNZUrFyeFhrQRV8gKHAv+wIPM3fw1+zs7JypXW8Sm74ZSbvtN0lRafCsVpn6GktuJUYTeCCYrw+cYPPokexunfmcs0rf13e5E7IG3wmbOOrkTL06ldBrL3PwdCQzxkxgS0wAYQHljNepC2Ow/y/8fDEF7IrTpE45HFUPuB4RwY5tW/ngQARj5w9jiLOJF6JxR+nZcwZz4hUsNIWp61mJwqSQEHGBTSuXsWnbfvpP/ppfqmmM82mK4NWwEo/CWENcFGsi7+a0V8HemWYNtNzSXmbT6dukaIrQuJoDGcPhVPuSFDdalzufNS3MotU3mLs4lGnjvEy3pY7Yy58RqWBbmQHNsj/CBe1VWGGJneatnMsrhHgzKLnpyhrF38NDcak3UNl4O9U47fYp5ce2VRVXt2bKt2cfGKdd36j09PJQXN0aKH7Lzin3jNKClSG+7yqubtWU5gticizCxZldFVc3d6X8oMBnLHSMMqdtNcXVrbbSc9+DnGd/AXf2DFNqubkrpb06KaMP3TRKSzmzJH0fmNjO+3uUQdU9FFe32krHNReNkgwXliodPTwUV7dWysgzmcv/aNvclQoeDZS2C04b7dv4VYOVWm7uiqtHJ2XGlYfGWU9MVhqmp/1+4a5RUvyqwUpVN3eldL0Ryp4sWxmjLOpYU3F1c1dqDVqlRNzPeB5olQPD2ysV3NyV0vWGKNvvp2bJbeTKUqWjm7tSpspAZd3T50xze5PSy81dKVOhh7Iw8/lnyoUFSls3d8W1Sm9l8fWHJma4rxwb3lxxdXNXaow8YHxe/iO3la8G7FHwD3y2v5FRypUXXqfyAuePoihKkrKuZ3XF1a2a4jfwS6WWWwOl0/zjytWc1vlo37o1U/rtzTh3knJsTGflXQ9PxdXNXSnx4Twl81V9d+PXSgU3d6Vi75VZ0gwXlir+Hh45nD8Hle+qV3nKNuVEq/w95y8lYHmEkvjU+QzK0Z++Uayq9FBoO1NZn6A3Sru0ZYbi4tFDoco3yucRmcpxcrFS0aOHgtcoZWzUfaOkhLW/KMWq9FDw+V3ZmmWdl5WfO36sUKWHYuv1hVJrcZTy5Oo0KJfXpa/Ta5jyQ6zxOX1+zuj0si5Q9hjtu7vKzv99rVClh8KA/Sa2+aoyrWtvhSo9lOLfBCrnjfLeVnZ8PzRtuT6/K9tyuKaT1/6SNm/Pv3PYt+n2/aEUqNJDwW+dEvos80dtVep69FDw+kmZl2DqmjYo+0cPTNvWH04pd03M8XjOkD3Ktz8tU5bHmlpOTuKURR2rKa5u1ZSuO1P+QX4hxKsod9tkXznNeYOCwbk2dTM3r7CtxKBpf7Hl70WMKG/8WvncgvkE6hRSvfvxS0dX45oth5p8/01LHEghcsFfHH7pG/GyxLN59k4SgJK9RmWpxbV0+5Bhn9fCydERwk9zzSjVFf+Jk5gyZjzftzBuomHl4ksXdyvgEidOJWS79julOzPOv6LRvi36/gD6lrMCQxjrd102zuDUgpFTxzNp4jA+zNQZtGjLVjS0scAi4TTHo4zHIn54aCHTT90F28YMHd6OskYdx+yo9d1g3nN2wsnmKuHhWccx/le5+PJRHRvQH2Ph1stZ0/WH+GtLPFCGD/1rmK7pfi62TJ5UD2VB/Wf7G+GMeXoJvMj5o8HB3hZI4diWIGx6TWVut3dNNy3J4NKO7ZwG8OrOMO+Mc2uoOug73rN7mE1OuBIejQEoUt09yxsdK5e2TFq9lN0rv6XJS+uUaEfjjzsx4YNsmlw8ogtlyvprpFCYj0d3o7V9xup8K95p3oWfGjpQtqQFl0PjjfM6eTN9ch/+GteNTzM10bBvXh8fGyAxmqCY7K+RJOfGzDSqIbeieJv3GVguDxiuMDvwuvFyG7Zjw4+fsGpUK+oZ7TtrGrX3wEUBQsPJPCDGg6NbmXTKAJpq/Dy0HqWN8triM/gDPi1pR1nNDQ5E5vI17VyLPrXVYDjD5O3Xs6brz/Dn9htAEYZ1qfDUUUOs3Ovx4+COfOAoXZ2EEGlyt7mIQ0mKANdPzmPEGjdGZWpHbeVUDtcsmRIJORwNQGWfOiZv3nlrNKGaagNbY49xLDYVL6fX8EcvKYxtoXeBEng3Km1ylpLdfyOwu4kEtSMe3o54pP9Xr08iKUmHPq1BLAa1CjBwW599B7R36tYy0dSmGFWqF4eIaGJCIrjvX/JJIOlQjno+T3IYkrTc1uvRG0BBj5LPApKTuZ5s3PQheudREoAH1ZvhY6odu7oGYzdtzrac/y47Wvq3YNz+FUQsW0mI/6DH+xjg3o5NbElWwKs9nVxew3PukRc8f2w1NkAC2Nbny08qPsPDhp6zIWnXdFGPylmvaXVFOviUYNGiaJO5HZwdUBFB9NKpLKg+jG4eGdsmq7F3edYBHV+ykBPsTAbsytLRZPtfW9pP/on2pvLav0P9hk8eeO7rbnNLn8J9AyikkE9lAaQQp8u+adE7tSuZGNKuCDU9HSDyGjGhl7jXuejjQLKAcyWaPR7ZI4Vb2rvcN6RwH8iTrKS1Pzfc5WamJUbsOkuUBeBZlTamOoKqPZi61iPr9Fxhi19nT4Yf2E/IikAOd/4Qrwypybv2siIZ8GxMn1Kv8TUthMgVuRtku7Tl6w/W0XPFOTYN7cSGccXw8PDEy6cOTevWpqqTqe51VwnTptVqaTdN5KtDpmqnkjmPAsQTFqdgpuq9f9eVSK4YFFA7UtHpH9TAJZxm+fTfWLzrCGe0poOhPI+ipiysKFbe9LhZ9k52QDTJWh23wSiASj67nV+nz2Vj0FkSslu0ET1XYrUAlHByNEPN78uXt54fH5RazYyov1lw5DMmVn/UySmRTcv2YcCG2n7Nc6y5feW90PmTJtXDxBsqk26g1d4HoJCz6bHXXMqXAkwH2QVbfk7PhceYEbGH7zvt4Uf7stSo7kk9n4Z4161OmVdk/PPEuES0AI4lTFQe5CwpIpjxv29lyf5LRKc8f37ncsVMTi9arCBWXCMlMYl7kKG2NoXLuzfwzdxgNp/WcjtzRgvIk+XUSOFi/C0ACjra5Txe9CvAsm5zOpc6wA8xB5hyrC1/VXv0S5TE+lWnuU0+fDt4vZa3ESFE7srljo8aao1azKZ6S/h92Tr2Ho7iVNAGTgVtYA5WFHJvxhdDBuPvkbGphAFD+qgQ145sZ9NTl6/n9lNqdl5pBkP6QGcq1M/7mjvpIEM7fcbyuFQs7avSZkALajnZUSB9OUf/GMzc0AdPXURBtenem+r06Xn0Bu5nmP7g5Ay69phJmAEKujfhk3Z1qWhvmx44X2L5d1MIzNIj0UCSIS1Qs7Q3W2/Rl6wMnbrVZPbo/WxeFsTw6k3T3r7E7mDx0TsoDu3o2ShzB83XjBnOH4C3HB2fcYQfQ3otuRX51CZGnACsbfORVn9ugroiA5auxmvZPP5au5PA8Ej2b4lk/5a/+BEbyrT4iGHffkJth9wNtu+nn+uorZ77gTIldDm+PbewPwXyV/bkh9buVLRP+7KgQgyzh29kVfLTlmCJdTa/I/kedfDVp3Avw/TzKyZSb2wE8eSjfEMfhjdwxUVjhTVwX3uIoWOOcDbL0h5wX592buSxs3rOrcwtxfm0S1nGj41gyYpQplXzSmv2E3eQ344awL4mXzbQ5LQQIYTI4hUYwk9NKZ8ejPPpAfpEzoYc5cjOXfy9czcHQzcyunsEN5cso//jr7Cp0KgsACsaTjvIrEavwCa8DCoVaWGngaQkBZ6jNu7S0uksj0vloWMTflkyAV+j4EKP1Wpr5uYwBsc9DJg6PfTpTQRS1SqehJKJbJ60iDADqL2Hs3Jm+0xtY09wQGWq/CpsVSpAj077+nxPuKjv+zScfIBtO1exKaExnR3ycG7pKk4Dxdp2wNtsbX/vsmB6BH/efrYHRb2jeUYXMcf5A5CfZ31wUpEWW6dwP5va8XtPadoEgNqROt2+o0637yAphsNHjrJ35y527DzAuS1T6RJxhQWrRpjx2Dy/fKr0Bwj9XaMH1JwlseLXnexPAVXtHoROr49xAzJbNqmeXt3wNBmD/8c1z/oQRv0aQTyWuA/+moOZRzuJvsz3JpdmST61JfCQ1MR/UN2eS4o3b4LfrxEs2r2TZVpPPrPPQ9jyfQRZwDttmtBUPjIkhPgHXq1GZmo73Lya0W3IeBbuWMfEhkXBcI7ZyzN2XyyKq1NeIIXLsbG5VdKXr3hZiqssQB/HhdjsOwfp9XqM4w8dZ49EAWDfuHOmAAngKlFxOd3iU9DGmu4UqY1NBMDG3j5DLeV5DoXfA2yo6d8iS+czkuK5YvKNgpriTmmvsBNi47K+jn5Er0ev1z9nYPIS2XrzefOSoD+Y3gEyjL82nwdVVT7pWMGMK3rAiQs6AsOf7S/44j2jmsh/xhznz/OyQWObFpDf0SaZnCM25IrpWmxTbEvh5dOBgLEz2Lrxdzo65sEyaiOzdz3DUHAvkZ2jHfYAcfGcz3auFO5nqlGGK2lfMSQfvl1qkKWHhu4a0Tm+sXvA1bhbJlOuxt0mBcDO7skDWkwkJ3SAyoWvWpfK0uzjYXQCcSbjTitKFkt7/L4Vl5j9+ag3tZ25SOPOV02LgCGSmduvA+eYtz0WVM4M6FAqt0snhHhN5WqQnRx1ih2bd3HU5DjAxWjlWwUVcEuXsdbMjuo+bgBEbQ7kosklx3NkcxCnE16ZsOyxOyGrmfDjT/zw42TWRj2lZ71tRZqVyw9cYu/+KJOzXJrlT6V3vSjbY77RftCn3TLR2Jt4xXlmU9o4zjmIDDpqIuiN5+SRKwCU8HrSyVHBgF6vACoKmGhmcm3NKg4YTAcBzj4eOAB5j2wnyNR5oN9LgHcNKr3biMFBLy9IStE/T7MiNRW6d6ASpHWA3LeabfEPUXm3p51ZO9nmzugi5jh/no+GCs6OAMQcCTVx3p1jZdCFbPLqiAs5wMbNhzONsJPOoSYdqhcFUriVU234y+bxbvooIGGsPGbqtymJxZ9/gXXN3tj/mvGaT0n/SKYV9uqsTTBi1wWx/RkOScj+CG5kmXqNg8fSui5W8szQZvt+2gItsMY6SwueJNZuCCU+8+R05Rq5pY08cvQw600F//oQejXujXXN/vQ68LJ+o5/3t8KKal0bUleBkBWBHNwfyOJ4Beo0pruMFiKE+Idy8ddDT+T8YXwWMICAyQdNBnQbN5/EgBVVvYxHByjp241mGgtSQ2bx2ewTmfImcmBsAD0C+tJu8JpsgvDck3xyE7MWLmb+wsVsfspwW1AM314+OAAX/xjB94eNa6EenF3K93NOATbU9GueofZYQ+n0gOVS0FHj7U/Yw3fDtmPlbAvw1CYaefb9wf92GYctN3fMYHpECqiq0inD1+UsKEEFF0vgBqeCjFtp3jk8nS8WJuFqbwHo0GbqRJe3hj89y+XHImkPY0Zv5pJRsJtI8Nhf2ZKs8MClFd2qm7kbla0dtjYWKEoke/ZnrblPSnpKUJY+nF/eqI0MHredBArTyK+RGb8ymlvMc/48L1ffOrwD5Nk3j/EhGc91HWETx7IuMbuv6N1g68j+DAgYzrBdJsLshIOsPHIVKEHVcrl8dDTufNWmCKBj9g8L2KDNeK6ncHnrYoYf0IPKmWGtS2VIK0oV5zyAjm37jX/RdEeX0+2v21QvDHCXW09ronFgPV8GGofZCbvXMykiFVTOfFw7w6gsTu9QSgWKIYr1pzNeBymcWjyLb+MKUVEBDLosI5pYejZnYDkV6EIIGLOXC0bXdBI7J6xgfjJQqja9q5m5L4ZtAYorQHQkG6MzX78p3Hzac9aj4fxiDtBnwhHi0dClQ1WzfNxJCPFmslAUJfd6BibsYVCnr1gfl0p+52rUKu+Ig0aNQRdP9JGjnNDqye/Rj4XzeuKeqU3cnUNT6PLpn4QZeJw3n/4q4elfY3zoWJ8x86fQKUPN4t290xi03PhFrS76GIeik3hoX5Fm7hmH/qpEh7GfmBhW7tFns9U0mLWXP+pm93lt067N/4S644/ybG3KdRwf2wf/RacxYEVRd08q2efDoI3kZGgsSVhRvN2PLM38RcyoZfi9/yPHDZa8Xbc1/nXfITH8KPt2hpL64VQWlJyNz7Ag9JqKdOzZgno+XWjuksdo22q3rcPltfvJU92Tqs62pMSdZm9QFElYUWbgfFb3NB6a7dbqr/AZtpskClOtbRsaOuchNiSYTUF3aTh1Oq3W9KDXVi0W5ZvwSVsfWvg1f3JMozbRr8cwtmlTSdWUpIaHMwVUd4gLDeWMVs9D+6p8O3MGvd0yBNlJB5nz3VKOZtzu9C8+JlGYSo08yPhB8+J+Ixjqnflz1TqCh3Sk27o4wIrCzuV4R5OCQadDGxtHvPcYzk5tlW0ntYd7f8C7zwoSgIcu3Viz0XhIv9fWPz5/0oSNbUvbRdHY+f3JwRFVn3GliWzr25l+u6+iqIpRua4nlWwNxIcEs1v3Lj/0VPHDuL9J9hjI3iXdjZok3Tk0ng6f/sV5Q9o1UtXFAVsV6LQxhBw5xRWdJS7dprH825rZPAQdYqhXH5YnF6frqrWMcHu+a/q56K8wve84+h27AyoN1SuXxEUD16MvEHTxHiloaDl6KBszfblRu+5X3EeeIB4NtVvX4YNSD4k4dZq1B/T4TP6aTut+oNX2ZCjnyZjW1WjSoQbV1RbAFSb6jSAgUkXL1hU4u+EMSrXyNCmVH0NcNNuC44nHEtf+Qwj9yCVDs5B77Bo+DJ8NN0BTnC7ta1CdRA4dPcHGeGemLmjG6Z4/8XO8QvGGPgxoUBW/NhWevEmJ3kuHnn+y6gbk0RShbiVHiqnvcTn0PAduPAC7skyZPpAvy2UIskN38uGfJ422+/EXHzVFaFPNIUP57PAd3I1uWWqZo/lf2+/54aICKmvcSxWjMHe5pbtLdHwS7wz9mVPZfBYd4EHQbMr12582BGGpRhxa4280pN/LE89iv9aMPAU1px1k4X+1r5EQb5i8I0eOHJlra3+rFM3a1qWE/h6Jl85zMuQYx0PPcOHSHaycPfHp8x0zRrShtGXWxn+q4jVp37oKdrpbxF06y8kTpzgbmwQlK9OgbX9+Hv8FPg7GP8B3gucxZN5eoqJjHv/F3kqr2shzN8FoenTMA9z92/DuW5nXfZsTy5YTlGhJqdYf0abE870MuBOynrn744C8OPv2pLWpTxI/pqaYdyvedy+M/tZ1Loef4WTEBeLu2lDCqyH+g8cwsacnWcayKFQJ31oFiT13nvMhh9kdHMalh2/ToO8PzPjInYIuZShw+iAnzp/ndFg0eWu3p2kJK6Ntcxk4lz9aWRMRfJBdQYc4FXuHt8p44TtgHL90qYhNplXmc6tDA8e7XIiOIOTgIfYev0hyIQ8+/elnBnsVoVQZey4GHyX6/DnORilUbt0Et0f7tlBZfNs3ogTJ6K7FcCL8DOcuJZFqX5qarT9n/PhvaF0y02vypKNMGfEnezMcs6hLN9NHZLnH9YzTo2NIrvw+XT0y7yk173h7U/budS5qr3P18mVib+pR1DYUq1SDJq1b0KRM9vVYeUoWI2HTKk7csqRsn1EMyrL819Q/Pn/SJOxbytLQW+Sv1JaeDUwPG5dVflwb+1D54TWuxMYQHnqKM7F3yV+1M2MmDqGlPojftkRgKFqLjzpUMTrnVcXr0rZ+aSx0iVyPPsuRkFBCQyOI0eahiEcDeg2dwFgT5+wTsez6YyNhBlvc/T6kgcNLfMFnaYtXm7q0tDOQrE3k5JkYDkXd4JplIby9vRk15jPG1c56zuUv705TRx0x0bEEHT7L9pMJ3C1Uli9/6M94z8KUdS3ElYNnOX0hlhMxKbzr60WV/BZAEsErA9memJeKX37HOl81Fw6FsOFABPvj7mPr6krX/p+x5EMXbI3WaIVzbQ887yYQHh3N7uAw9l5IIn/FRvw2yZ/3izjwruNN9h+JJfxCHMfuFaFjyzJPHvYLlaTj+9WoqCSRcO0axyMucvzyLRSHd2jSshWzfvCnY4lMgWTYdjrPOkFozHXC0v/CH9XMG+4QkWF6WIwOx/ea0NIu87EqRKN6JXkrLp4r124TGZ9IlP4hlprCeNR4l4+bV6OaffYBbJ4ShdBu3cve2+DRqzffV87+rDGvZE6tXELgdSju25P3n3pfEEK8LnK3Jlu8Yl6slv6Nk7SXgMb9WZdSgx/3/E6HV2Q85v+i1E0DqDx4Fze9h3N2ZnszN8v5F2uy/3VParLbTp/MX31x/AAAIABJREFUmtqvw2j0uUgXgr/vFBYZKjB3RwAfmfqYzkshNdlC/BfJ47IQ/9DFNfPZkqzwlm8PWkmA/YL06GIjCNm3n1MmOsCeDUn7dHpxZ+f/QLt38aqKXbeFZcmgbt6YD/+1AFsI8V8lQbYQ/8CNvZP5cvJRDKqqfPV5jdfia5WvthusH9iFDp9+Tu/xO4xGCkmJWsb4dTFAMeq0eEU+kS7+cxL2L8bv1whSVGWZ8qnHa/G1SiHEq03eSQnxrPTHmTNoAQe0kRwMjcWADVXHjqKHWYfte1MV470hXVnR40/C1gTQ9GQ1apW3x1oXz6HDoSQYwL7dEEZ6ZDfKiDncYO/kb/kqQw2mQ9sAhnq//ZQ84rWmj2TCtxvZqY3n4Gktt8lHg9Ef0+dlD9uXdJzZo5Zy+vGEZGJiHiC3ZCH+W+SKFuKZJXP2cCB7ky0p7FyTpgO/ZqhPidwu1H+GTZWvWLS6IjOnL+TvI6fZuUWPorLB0aU+7f0+ZohflZfcVCSZS0HbuZRhSgm3XhJk/6fpCD16im3JlhQqVZGv+n/I2IZFcs72ovSX2LtlG8Evf01CiFwkHR+FEEIIIYQwM3nPLYQQQgghhJlJkC2EEEIIIYSZSZAthBBCCCGEmUmQLYQQQgghhJlJkC2EEEIIIYSZSZAthBBCCCGEmUmQLYQQQgghhJlJkC2EEEIIIYSZSZAthBBCCCGEmUmQLYQQQgghhJlJkC2EEEIIIYSZSZAthBBCCCGEmUmQLYQQQgghhJlJkC2EEEIIIYSZSZAthBBCCCGEmUmQLYQQQgghhJm9gUF2GON8qlKmgofRn1vAnudaSkpsMAu/68t7jb2pmL6MilXqULPxBwQE3X1JZX8DRS2kXQUPyr47iO25XRbxajszgxaZruu0v+Z8F/owh8xXmOj3CRbvfoRFrx3c+FcK/DpLYdfXn2Hx7keU+fNybhcmiwPfD8Li3Y/IU2MKa3Oc+yJz23maOG88cB8V/C+UVgjxX2WZ2wX49xWmincDGmtTAdBFH+NQdNLzLSJhBwM6DWabNhWwwsa+GMU16rQ0fTI6nR7Ib9ZSCyGejaIqhqePO0UfT7Gjup1FDrmsKaRK/6cmP9YvrXTi31BAkx+4gaKxfoZjaYOzd2NauqQ+npIcvoc90fdfYgmFEG+CNzDILkbzkZNonv6/S7P88ZkS+lxLuLxgFtu0qaTa12f4vPF0d5FbshCvjAI1+XziSOo9V6b8FNSkB+LPFJiJV1lBexVWQIomP4VynNuOhgPH0TDDlPNj27InOvqllU8I8WZ4A5uLvCgdJ8JjACjV7QsJsIX4T7CkoI0VAAU18hbqdVdQ81baPzT22OVuUYQQbzAJsp9bMrr0ZiKOLk65XRghco8+twtgTlbkSw+uCzpKkP26e3QseaaabCGEeDlegeYiOmI2z+OXZTs5GB6LVmfASlMYJ2d3avt9ysB2FSiQTc6UqEDmz17MhqCznNfqUJ4x3/MLY5yPP3PijTtPHexXizKZ5rSwqMHw4Jl0tc2pDWjOgoc0ptu6W1Qbu52ldSJZOHkOi4NCuKDVY2lfEo+6nQn41g9PM6wrzTnG+fgxN748A/5eRDftWn6avoztIVFodQpvOZajjl8fhvfypkg2S0g+u52Zs5fz95FwLmt16FU2OLpUpk7bLnzmV5cSatNljd83nwnTlxEYHksSaXka+vcnwCOnMuuJ37eKXxau41BIFNd1CorGnvIetXi/52d09Xo7+6wJx1g+fS4rgs4Spk0kxWDFW47OVPFqTbe+HWnklO9ZdtqrLSmSLbPnsnjnEc7EatEZrLCxd6R89TZ069uFFtm8iXm493949VnPLe/hHJjZniJJp1kx7hfmBIVwWavHAKCux8QTU2mTKW9K7B5+nTSHjUFnuaJTeMuxMo269eGbbhU41MuHQftTqTltLwsbZQ1m74Rs5Jc/lrE3NPrx+WPnVA4vnw580bcFZbM5f8zhUTte+5xqsuO24+27hCCnRhza1B7r9esZsfggB6Jvo7WwpohzOTr2+ZCxDYqYrdnJnXW/UmjkCVLa9Ef5rhgbf1/J5G1n2Bd/jxSNLRUqV2FI/850Lac2vQB9IvvWb2bS+lCCI7RcS7HE2s6OqtUq0efjtnQtZ2M6n+4yi35ZwqTdMZy+cQ/LwnZUq16fEQHNcq6h0V1mxdx1/Lb7HEfjkrhrYU0xx6I0aNiEbz+qSUVNNsdSn8jfi9cyadtZTkQnci0FrAvbUcG9It27tOULz5zD5rwaa+yBeI01hXOcWwghXo5cDrL1HB/7Mf6LIrmvKYlX9QZ42+cjjzaek0f28NfQQLYf/Zm1Y5pkCepu7viezgErOW+wolB5TxrXdcQ66RKH0vNt3DWCv6a+TzmzlDNjZ8lkoo8c5YJOoaB7AzztM98oKlEym/vc81KrrIAU7pxdTb9JszhRviVd+zalUFIkO5atY8/aH+kcrWPDkl5m2k5Qq0FBx6XNo2g1fS9FfNvQe2AH8kYF89faXWyf3I/TiX+y7duqZA5Br24aRqehG7hisKKgex0a17XDOukSJ48cZOW4YDZv6cfseT2pnilQurlpGO0HbyABK4q6N6BxeVtS4iL5e1QvTrRtRN5sS6vj+Ng+9Fp0miRsKFG3AS0d85ESd5q9QasZFbSdVUNmscS/YpayEruJXp2GEajNS6HynjTxcsAWPYlRp9mzdiJBO7fy9bw59HYzQ5h0K4HeMy4TmvJssxdpVIZ13poXX2/ScUZ1+oxF0fextC9LzbpVKaBOQRt+jENbpnIkaBeDlyziU5es4VLe0pVwZT3HQ45xOqEUf3bvy5yYe7zlWJYq1W1Br0OrszW5Xz9/fyiBOgVL+4r41HUhn/4iJyb1472IQfglpQJq8qmyXiQ3d3xP+/4ruUxhytatRit7O9DfIDb8GFtnD2H7/hDm/vktdcz2UGksrR2vJXaPmhpkR2WVtt362+yeMIHR2x7QrnVjRnRQcfnoAeZtP8mUARe4NHkMqxqY4TgC+VRpTVnQRvJz3zl8m1iKzzq8xwdqHad2B/HHgb34n7pK8tJv6OOY6Xjqopn4+UQCTt8hj6YIDRvWpq06hesRkWzcvpP920/w17iv2dws06+sPpqJPccREGkgj6YILZu+i6P6PueOrqdJ90t8VjL7K5PoYLr2/YPF8QoqR2fea16Jwug4d/Qsi/6cxaLdp1j2Ry86Zv791F9hes9x9Dt9B5WjM80alsNRncJt7TUO7d9L/8DDrB49kt2ts3vMT6fOT2EF4qXpjxAiNym56coaxd/DQ3GpN1DZeDvVOO32KeXHtlUVV7dmyrdnHxinXd+o9PTyUFzdGih+y84p94zSgpUhvu8qrm7VlOYLYnIswsWZXRVXN3el/KDAZyx0jDKnbTXF1a220nPfg5xnfwHHhjdXXN3cFVe32kqLP05n2s4n+6DfvjtmWuOjbXNXSnu0UgYevmGUemfPaKWWm7viWqWfsiLz8bqyVOnokVae7muyHpPvfKoorm7uSr0fjxmn3T+mjKxbRXF1q5ZlG1POLFD8vTwUVzd3pUyVgcq2TKW98/cwpZabu1Laq5Pyy8mbRmnJJ6cp73m4K65urZQhIZmP033l+LfNFVe3akqzBZnKqihK/KrBSlU3d8Wl90rl1tN217OKvah4+e9R8A98tr9lN3Je5jN4dG6XajlWOXw/4/FKUg5820ZxdXNXKvTbkM02HlQGVfdQXN3aK1/2bauU9uqk/LD3Wg5rTFJ2D2ikuLq5K5W6z1NCMqzTcGG10tO7uuLmkXY+98ty7UQqk1q8m3a8TmY+n5+U96nXdNh0pbmbu1K63ghlTw4lNcUQskf59qdlyvLYh0+fMWGv0sqjh0KVHgq+05RlCRn3rUE5PX5YWpr/ZuX8PyiHSTt/U6yqpK3T6vO/lfNGx/OqMq1rb4UqPZR3frmQKaNB2T9sYFp5/BYo25OMyxq6aIJSrEoPBe8JyowE4+2+vPzHtHX6TlPWG23jbWXj/75+XB7XuZcyrfOqMq1jWnmKf7M/0z7QKiu/GqBQpYei+jxQuZIpp27zDKVANmn6qK1K4+o9FHymKmvvZ/r9ySwhXJk5ZbHyU1Di0+fLxrkx7ymubu5K5ZEH/lF+IYRQFEXJ3TbZV05z3qBgcK5N3cy1U7aVGDTtL7b8vYgR5Y1rTM4tmE+gTiHVux+/dHQ1rk1zqMn337TEgRQiF/zF4Ze+ES9fqlMrRvbMVBvr0JgOnjbADc6Ex5p9nVaNv2BMdePXsvnrtaKhXR7Qn+N4TKpRWtj8JRw3KODVm/Ftsx6TYQOaYgvErV3JPr3yOOnhoc1sS0xFcWjKAP8KRvks3fz55r1S2ZQwkc0LdpIAlOn3I/09ChqlvuXRlzEdnYFLrFkQhPFgXMlciNUC9rh5OGepjS36/jesWLWW4AmtzNPkyLEEhxbUQ1lQ/9n+OpqnFWnhxl/y28/jmTLmk0xvDzTU8qvDO4A+9CghpnPjZJ8HOMemXfdoO3E6Q72f0vQGQH+CjUGJQGGa9v0A9wzrtHJpx4SvamNhyC7vJaLiUrFQl6VW+cxvDzTUGvIbazduZmnHkk8vwwuwcq/Hj4M78kHmmuBsWeLZ58NMtbFWVHzPnWoKWEREcMrMZbSgOKMCGlHa6HgW4cPWLlgBl09FGY/xrTvG5G03gML0HPwBTTTGZa3c5UMGlbQAXRg/bb+eIS2R7evPkQJ4dGlPa6NttKVl/3Y0tTJdxgdHtzIpwgB21Zg2qhaljVLtaD+0Ix2sIOXADubFGf+OXIyI4zZQwtOFzD1eVM6NWLRsFFFLP+K9nJoN2Zej95edGVxHGosIIXJP7gbZDiUpAqhPzmPEmjPczpRs5VQOVyf7TEFQIiGH04ZWquxTx2Tb4Lw1mlBNZUGe2GMci001McfrJa9XbbyyTFXjYJ/2Klqn1Zl5jVZU9qmetSkANthrLAAdCUZDi8dzMuQKAC6+DU0eE2vv+lRVWUDSKQ5EPTkmseERJABK+dp4mbhxVqzria2pIupPsif0LlCGZnXeMbkVFX1q4wAYQg5gPEijDfb2tkA8OybNZVds5vFw7XBxc+ZtWzO1+8klNi6eNPZtznsebwN6dAlatLGxXImNJV5nhRqw0OswPRqwigLq9J8Hr+4MrvsMgf+F04QlK6CuRE33rM1sCjZuSm1VNsGRuij2GgsU/R7+mLyDc0mKcbqtIxVdnCjwCh0SC4rStpqJ/WJnTyFAIYWbOiVr+gtQHMvi45z1Z7ugJv0q0d/lZobpD0JOsz8FsCtLh2qm+hgUp0GdtIenmP0RTwJ0/RWCY1KBwtTxdMiazb4MLcqZvn1EBJ0nygLw9KKpqWDYvgLt3POicJUdx5KNkoo4F8IKOL9yNb+G3syU0YoiziVwts+hOY8QQrwicrdNtktbvv5gHT1XnGPT0E5sGFcMDw9PvHzq0LRubao6mapHvEqYNq0DonbTRL46ZOqmncx5FCCesDiFLFUir5mCmn97ECo1RTSmQtsMgZeRq5yJewjYUNbRxA0ZwLYYxTUWkBhPbLwCbmmTtbFaAN5ytDNda2xfmLeBLI8RsXFcMShAInsmfUOMqZu5/hJ6II82jot6JUMQr6ZBv37U2j+K4MPT+LTJTAo7u1Ozem3q+tShvpcbb79Cwdw/pydm5xJ+/WM5e0JjMfXJJYtsRwhR8WgXuPrUzrajqxHtDa4Diq0dJU0dD9uSlLbLQ2C8qcwV+fTbpmwbvJWzCwLwXWBDKXdPqvvUob5Xbep7FDfx0Je7FJUtjiY771mSD8hjeGD+ldoVMDkkXd5H+zvTm4LbcYloARyL4ZrNIkuVdMCKa6Qk3iYW0joK6pK4qgMLiwKULmxqG21xtrci6xAzKVyLS7um80bs5LNvjppc5+W4VEDhQrQWMjxG2zdvx49/RRAQeZIvu59kiF1xalcrR/OGlWlexz37zpJCCPEKyuWOjxpqjVrMpnpL+H3ZOvYejuJU0AZOBW1gDlYUcm/GF0MG42/UFMCAwZBWO3TtyHY2PXX5em6buSZJmGJAr1cAFSb6s6WzQZ1ei6nX63l06ukNab0B86mzyZhPYzq4uv+oBvYGp3dt5/RTSmdhSCYlSQGHDDdol3Ys2FiG5bPnsmJnECejj7E5+hibl08lVVOS2n5fMKZv42xHQ3kdXFw6gPaj96d1Cm3UiX4+HhRPr5230O5g7KhNXMlxKVbYO2Xz4JSZQc99QFGpMX00bXjbNg+YDLKhaMvxbHfxSRudJugoF0IDiQkNZAWQ17EqbQYOY7Rv6Vcu2P53ZdNGIxv3DelRtzp/tvstnzp9mfrb3Hs00ZDCfcACK/Jlcw0o2byVuJ+S9nDxMCaS+TFPL99l3V3jCWpnBi0Yi9fKTUxef5xdkVfYsf0KO7bvJIB8VG3my/iAVjTO0uFcCCFePa/AEH5qSvn0YJxPD9AncjbkKEd27uLvnbs5GLqR0d0juLlkGf3dHrXLVqFRWQBWNJx2kFmNXoFNeOOp0KgtINmAIdua0WT06Q9H6gwBtTp91IT7+mwy3r+RpRkRAAXSRrawsKjK8OC5/2zIRIdKdBwyiY5DQBd7ikOHj7J35zY27TrLwdkBtI2bwJafmz5bLe7TpI8ucu4ZZ7f1NsPoIvq9TJ10gCSsKD1kPmv9M7WTj4pg4jMuyhpVzjMBqCzIB+gN+myG0DZwPenpzbds3JoyaGJTBqEn9uwxDh05wI7NW9kTepw1Ad24nLyEJR1LPGPJRT5V+rHT382mWRDc16eH1uoCT4YcTL8uFVK4r1cgSw3yA/Q608Pl5LOyBB5g0eFbUof+g3GP1HZ4d+mGd5duoLvKnqOnOLT7OPN2h3N822qaRCSwbelHppuiCCHEK+TV+hiN2g43r2Z0GzKehTvWMbFhUTCcY/byjN0Xi+LqlBdI4XKs+Tv8iX+iKK6OeYFkzkdnUzeaFM8VnQIUw6nYk5ujvZM9AHfi4kwG06nRcVwztTz7EhRXWaAoWsLiXrzdvcapMo3bfcToaUvZu6Q3FVWQvGUJmxPM0Kb/7j1CwpMJDNc909/6eDM0M7hwguPJCqir0fW9rLW/qVFxXDeZ8QXYFqYAYJGUyDW9iTdISRe5kPis+1ONk1tt3u8WwIylm9j8TW1sSebQghVEmLPM/3F2jnbYA8TFcz6beWIu3iQFwNH+SZMSjS1FVaBwmws3TL0NTOSEyevOipLlHLAClLirxp0w/wlNUeo3bMLXo7/hzJoA+hWzgJhgfgnM7pFBCCFeHbkaZCdHnWLH5l0czdzJCYBitPKtggq4pcvYIteO6j5pDXqjNgdy0eSS4zmyOYjTCa/eD/GdkNVM+PEnfvhxMmujXv9OmWmK4eXlAsD5nQdMBsX39u3huEFBcahGQ7cno8U4lS+FLWARfozDWQIzHXt3Hs3czDSNuiJNqr8FXOLA2rOmi5Vwmu37QriUebn6RML3bWPFvssms73l0ZT6jnlRFB23zdGnNDdGFzE82maVic6Cify9Zv/jNtpmu0pcKlFaZQH6cwRHZD23b+3YmDYCjSkJMRzeuZ4tUfdMJKop6duMiqR11DT5ZkOY5vEudayAxDBWHjN1pK+wdv91wJIatcs9qclWF6Wmcx7gBvuPJmTNFh1GYIzpY1naszxlFeDUETZoTf3GpRC5/zC7om9lmn6Pi6GnWLr1DCarT+wr0qlaIeAB1w13Tc0hhBCvlFwMsvVEzh/GZwEDCJh80MSNM56Nm09iwIqqXuWNUkr6dqOZxoLUkFl8NvtEpryJHBgbQI+AvrQbvCabIDz3JJ/cxKyFi5m/cDGbY/4rQTaU+bAztVQWcHgW36w9bxy4Jezhh8nbScIK155dqZchKW+NJjSwz4NFwnZ+nXHS6Fje3DGFcfuTsmmsYEfLnm14B4hbOpKAfZlC+6TTzBnUj76fdqPLjLBMafsY+8U3DAn4gXkmRp+5E7KdPXEPURzKUs3pNX0l7VTmccAbGJoxcNUTOX8UY+LteQfAcIMkkw+5/4Dtu7Su/hYQz/rpa42uPUPsJobNOEZqNq1g7ob8xmdf/I8vhy4iNMvDlp6Lm7dxDMhX3tNsH156I2jcGdCmCKBj9oQV/G3UR+Uep+cuZOpFBew8+K5ZxuHuitC8WSmsgJC5y1iQsdZaF830MRsIya4VkUczBniqQBfG4BHbOG10PFO4vHUe7/f9DZ/u81hmVJ5EVo6ZQqchv9M/0EQduDaMJcduAkVoUa5g1nQhhHjF5GKDZjVV+w2kzf6vWL+sD/UOV6NWeUccNGoMuniijxzlhFZPfo9+jH4v0xBtDo0Z/2sPrnz6J2GTelBvTVrefPqrhKd/jfGhY33GjPEj46i6d/dOY9By45emuugYAPSHZ/JZvzUZUirRYewn+Lykr8v95zi15acxR+k0dAP7v/uQJkvrUKu8PXm0kRwKCuWKAYr4/I+Z/pnGOFDXY/BX9QkctpvwP3pQb0c1ajvbYog7xcHwVLy+7crb4+ZykKw1rnlrfMWvX0XTfUow6z5tySH3OlR1UWPQXiTkcDgJBsjnNZDpn1c0zujQgmGfr6fdlIP80NKHFV7uVLK3Q0UyibGRHDoSzW1VMRqO+BLv17Xdp0M9Pm5RjMB1cazr1xODnw+Viefk4UAC4yrww5KvOdWtN4viT/Hnd5NJ8WmEb7sqL9j+3A7fAV2Ye2QmYftG06bldhp4OGGddI5DQeFY+X2H3+EfmGOivUf+xp8zpM5hhuyfRtsmG6jhXo537G2xMNxAGx7KwXAt9+1rMmaAr3nGLn9jWFF78KdMiJnI4GO7aN4yjIa1SuOqTuF6RBgbI++SoilO//HdaZOp3XXpD/z4cv3P/HzxJN3bDWZOtZI4cpvIU1GcdGrElOYn6L8h8zB7AHZ8MroXwZ/PYs6B5VRuuQefaiUozn0uRZwn6OI9UtSF6Tq6G35G6yxO78GN+OvzHawe8A2ulctRtVQBCqnAkHiNQ0cvcDbZklJd/Piq7FO+NimEEK+I3O016FCfiasX4j19ESuDQji88xg6A6hUhXEsX4v2fTszwK+GyRv/WzW+YsWmGiydvoiVh0PZt+UYepUNhV2q0rxuB3r3bEHlTAGyIe4MO3btN1mUvNowdux6UuNpYXEbL/3HwGsaZOWCoi1/YINLvbTRIY4cY1OoDkVTGEePpnzk9xF9fSuYDJCKvj+eVQX+YML0zQRHHePvWBuKlfek89QABtWNZPAkC5RHI5gYBb1qKvX+nb+rrGLKgrXsO3KAHaGGx+vs3LYLn5sMHNWU7f0bO9yW8svCHRwMP8ZGrQ4DVrzl6Ixbi+507PsJ7Vxe53BOQ62RvzPVdgK/bTnM1tlh7NSUpFzdD5k99RNqO1jQcEhHwkav5njQKqanOFL7hYNssKzwOYvnF+WnSQv4O+Q4m6OPUai8Jw1HzGdIu7dY3S6766kkHf5YSallM5m75jAnjgRyVGdAUdlg51QOH/9+dOvbFk956H1+amcCpo+ixsp1TF5/hgO7D7A3xRJbx6I07dCaAR81wsfRRLW0piwTZg+i7K/r+G3/OYKDT2BpV4RazbtyqH8jrOecATDdAdLRk9kLi/PeinX8tv4MQbuPsDPFEjvHojRr40WfHk1p6Zx1DBqNZxd2LyzLzLm7WHMqiq3h99ClgI2mMOUr1+KnLm3pV+dtso7CLoQQrx4LRVFkjDshxL/gHJN9/ZgR8zYfLN3EWHcz10aemUGLDjM559COuXtGGjVLEuJ5nB/blhaLorH2+53QEbVyuzhCiNeUjH/3X7J3OFX7r0OX3aers6GoSuC/ZC0j3OQVrHhB+kSiwqO5TFFqZP6ATEIkZ+JSQVWMCqVerYGNXirdQT7wmck60yPePYUlFQZ/z8nORV9GqYQQQrxkEmT/l9T4kg2rP/oHo0WosHeSAFu8uIeHfqNrnxUkqKoSsHoGn7o8erGfSPC0Pwk0KODViiZvUrMPjQdT145ltKlhDXNQ0P6FR2kXQgiRSyTI/i9R2+Hk8m9/gl2IJ/LW+4RvG+5j0O7jTHjfl/VenpTRpKANP8ah6CQUTVUGD2/34h/4eZrbB5kx6GtWP55gR/2Bg2nnlFu159YUdbRG6qNfVYnsnjSBdRlGGkoOz+azpEII8RwkyBZCmFEx2kz/C8cFM/ltbRAnDm8n0gCW9iXxbNGdbn270MLl5Qa7FoZ4jm3JGCQVI3/3ANo5vdTVitdWMtH7drAp4rnb8wghxFNJx0chhBBCCCHM7A3qfSSEEEIIIcS/Q4JsIYQQQgghzEyCbCGEEEIIIcxMgmwhhBBCCCHMTIJsIYQQQgghzEyCbCGEEEIIIcxMgmwhhBBCCCHMTIJsIYQQQgghzEyCbCGEEEIIIcxMgmwhhBBCCCHMTIJsIYQQQgghzEyCbCGEEEIIIcxMgmwhhBBCCCHMTIJsIYQQQgghzEyCbCGEEEIIIcxMgmwhhBBCCCHMzDK3C/DvC2Ocjz9z4h8aTbX0/ZWzP9d/5qWkxAazdPoiVh4O5XxcEgZApbJBY+9I3ZHz+blufjOXW4g3gZ5tfX3ot1uXJeWO93DOzmxPgadl1+6jdeO5bLQA1/6jOffROy+tpOLZPNz1O9aDDpGCho8XTGZO5bxPmfsic9u158eIlCwp1n6/Ezqi1ssrqBBCmNkbGGQXpop3AxprUwHQRR/jUHTS8y0iYQcDOg1mmzYVsMLGvhjFNeq0NH0yOp0ekCBbiBdhXb4+jZzzPf6/wcMFdU6ZNPnJpwJSIJ9GrsFXQV6NNfZAPPlx1FjkMLcNzt6NaemS+nhKcvge9kTff6llFEKIl+ENDLKL0XzkJJqn/+/SLH98poQ+1xIuL5jFNm0qqfb1GT5vPN1drM1fTPHs9IcI8P6UoJZzOTiiam6XRpiJy4ffMaXo09DoAAAgAElEQVRj0efLpLamoBpIgcISZJuH/gy9Gk9gTvNvSR1a7vnzq/NTWIGrFvkpZJPTzHY0HDiOhhmmnB/blj3R0c+/XiGEyGXSJvu56TgRHgNAqW5fSID9KrhwjLBkJbdLIV4J1hTUWAD5sNOocrsw/w0xYZzI2nrn2WlsKQQoKmsKqXOqyRZCiP8OCbKfWzK69GYiji5OuV2Y/7N332FRHH0Ax7+o3NmOKCUq2CCoIAqogIpgA3ti0BixYUk0JrHEgolGEzWJJbHGEl+Nxl6wN6xUuyhKEQULaBTUcFg4LHco+/4BKuVA0ENQ5/M8Po/H7uzMzu3u/XZ2ZlYA7kWc43JRF0IoJvSprNADylJRUdRleTckhccS8TqxsaIsFQDkZaj40u4igiAI745i0F1ExdU9K/jTx58T0fEoVRr0FYaYmdvi7DmYUV3q5jrQKTU2iJVL17LryAUuK1VI+UxXcNoHS54Y2pRa2dbU02vMz8cX08fg9X9Mjo9zp++OezSaeoANzS6yes4y1h4J54pSTSnjGti59MJ7rCcOOsgrKxUx21bwv+3PvhOJUsbGWNu2xGPQF/S1+zBnEr+x2AzfS4rdKA6t70eNXJY/tB5J0Jb+OZcnhrJx4T9sOnKBKGUSqRp9ypmaY+/0CX2HdKe1WensKbg0qzsdl8U8/5zkM4BaPlnXKeiA1uIq/VjfyK6QSC4nJKOWyTAyq42dSy+GDelIfa3HwLNBZMZ8vsGXqbZPuOr/N3/8vYcT0fGoNOlrVRm0mUMjsx/JcCdkPTMW+hAcHs9/yDC1aornkO8Y4pqAt9Ngdj5owLigZQwwyXavrk7g6Kol/LM3hLOx8ag0+hnHjzNd+35NHyctx4/OlKGiDPTy0f834OfhuO1S0fKXPwlsep3587az/OhVzt15QimjSjg3a8lE73a46jwwTCZy5x6m7ozgREwi8SlPKGVohIOtDX0HeDDQtqKWwv4P2eiTpNbvzuVVHfgot+V1unB5Q+ecy9VJHFy7ndn7L3A2LonbqVDG0Ii6tjb06+3BMIeceUbN/Yl6K2+8+MPm6ehtzrZSu+FI0xvkvbvP+snLyqJlzwRBEN5ZRRxkqzkz9Qu81lzksaIGTo4tcTUuTQnlTcJOBbNufBAHTs9k+5Q2VMqW8q7fr/Ty3sxljT4VrRxwdzGlTPK/nMxItztgIuvmd+UVehBqkXmwZApxp05zRSVRwbYlDsbZf4DrUeOlo7PyRy7TB1J5cGErQ2cv4axVJ/oMaUvF5Iv4+ewgePs0esWp2LV+kI72E1BfZPPQoYw7ehtJZkhNu0bYK/RQxV3kbMB6fg3YxbZxS1jvZUPOsPcVxfsyqOcEgpQlqWjlQBsnEwxQkxR7juDtszjiv4/vVyzjK+usXXMUVg1wb21KSvQxTiSoKWnakFZW2W6tHI11VUpCdkUw/MyTfK0r6Sv4xduSdrLXD9CeXFhNn56zOKORKGveCNcOxpRWq4iLCCVw9Y8En45gzbqxOOZ4FF8Da6sKEHOTM+FxXL28gM8mBHJfZoi5VSOs5XqoVUqe5jiG4a7fT3QbvpPrpJ9fnaxMSI0/wz+D+xIy0QuZBiSZDP3seaovsrbvV0yKvEtJ03q0dGuIiVyPFOVFTh7ZwuSAQHZNXYmPR/XXrhftymZ0F9F/af/f0vr6ADyMDqbb3J2ctnJk0NfODFZd58DmI2zd6YN/nIaIVZ2pr6viqW+wbOQsBh6/B7Iy2NS3ooMCVHFXOBJ0iMNBIfwz5nv8e5mjs45o6hssHDidoeceIDM1p12rOpjKU7mvvM3Jo4cYHhTC1l8mEfhJ1qusgVUdPFtWIDEmmoCbT8DUnM61y2Uqlz44VHh5/s/6ySvKYqirfRIEQXgLFG2QHb+XuRsv8djEnXm7ZtIpc2tc8jmm9+vHsm2zmOvVmmlWmaZ9SvTl+/FbuKwxpNGkv1nR3fJFwJd4gh/7f8sm/6mMWN2IvV452kxfQebBks9aB+XYD53NIpe8pqPSjejVy3k6ajn+A18Etj087Bn08XiCwtex4Ehv5utkykA1UbPGM+7obUpadGH28ol0NNF7vuyW76/0GrOLc9PG8rvDdiZa62Lf1ZxdsIAgZUk+GreB7V6WWYL3W1u/p9OE/fw+dw+e2aZvq9xpHIs6QdRUDzzWxFHBdRiLCm3gYxrJ/6o4eSV/QTb6JUnSSb5J7Jn9P85oJIy7zGPflBYv6kAdxfQuXiy7sIUpO3qzvXvOwNXCqgbsSOTa4cVMCT+GvONEtv3cJZeW7xfbnTfNl+vo81HfJfiMbfg8z7t+P9F1/CL+00ggJ8eN1iO/ZUyNvIvc9Wd8F3+W5YlFaqwPX3adxrE5/+Nghym0KZT+uWWo37kD39cxyXcLdMi6PaQOH8OFAbWfB5CDO9emW5fFbIncy+/H2rLGWRe3lKmEzlvAN8fvQc2m7Py7P58Yy54vu75vKS3HhnB8xmK8HaawsLZuri0pAbsYf+4BMuf+xC5sQeZObpq4/XTy3IDfn5vY0XYIn2b6Tqq178OG9hA6YywO626j5+zJjlcZ+EglPAe0pYKiIaKDnSAI75OiDbJvnOOyRkJj7oxL9h99g3qMXrCObhhR1Szrj82lVSsJUkmkuQ7lz+5ZgzJMmvDrD50I+nonF1etI8RrHE6FviOFK83sYyYNzNZybOJON4dpBAXe4Xx0PLjkfNxfYMmHWbTjElCFrlO+zxRgA8ip3GkkI/aEM+tqaa5GxoG15evnSQpX4pWAMdZ25jmCtspdf2CT9TeUNzPVYfefV1EC9yHNkIa86XxlOAydwaIuyZS1c81aB3IbennYsGxuBOGHo3ncvXqO+jMxNkYGaI4cIMhpLH4zu+bsqpPdBV/233yKZODCsG8bZMmzovv3TNxzikH7bmpNeiM6Dg1Q3dE2Rz76Fh7M3mrHI4Up1QpxAFyt9p8xvf3L13vO1JE5mQJsAIwb0dNBzpagx5yMSQRnHcy3rYpg7s7bpGLIF7/0zRRgA+hTrX1v/tgfx49xelyPuAm1q75+nsC1mATuA5YOFjmCXJl5a9b4WPNQYYR5oX0nRrh/0RP3Qtq6IAhCcVW0Ax9NalAJkIetYOK289zPtljfrA6WZsbZAockwkPSp3Oq79YsRzcSgJKN29BIpkeJ+FBC49O0rPF2KenkrOVGQY6JcfrILpXydYb+ZxJ2guMqCcmkCe3ttLWMG9F54S6CfTexvLsuAmyA8hgbGwA38Zv9DwHx2efDNcLC2pwPDXTUB+eto8DUzhn3ju1xNisB6mRUiUpuxMdzIz6ex6R3eVBrVKi1pC4hfxbIVaHzkE9fHmAD96IvkgiorZpq6e+vwNXDEYNc0pqYmyAD4jbMZ1X4f9mWyjG2sKKaSW6pi4hDA3L22tenimE5AJRJD3WTT/hZ/FMAo9p0r6+tZdyAz+b8Qcz2aezsppsAG6CSeUX0gcubtzIv4m62pfpUMq+OuXE5neUnCIIgpCvalmwLD77/fAcDN13Cd3xPdk2vgp2dA05uzWjr4kxDM21tl7eIUqYPQFT6zmLESW2tLylcRgJuEpUg8bY/o6ygMHoj+dxLSCAZSDU1z1cwphtyWg4dStOjkzkesoDBbRZjaG5LE0dnXNya0cLJmg/f1/j6uSSOrprPIh9/zsalv10032R6lAY0Bg1pb5u/Xr7K2PTbXT1jI+03sR/Vw5KdnNGyrEKnbxm4OpS/YoL5tWcw04xr09jRgeZurXB1caSWzgfpvr4Kb2g+7aSEJJQAptXR1S1qfhi378K0dTF4Xwzju35hjDOqinOjOrRvVZ/2zWyxETN+CIIgFIoiHviooOnktfg2X8//fHZwKCSWyCO7iDyyi2XoU9G2HcPGjcHLLvPgGg0aTfqcyLdPHcA3z+2rua8S8yfnl1qd3haaJpfpblBjflh0YdXuWmxc+g+b/I8QFhfKnrhQ9mycT5qiBs6ew5gyxJ3q7+Ucu0nsH9KLoYG3kGRVaNa9H584mfNBRl08OPwXYzZeeulWnhob8WE+60+jfgBAaXkudzcyee5vXpTbMHLDVpx8VrBuuz9B0Rc5uvciR/euYxrlqdVhABPGfomzyfv3XT7WZNweyfXf7PklN2f0qqk4bfZlzs4zBFy8gd+BG/gd8Meb0jRs15HfvT/GXcsAWEEQBOHVFYMp/OTUdOvPdLf+oE7iQvhpTvkHcNA/kBMRu/mlXwx31/sw/PkgOxkKWfrsAa0WnGBJ62KwC+8IeUZQVUKtQdcvMX5ppx2TenQfN5vu40AVH8nJkNMc8t+Pb8AFTiz1xiNhBntnttXasvqmhOyK4IfIfA58RMFYXcwuEraM3wNvAdXpvtKHqdm68dxL3Ay8PMhOkxvkO7CTMrqYPFZr64ACaNRau6Y8JzelWd8fadb3R0i+Ssip0xzyD8DP/xiX9s6nd8wNVm2ZiOt7dtNUWpbRdUf9UOfn19OXrSA3wrV3X1x79wXVLYJPR3Iy8AwrAqM5s38rbWIS2b9hAG3fs+9EEAShMBWvl9HIjbB2akffcb+z2m8Hs1pVBs0llm4MybRSZSzNSgKpXI+PL6qSvpMqmJpiAOgnxHAt17XUqNXqAgcJycr8d3NQmNXHvcsAflmwgUPrv8JGBil717MnsSj716fPLhIUnc9/Vx7qZHaR2+ExXAc0dt0YrKWffHxsgg5yycrYLL17kqRM4raW5U+vXMr/y38MauLk1g3vqX+xb/f/6G5aglKxu1kaoKN+zm8RI1MjjAESbuZRf6k8VqfyKI/l2txTPsh/QRSVadGqDd//8gPnt3kztIoeXD3On0G6Dv0FQRDeb0UaZKfERuK3J4DTydq6dFTh4472yIB7qswD+4xwdLMGIHZPUC7B4E1O7TnCucTi96PxIHwrM6b9wW/T5rA9tpgNyrRvQlOFHnqJZ9hxSlsQlMTOQa2p18CJNnPOZV2kKM8HQCllgpbATEVYSEyOvwKgTiL68H42Hb6udXE5u7a0MC2JJKm4/5LxnQ/zbl99TRmzi6xqkb9/y+zopYM5stXq9FsTrV14kk+wbm/ut0OvytjcHAOgdPRpItTZz001IXuPkqw1pYqE8GPs3hOiNTjHpAndHCsDqdzLrZX8XWbXALfyQFIUm0O1XZuSWfvtMMo0+QrjebFZFynKpAfoSfe13Lw94kTo1VzC70dci4hkw77zaG2SMLahZ6OKwBP+0+R94yPlkoMgCIKgXREG2WourpzAN94j8Z5zIsfMInCT3XvC0KBPQyerLEtqdOxLO4UeaeFL+Gbp2Wxpkzg21Zv+3kPoMmZbHi2yRSMlzJclq9eycvVa9lwtZkG2gSvffFoTuInv5D8ISMwcYKm55TuHuUdTQGZDn0/rZk1rUQ/LjBldjmW7eXhwchlzA5Ta80w+zNRhPzDO+zdWaJkJ5kH4AYITniKZ1KaRmfag9VnLq+pUEKeyB4XqZJ0/mn+TqlrUxACQRx/ncOabUXUCO8f9QaRJdWSATHmHWzrKs2Tj5rQqrwfJwczaeCVL/d059AeTA1S5zC5yh32ThjPS+2cmBGgJsxNPsPlUeteXhnWKdkLGIqGwZUTnSoCKpb+tYpcy87GayvV9a/n5mBpk5kz4pGbWtObVsdEHEqLYle26oTq9lZ8DUzLmmckuic1T5tJz3P8YHnQn52JlFOtD7wKV6FBH+4tlKlcpl77t02c5lOP8ephHq7sgCML7rQg7NMtpOHQUnY+OYKfP1zQPaURTK1NMFHI0qpvEnTrNWaWasnZD+eXTbHPUmrjz+7z+3Bi8nKjZ/Wm+LT1tafUtojPexvjUtAVTpnhmmSXj4aEFjN6Y9UGtKu4qAOqQxXwzdFumJfXoNvVL3IrhbAiFR47N6D+YFP0Vk05v46s2wVjZ2VJNoYcqLpSTcclAFZpNms5gi2z3Zyau9G5WieOBl5jXvw/xHh1oaKZHfHgwvv73aDHKg+Tp24klNWvQa9KBCd/upMvcE/zWyY1NTrbUMzZCRgpJ8Rc5eSqO+7IqtJr4Xa59eCu5tqXhnFDOxG6gR/Ng6pobI9eoSFEmcUNZkc+36OrFOW9eCdcefF7Tl2VXg/mt53dEedhjqozhkH8gYVWHsGGKHhM+m8W5C+uYMq0EbV3a0sf1Ned0ljdn2ChnAn85ypVpPXD3a4WzeWlS4yI5EP4Y94lf8uH4uRzPkbAGnmM/Z9PgdQQN7YSrrQMNLUwwkIFKeZXwU5HcUJXCou94Rryl38fr0afR8KEsiJnO0NDjdO50Dsf6NbBQwH9xVzhy7RGpego6TRjMOPNs55dxI0Y224pf0G1+G/gbcZ80pJmpHqrIMBYFqej4nQvqGUeIypFnVb4a05p13/qxdeQPWNavQ8OaH1BRBpqk25w8fYULKaWo2duTEbm8/MasWTNazIvF72oALduE4VijAnqah9xX3ufqHQPG+EzhFx29OEcQBOFdUrSjBk1aMGvralwXrmHzkXBC/ENRaUAmM8TUqimfDenFSM/GWge7lWs8gk2+jdmwcA2bQyI4vDcUtaw8hhYNae/Sja8GdsjxVjtNwnn8Ao5qLUpJZRR+AS9+ovT07uOk/gJ4n4JsQF6b3qu2YOuzgkXb/AkLDyJGo095Y1McOnTBc+AXeFhra/Eyot3sJcyfPYNFe8PYs3Qm22SG1HRqydcrZuAp30UX7RlS+6tF+Flv4M/VfpyIDmW3UoUGfcqZmmPdoR/dh3xJF4s8Wj4tPFm0JI0ZC30IDo8jOkKJvkKBsVltmrVuibtZ8Rp6UCByG8au/AvjyXNZe+o4a+Yco5xpHRw7TsF3iDvV5SlM+PIo3qtPEOqzhlulG75+kA3U6DGHLQYL+XWpL2fDD7A13BBzO2dGLvmOgVan6Ts+fT0p2zQj5Rr/wKb1DVi8dCOHwqM4GJ1Mqgb0FVWwsPuYsV6D6e1a7c3OrlGcyKsyZOlUnDbtYM7OCAIiznEqtRRljIxo0bYF/b7oRJ862t4Hb0DH6T+wad4m5uy7xMYVW/CRKajtUI9xf3/HVzI/HAB4SPZOHwqH3gSurs3ifwLYFhnLvuhHqFKhvMIQq/pN+aO3B0ObfZj7a9zNW7P2Lw1j/+fPngglIeeSKacoS5Uq1fikVQNcq7zF55cgCEIh0pMkScxxJwhC/sX74NlmKmfl7sw8O4vOOt24mv1D3BgaqMJm0n62d6+s060Lb5/LUz3osCaOMp7/I2Ji06IujiAIQr6J+e/eJYd+puHwHagK9LYSkGTV8Vr/9napEHRPk3iVK3Hx3DOuR9NsTxHSLpzjMqCxsKJO0RSvaBxZSuVRR7lT0PF/skoMWj2FhaJLhSAIwntFBNnvksbfsWvrgFcY6CfD2EwEAMIL//49gs5r4ihh3YO1y8e+eL168jn+XHiQZOCjDi3fryDbsTsnfDrxiII+/NOnsqk4vwRBEN43Ish+l8iNMLN4M69gF95tloNG0j1gBBsvbMCzTSjNHc35gBTiIo5zXilRwroH070K9+XgsRumMuLki97bGruezO7boOj6c8sNqGmufV4VQVeSCJw9gx2ZZhpKib5ZhOURBEF4dSLIFgQhJ5MWTNm6GseF/7DW/xQhAZfQoI+RqQ0tB/Zm+MAO1C/ktwM+ig7GN/rF5wcpjZlWlEG28AakEHfYD98YMSe3IAhvPzHwURAEQRAEQRB0TMy9JAiCIAiCIAg6JoJsQRAEQRAEQdAxEWQLgiAIgiAIgo6JIFsQBEEQBEEQdEwE2YIgCIIgCIKgYyLIFgRBEARBEAQdE0G2IAiCIAiCIOiYCLIFQRAEQRAEQcdEkC0IgiAIgiAIOiaCbEEQBEEQBEHQMRFkC4IgCIIgCIKOiSBbEARBEARBEHRMBNmCIAiCIAiCoGMiyBYEQRAEQRAEHRNBtiAIgiAIgiDomAiyBUEQBEEQBEHH3sMgO4rpbg2pVdcuyz9r7+ACbSU1/jirfxzCp+6u2GRsw8a+GU3cP8f7yMNCKXma70hs6tpRu8FodhZKDgIAsavpklHPB16y6vFx7tSqa0e1/lu4/UYKJxQnt1d+meNaUiufxw7Kw3xiPwC9BgOotfx6wTJOCKCN/QD0Ggzny8inr1p84aXiGNPxC/QajH5pPT/dOx9ZgwGUaDyXdW+iaAU9fvzGPv+tynKs2gxgeWJa4ZdXEN5DpYq6AG+eIfauLXFXpl9UVHGhnIxLLtgmEv0Y2XMM+5VpgD7ljatQVSFPX6ZOQaVSA2V1WmpBEIqvp8Y2tHWsSulnf5A3otLLEinKUloGpEJphbheCAVU0OPHrDEfd0hD/eyz+iYhAREoC7GIgvC+ew+D7Cq0nzSb9hmf/l3ihdvciAJt4fqqJexXppFm3IKfV/xOP4syui+mFiWcvuOfFb0AI6zeSI5v1u2VX+L6Rxo/H/+HPgZ6RV2cfKk/aA5rujxGUtR8eVAlvLMku17MnfXxiyA7P+RlqCAHUsGwoEG2kQMzlppwjzJUr/kOPpCM2ES9fgeoOmc++1oWqFaLTElHDw783QIwwvZNZFjQ48e6C7/P6vLic7Ifg5p7E5xaaCUUhPfeexhkvy4VZ6OvAlCz77A3FmADYFKTxiY131x+b5SKsJAYoFZRF6RAylvUp7FFUZdCeDuVoYJCD1LkGClkBUsqN8DeoX7hFKsYiI+4wkWgalEXpCCMq9HSuNobzPA1jh9BEN6Id7AJpLCloMroJmJqYVbUhXmHXOZExIOiLoRQzD0u6gLolD6VFXpAWSoqirosxUkq4aFXEQ2sLyOOH0Eo7opBkK3i6p75jOznQdPGjtSqa0fdxq1o0+M7Jm47z/08UqbGBrH0x0F82twFmwKkK7jMgyXbMykmFUjlxNCmWgaRfMWaZElH+V5iTsecgzRfOvAx3gfPunZ81GYaISQTs20WQ7p2pKG9HZb2zWjedThT/K9rCVie7ecnTL7wlJQLuxnXzwPnjHSNOw1mrE+Y9rrNGFRTo+dKruWx3PyzFVmXq/0ZZm9Prbr9WZOUhiSdYXIT+6z7W7cXi+J1PzDn5uGVjOqRuV6+ZuK286jySpRRt9m/kzwHPvr9hE1dO9puvMxFn/F82twJG/v29F56lseoCP17OO0bO2Jp357O0w+99QMo08/Lb58PCra0d6Rxp958Nc2XyDzOjaipHtSqa4fb0ksApFzYzdSvPGmVcV2oVdeOWv3Xa62f1PhgZo3um7GuA/buAxi16iS3UbFzkBO16jrgFaBtQPKrX39eXxkqykCPspgqXt496thPw9FrMCDbv5cNfIzj545fUKLBT0xJSEMVEcy33/5ITdcByBoMwrjTL/ReHka8lpQBP6fnV3/zLVBdZP4Pv1HXdVBGup/oNPMQ59Ravs9nA/Iaz2C5KvflJRtMy7Y8iX+8vkSvwVd0ClIDT9g/8psc+9xqVwHH0OSDJu4040dOzLJ/3eadIlZb+Z+7wU8eX+QoX54DH1VH0utm1DH+O72PzzyGUKrxt9iM8iMSSAxcg1vHQZRq/C3mQ3w4nGf+BTt+BEF484q4u4iaM1O/wGvNRR4rauDk2BJX49KUUN4k7FQw68YHceD0TLZPaZOjv+tdv1/p5b2Zyxp9Klo54O5iSpnkfzmZkW53wETWze9KHZ2UM/NgyRTiTp3mikqigm1LHIyzX9zqUUOuk0yB8lg7tcTdIiPA1Fwj5Ehs3kEggEyOHECjJGza1yzam4qLR0/GeOqRELKbdXuDWTEskmsLtrKkdcXMCZHLAVK4G7GSL6fNI9qsIQ1damKtvMiJiBNsmRxKWNwSto9tWLD+p7mRV6axWyueqBIIPxJNIobUdrGluixzvVanhky3PyJ3fSfw2ZhdJKJPZduWuFsZkJpwkYOTB3HWozUlc0uoqEHj1q0wzPioSYjkUPRLhg7J5JQGnvrNYlh8OboM7M7RpWs4OXsGM5IN8TvyAT2HeHJs4RqOr5rIby6+zHd5vYFwqRFXaLftPvmb56YUn/Svx/gar3/P/eTCavr0nMUZjURZ80a4djCmtFpFXEQogat/JPh0BGvWjcVRnvP7tLCrg2xNHFdPRaBsdpwhPWdzRlOKKlZ1cFKUBnUStxVaTq54X77tOp4glUQpYxvcXCworb7G2dlD+TRmNJ7JaYCc0rLsaV/9+qMbZdMf96NPxfIvX1thWw/PlGdn/yMij17h/Eube/X5QAYSqcTuW0KTxeep0K4ZPwxvSerVi6zcGcq6eX/imzSam971yNz5rbS+PgDJV6MY4+XDzBRD3B3qU1t1i4iIG+xZu5w9EfeIWNUZ3XRcKUt1hwZ4Gj/g0ulozqRApfo2tDTKfKzo09BUx10j4g7Rte9yfFOgZM3adG1ljJH6DiGb/uKjmKb0zjVhGewcGuBprkn/qE7i0PGb3MorL1mZ9MGKCcfo/1syVTp3YHDgXv4K9GHIn7fR3x+LdW8PrHfuYOGxfbRf7siD4bn1RyvY8SMIwptXtEF2/F7mbrzEYxN35u2aSafMg92SzzG9Xz+WbZvFXK/WTLPKFPYk+vL9+C1c1hjSaNLfrOhu+SLgSzzBj/2/ZZP/VEasbsRerxo6KGjmwZLX+KfLZ0yLkWM/dDaLXHINx3ScL+mtqG2mcjafqUsk+jHdvw0Ltsygo0lG3Xp+TnujPnisucj+v3dyrXU/XtSQjA/kJYA7HJy2mtqj13LSy+Z53d7a+j1dJ+znyoaZLPdawzdmungQYkOfWXPok7yHr5qMI0ivJj1nzi3cgY/qM8yb7ksi+tQatZKtA1/s45MLq/mi/yyOA1pLYNCEUQuaPP/4aOsIbCcE5p2fHOTAv0fi+HyDL1/blqTj43Dc5kaweqkNIw/O42uzEnR8fBq3uRcIOxULLvVebxfvPSTwyktvxzKUpFryU17/wVYSe2b/jzMaCeMu89g3pQUfPC9QFNO7eLHswham7EfT/NgAACAASURBVOjN9u7Vc6QuY1aFSsDVK8FMnRzCWYsuzJj5PR55jntQETRrNkEqidJOo1i7uC+2GQF8auw2vu0/jb+TUwF5zpvCV73+6EwZ6nfuwPd1THDNR0tk/c+/YsPnzz7F8XPHXzl/Mx/ZyPWA26xeDH3/msLSRs/6FrRlgPNS7IccJXbTXjYMtmGAlnLEb9zAMpc+XJ7WnI+e1W2MP10GrsE3chfDdzUj8BOj/OzwS5TB/buhuHObhZ4/cuZiCey/GMqGQh34+Ig98zbhmwL6zr25sNCdj54tUl3Ee+BMZt3MrTXZiG4ThtHt2ceEA7h2XJ93kP1MTBSXhv/CngHVoFEywf0OcnhFEC1/mc6CT4ygtpK9g4KIPR3DFSxelCmLgh0/giC8eUXbXeTGOS5rJDTmzrhkD6oM6jF6wTr2HlzDxGw/cJdWrSRIJZHmOpQ/MwfYACZN+PWHTpiQysVV6wgp9J0ozvRxHDrmRYANgBwbj1ZYAvLoCMJzSfngo15MzxRgA1TuOpIhdfRBE8XOgALO61uMPD25h/1JaUgmbRnpVTfLPpay9uKHT2sWSr6SSRPa26Yfy1UtzJABTywa4Zxxs1LVrAYyQBmf9Np5lW9eH2lVi3z+c2FTff3XzhNkOAydwaKZvzPrW9cXATaA3IZeHjZAKuGHo7X3rTapgglQMiGYHQlOTF/800sCbEB9lt1HkgBD2g75/HmADaBv0YUZI5zR0+SS9hWvP7pUq/1nTP+uudaWfV1LbdWV+Y2ydt5VNHOmo5EeaK5z5Kr2LllP9SyY8qPr8wAbQL+OG5M7VwKeELTvHHcKs+CFSXWe5UdTAEMGfdcqazCrqM30YU5UKZSMK9GjVcaYHrNqmAN6VOOTphlPFs2rYwGQdJMbeWzlTR4/giAUXNEG2SY1qATIw1Zo7f+ob1YHSzPjbC1QSYSHxAFQ362Z1se4JRu3oZFMjxLxoYQWQl/et4UetWnpaJJzgYkpJoBECsm59JGt5tJUS1ebKtg7po/3vxoe89YOQouPjiERkKyccdLy42Tj4oBBIeSbamr+/KlBCVl5SgOPzWpS89nfMrpCPFar39K6VWBq54x7x/bpNw7qZFSJSm7Ex3MjPp7HpAfyao3qxVy9WZIrngfmNfsOo6tJPi5PV84RlSKBvB5NbHMG5BXc2+KcW1ejV7r+vL2at7IiZw0ZUFMBkMrd3B582NrT2Tjnd2HX1DL9+7p6hUgdlvONio3hggZQmNO5ds6bqVJ29Wimi/vP7GRGmFfJOC7l+pSWgZ7MEItn9Swvk37cqVPf0muBIAhQ1N1FLDz4/vMdDNx0Cd/xPdk1vQp2dg44uTWjrYszDc0+0JLoFlHK9IE+St9ZjDip7Qc0hctIwE2iEiR4TycBkeQKFHk8RtTT5PYYVJ8qVuZalxibGQFxpChV3Ie3MgBRxqf3oS5naoS2IwxjQz6El/d9L6BUg/JUyPY3+bP+8xlKAw/Jren1bZDE0VXzWeTjz9m45Ffckyo4ueRzXkTlHf4DJAMjamhrzTOowUdGJQjS1q3ila4/b6vSGCnKaV+UUW8SqaBtNIJpZa2X0FImH1BVgmRlstaBk2+Dp0nJXNQDjIwx1baCwih9Bg8dN9XroY9htuM1TY6WmyBBEN5mRTzwUUHTyWvxbb6e//ns4FBILJFHdhF5ZBfL0KeibTuGjRuDl13m0ESDJiM4vH3qAL55bl/N/TxHZ7/7XjUIriDXPnpTnvH3EmrNW9vCotakjxYrncs+UlrxVt48FL0k9g/pxdDAW0iyKjTr3o9PnMz5ICOYeHD4L8ZsvPTSrejpVaG2UT4ff2vSW/2lbDcrL5TnQ4MSoLXv8qtcf95Dub3oRKZPadKD88dq6Xmw/lZRZ4wclZfN9R29hRH46mn96S2MJnNBEIpSMXgZjZyabv2Z7tYf1ElcCD/NKf8ADvoHciJiN7/0i+Hueh+GWz9rYZGhkKWPqG614ARLWheDXXgHPUKDtsNDrU5/0J8ml+Volc1Lceq0I5el/5g9VmvttACP7xTy1G2FLzXiCm1353cvStG5dz1Gvu7sImHL+D3wFlCd7it9mGqXNWy5l7gZeHmQDaCf34BNpkdpQK1Ra++Cgob/kvM6+gp6/XkPqXOZwkST3pVBW6vsyxSbG3R5RmCrfpjLTDyp3M31iZ8gCELeileEKjfC2qkd1k7t6DvuJjuH9Gd04CWWbgxh+MSmGStVxtKsJNzUcD0+HtDF7CFCVqko4xPRVrfPBuWVNzbW3tUiF8nKV+06oHvGZsZAAg8SErgPOfYjLS7hrZ+rWn3vIUHR+Z9dxDj5KSNfc4jG7fAYrgMau24MtsvZLhgfm/Ba29fKwJAPgOTkJG5ra01NvsaVpHze4uXr+vMeSkjmETlbdJ/GJ3FDDyRjIypqSVYytxNelcRd3ZbwlZU0MqCaBLFJSq5AzqkIlbe5qiKXqYYEQRDyVqRBdkpsJCeiE6ng0gqHHFO2VeHjjvaMC9zHPVXmYMEIRzdrOB1O7J4grnn10xIK3uTUniuUcXSgnknxevD/IHwrf+25jBp96nl+h4dFMXgfkBYXj5zmvleNbAHoTcJOpY91r+6UbVikojwfAI+V6QFq1u/k2SvT8ydVLVGYv2pmVjUxIIL70aGEqLvSJktgpuKQ/2k0hVqCwle+eX2k5m82T7U6PapKk8tydrdJPsG6vVpfU/R6LOrxkUyP6+pLHI9J4xPbrC3O9/x2cyaXlshXu/68h2LOcEDdlE+z3cCEhV5Nf+JT56OswamiLKVlkJaaTIJKgmzjQpQRsUTkeXKVgjf1lnALC6xlEKuK4+DFp3hkG/yoPHqW4Lf5QiAIQpEqwghPzcWVE/jGeyTec05oeTx/k917wtCgT0MnqyxLanTsSzuFHmnhS/hm6dlsaZM4NtWb/t5D6DJmm/a3DxahlDBflqxey8rVa9mTy5RZxUGJw3/zU0DW9ty7fn+xMCYVZA3p2ezDrAks6mGZMaPLsdis+/Xg5DLmBrzkhS0GRhiU10OSLhJ8NDHH4uTkXLp2vIKSjdvQ0rgEeokHmPdX1jdY3vWby/SjyW/sN/5dUtWiJgaAPPo4hzPPWqNOYOe4P4g0qY4MkCnv5G8u4fwwaMAnjuWAm+xcuD3L+a6J92XCX6GkaX3l9Ktff947SeH8ND8q69i/hMNM23kbKE27zvWfv5wJAHklmpjqIXGLXcf+y7otZRhjF0e/JMOyVFHoA08IDIzIMeZQrXrIo1fbk5wUdenpIAfusOTPA1neYKmJO8SIeRcoLbpKC4LwioqwJVtOw6Gj6Hx0BDt9vqZ5SCOaWpliopCjUd0k7tRpzirVlLUbyi+fVsua1MSd3+f158bg5UTN7k/zbelpS6tvEZ3xNsanpi2YMsUzS4vqw0MLGL3xcpZNqeKuAqAOWcw3Q7dlWlKPblO/xK0wX4qSl+QTLPtxA6cz/01zjcuApD7D8qEj2JtpUVXPiYx31fbQ9lWUx9nDlnNDu+Lu6EBDcwNSE85x6EgsyehTa6g3PbK/iMbEld7NKnE88BLz+vch3qMDDc30iA8Pxtf/Hi1GeZA8fTux5DYlVV0+c6vCjh0JHP2xE43/rkM1RSoalQplfAI3XadwYf7HOnrLZHPGjGhB0IRAov/uT3O/RjibG6BJiOREdBpOY/vw4fR/OEG2vqNhGxix9ESWvr+ahPTJy2QX1jN26OFM5TOk7bgJdNHJC3veDiVce/B5TV+WXQ3mt57fEeVhj6kyhkP+gYRVHcKGKXpM+GwW5y6sY8q0ErR1aUsf12ov33CejOg4sjf/nFpM1OFf6NzpAC3tzCiTfImTR6LR9/wRz5DfWJbjQcprXH/euCR2z1jPmoTMR94jIpUS8IjgGXPokWmg6CPHT9jQq7bOBuyZtXSi+o5ZWB6tzSf1jSmrvsOhwGjOp4K+82csbJn9LqYqnr1r8+vUGE7OmEHr6MZ8XKcCpa5ewWdfJCm9O+O5fAvrUsglWC5D8842VDl+hps7F1H51DacjfRRqx5yK+k+1+UO+PoNpp1O9s6A7t91YcXpDfgd20j9Tsdwr29COdUtTkTcRPOpJ19FbGLWxWz90lVRzPh5P6FkvplM4ooeSJpYZo2cxc7nC/Sp220APzfTercnCMI7rGj7ZJu0YNbW1bguXMPmI+GE+Iei0oBMZoipVVM+G9KLkZ6Ntc6FXa7xCDb5NmbDwjVsDong8N5Q1LLyGFo0pL1LN74a2IH62QJkTcJ5/AKOai1KSWUUfgFRzz/r6d3HSf0FRdZpQH2L4IBAjmtdeIdzAYGcy/QXy8YjQWdBNuh3nMTmDpv4beE2/LbHkYwMQ6umdPUazo9d6moJdo1oN3sJ82fPYNHeMPYsnck2mSE1nVry9YoZeMp30SXPHBU0nfQ/5hv8ySL/U1yOO0eYrDzGxkaYOrXFvYO1Tmf8qNz1d7Z88DczFu7heGwoB+PLU8XKgV7zvRntcpExs/WQ0KDO3M9XGcbBgECtfctLqC5xJCDzoL7qVB4i0eV9mj5SbsPYlX9hPHkua08dZ82cY5QzrYNjxyn4DnGnujyFCV8exXv1CUJ91nCrdEMdBNlQqu63rF1ZmT9mr+Jg+Bn2xIVS0cqBVhNXMq5LObZ2yW2e7Fe//rxZj4g5fRafi9qefD3hSmQUVzL/Sa8p9Kqts9wfmDVn63AH/py3neWBIVxIAX3TqnzWriOTBjfR+jbCqp9/x2HW88PacI5t2UugrAym5hZ4jvmRKe0fMXGtHhKp6KlzdicBMG4/kP2aDfzwTxjHrt0iWFkKE8UHfFjHii9sG2Kps70D/Trt2LLagMl/7mJL5A38gm5RoWY12o/wZmavyuz32gSk8ijzia++w6HASHZrPbRUnAk6x5lMf7Fz7C6CbEF4D+lJkiSGTgsZXrwyvuWSQ/xdqK+MF4Q34RJzOnry19UP+XyDL1NtdXtM3175JS6/n+aJmw6ftBQTx34dTbOtd6jQeyx3vXO+mkp4yyX7Mai5N8GpDRgXtIwB+Xn5kyAIBVK8ZhcRhJe6xlrPHkyK1D7hVl6euE0hbP7HBZoVRXgLqJOIjY7jOpVpbFc1a6CbeJHzCWkgq0LdmiKIeNeEzhhL03UFnwsozaiJDrucCIIgaCeCbOEtU4POs9fTRF3wBzAyRRURYL+Dnp5cRJ+vN5Eoa4j31r8YbPGsN3ISxxcsJ0gjgdPHtCmq8RVCobH5egwXu2l4RMGuB2XkZYtBNyBBEN51IsgW3joKs5qI3o3CMyWbf8nYVocZHXiGGV07stPJgVqKVJTRoZyMS0ZSNGTMz10KNajSC1/HiNGHXrSiyxsxYKondoWYpwClFUbUFBeD/LmwjR+WHn8xcFt9kyiN9HbPVSoIxZwIsgVBeMtVofPCdZiuWsyi7Uc4G3KAixooZVwDhw796DukNx0KeT76ksoo/PdmGjgtf0rHqZ6FmqcgFEj8SXbv3Z9j4LaIsQWh8IiBj4IgCIIgCIKgY2IkkCAIgiAIgiDomAiyBUEQBEEQBEHHRJAtCIIgCIIgCDomgmxBEARBEARB0DERZAuCIAiCIAiCjokgWxAEQRAEQRB0TATZgiAIgiAIgqBjIsgWBEEQBEEQBB0TQbYgCIIgCIIg6JgIsgVBEARBEARBx0SQLQiCIAiCIAg6JoJsQRAEQRAEQdAxEWQLgiAIgiAIgo6JIFsQBEEQBEEQdEwE2YIgCIIgCIKgYyLIFgRBEARBEAQdK1XUBXjzopju5sWym0+z/LVUx3lcmNki31tJjT/OhoVr2BwSweWEZDSATFYehbEpLpNWMtOlrI7LDWm+I6k/JoBUuTszz86is85zEACIXU2Xj2cSJXdnwdlZtC3q8ggFoCJm2xL+9DnM2bh4lCoNoI9CocDIfjALFvegTpGW7z57eoUS+J+U5a/6LesyeUIV9IuoVDp1J56F3WO4igEe2xvRrLzeG8n2yf4wxs1IyvbXcrRe40SHyq/annSf7b1COfpfKRrMc6FX3WLYLpV8hsk9B7Im7gNaLtjA360rFWJmRXB+qa8RuHARy/xPcT5eiUoDkkyGwsCIql2msWtkgyyrnxjlhtc+ZZa/pZn1YP3BcTjpumxCnu5tHUGzCYHouf6M/+LPKMwjs7h6D4NsQ+xdW+KuTANAFRfKybjkgm0i0Y+RPcewX5kG6FPeuApVFfL0ZeoUVCo1oPsgWxCEvKi5NOsbui6LRANIMkPMzA0onbH0cbKKx0VZPABkVHE0pPbd9CA77fo9Ll9PK+IyvRtKVvqAes4SGkBPoyHhdAqqoi5UoVNxfNpk1sQ9xdBzEjMLNcAuivPrJpsH9WPc6bsA6CuqYGomz8hTgyo5Z46GjZvgrnkAgJ7yIsER8cXgvH8/Veg6hIFLD/HX4b/541QHZjm+f3HRexhkV6H9pNm0z/j07xIv3OZGFGgL11ctYb8yjTTjFvy84nf6WZTRfTG1KOH0Hf+s6AUYYfVGcnyzbq/8Etc/0vj5+D/0MXgzrV9vnoqdg9oz/E5/9m8ZVMStqsXRa9RP8kn+3HgODfpY9J3NqrHNi2HLSRkajLTnWdvb3fUhTF327oeCb4KevTn97J99SmRNh0jCU4uyRIXv4aG5jN9xladmnZg6sjkfvDTFW3Z+nVzN7NN3gSp0nLmE3ztWfx7U56a25xQWeWZ8CPsD515ri3mQ/YrfSWIoG5euZZN/GFHKJDTIMDauTR2XdvQb1J3WZrnVlJqr/utZvGovQdGxKFUa9BVVsLCqj7PnAIZ0rJuP4yi/ajF4VCfWDN/J7tmbGL6+HzV0tu23QzF89lXcqTgbfRWAmn2HvbEAGwCTmjR2cqSxk4UOT4LiQkVYSExRF+INOM/J6IdFXYhi7DXqJ/YM51USGLRg6EjXYhhgC4IuXWLxnO1cpzyOQ77DLV8NE2/X+fVveCSJAE6D+DEfAfbbqeDfyYPwVXT/+EvGr/bnrFKiqkU97C1M0SjPcWzjLAZ36sP4kHtaUqo4PnEAnYbNYfOpaB4pamJnW4fq8jvEnDrAcu+edBq2m2u62TEAyroPZFT9sqSFr2BKwF0dbvntIILsAktBldFNxNTCrKgL8w65zImIB0VdiMIXe4YzSaJ7QK5ep36S73AfSDWzorb8XX0SIrwvUjV5nwePfJeyJuYJaWYfM9ojnyHvW3Z+qZTpT3nKmJu+uzfNBf1O1GeYOWouZ1WlqN5xKntOBnBg61o2b93BmUObmNisEmgusf6XZYRnS/rQ7w9Gb4pCLauOx/zdnPDbxOYNG9l36DCHZ3yGpQxu+0/j5726DIZr0GNUJ6pxB7/Z/+Qo07uuGHQXUXF1zwr+9PHnRHR8xqMLQ8zMbXH2HMyoLrk/ukiNDWLl0rXsOnKBy0oVUj7TFZz2wZInhjalVrY19fQa8/PxxTrq7nCJOR09+etq1nz1XjbwMd4HzzZTOW3Wg/UHh/DBtr+Zt9qf47HxJFMeU4tGtBsyhtFu1bK1DDzbTzP6bNnOaPYyZfpSgsPj+I/yGJnVo1XfbxjnaZ+zbv3GYjN8Lyl2ozik7ZFQxvKH1iMJ2tL/xXK1P8Maj2af5tlAsDNMbmLP5Mz7iw0jD67hGzPd3hPePLySGQt9CIp+Vi/1aeU1HG+7vNOlH3cb2RUSyeWEZNQyGUZmtbFz6cWwIR2pr+27P/kbzgM2pbfKAPoXFvBx3QVZVslrcE5CyHoWL91DcHQMiUo1all6eZ09v2akp/3b/wP0ivXzaOsIbCcEZllPW1qAin2XEzK24euX9dZ1/uxziRvljPHaUQ+zwMtsX3Wby9c1PNEvSYW6Rjh6fURbe133P9RwY1ccAfuVXL2iQZWaRqly+lSwrEhDTwvaOJXLO+3+OPz33+HalceoHqRRsqKcD+sa4eRpjkvd3NoI07gfcp0DWxO4fOExdx6kUaqcHJO6FWnoaU4z+7K5D9bUT0+fdCQO31U3uXw9lUeUoIJlRep5WfJpbuXVPObqrjj8D9zh2r9qHqVCyYoyTOua0NjLnMaWsvxWWL49/fcWe5f+S2T4A+48kChdqSzmrarTscfLvsNXrJ8jUfw86RaP7SwZP6sGH6Tc49jCWI6evs9/dzMCLv2KfLa3IU205puEr89hkoGant1ePqDvLTq/tA1cfOTzNbV8sq9ZnpZLDvG3S8nXzvOZlAsHWLx0IwdPRXNdqXp+nW3m0ZtvPF2onsvNxZv8TXh6chs7bz4lzawzk6Z0zHrDY1CbPuO82PLxTKJiQzkWn4bd899NFX4+ASQChj0mM8OtWqatyqnc6Qcm+gfjtU9JiH8EdMj/RBAvU7LxN4xw2MPo01uZur0PPvm9KXwHFHGQrebM1C/wWnORx4oaODm2xNW4NCWUNwk7Fcy68UEcOD2T7VPa5Agi7vr9Si/vzVzW6FPRygF3F1PKJP/LyYx0uwMmsm5+Vx31ec08WDKFuFOnuaKSqGDbEgfj7CdPPWrIdZIpUB5rp5a4W2RcdDXXCDkS+/LBPDI5cgCNkrBpX7NobyouHj0Z46lHQshu1u0NZsWwSK4t2MqS1hUzJ0QuB0jhbsRKvpw2j2izhjR0qYm18iInIk6wZXIoYXFL2D62oW4e3ckr09itFU9UCYQfiSYRQ2q72FJdlrleq1NDptuWk7u+E/hszC4S0aeybUvcrQxITbjIwcmDOOvRmtwu208urKZPz1mc0UiUNW+EawdjSqtVxEWEErj6R4JPR7Bm3Vgcs1+MTWxo3lpJsvIcByMSSVPUwMnRggqZVkkzttUaLN/a8B2f/BJEMuWpbNuUNo5y9FQ3CQs5zpbJxwmOmMe+KS10dFP5kCVzYvgnWXr5qkCJGqbs7l8Zw9fN9hXrR1a1Ie6t0/+vl0dagA+sjF+3lBmZlki/cGqekLgrnM1/3kVu/QEWzmVRX0nmWvh/HAy/z41JjfjCRVfdydSc+/UUK4PVoK9PFfsKfFS2BI9vp3At/D8OhCdx8XtHhrTVErhqUjj+cxhbT6tBvyQmlgaYliM97dEEdhy9zZlvbfmmq2G2gFDDvwvDWbQtmSeUxNjOEIcP0/O8cuoWvqcSidCa7pkSqPdH8Oei9Pr5yLEEqiv3uHZByZEf75M8tTFeTtkulin32D82HL/oJ0jl5HzkZIJhWYmUK/e5fPQGm4/eJnxCI75qmdcNRQH9e4Nlwy5y6YFEyUoKbJzLUPaBhmu7opl/pVIe419eo34sDajEba5evs+NO3cIHBXG0RsSpSuVo7pdSdCk8fhOKXK9nUg8wc6Ih0AtPmn90cv38S06vzIPXEyJPsaJBDUlTRvSyir7FU6fpka6+1245TuBnuN3cUOjTwXbZri7GFEm+V/CTp1g8/Tj7Nk7lKUrBua4tr/p34S0j7rz+8xm3FXY4Kot6DczxVimh6TR5FhUu8cP/OqaTAUX+5zpkGNqZQr7lDxWpw9i1V33HCM6jvVkUbd/OL1wEYc7TNRe9neRVJRubJO87Owki+ajpN3307Iuux8pTfNoKFlat5PGXniSddl/u6WBTnaSpXVLydPnkvQoy7Lj0riODSRL60ZS+1VXX1qEa4v7SJbWtpLV6KB8FvqqtMyjkWRp7SwNPPzk5avr0o0NUndrW6mW/ShpR17r/bdN8rK2lSytbSVzt9GS73+Z6/axdG5KN8nS2laq3mOFlLWGnu2brVTXrqXksepclrq9uWWM1NTaVrK06yn9deNp1jwP/iDV1brNrMtrdl2uffl9X2mQta1Uq25/aXX2Y0HXHodKk1zsJUvrRlKHv7PuY+r5VZKXk51kmVHP+7MkVEo7BjpLlta2UpMfg6R7WbZ5TprWIf24+9TnWu55B/8kNbS2lWp0XSJF56uswdJoRzvJ0tpZ6r4t63Y1VzZI3e3sJEvrj6VJ53V1LN6XRowMlvAKyt+/SbHSDR3lLElSwesns4MT8j7GdCXphrTAzV/ydvOXfuh2XNp0NvMRpJaipx+VvN38pNG9oqTLL9nUnXUnJW83P2ncrwmSJq8Voy5K09z8Je/2x6W911KzLEreFy795OYnje4WKV3IkfCpFL/gmOTt5if90D9SOpv0JMuy+wGR0mQ3P8nb7ajkcynrdlMPZyzrfFLaFqXOskwddVma295f8nY7LG2Mypouc/2M7Zy9fh5LkT8FS95uftKoobFSYtYcpcvTj0jebn7S919FSTGqzNeBp9LtzaHST25+knfnU9LRpJddI/6TVrf3l7zdjkt7bj7NYz318/L8OPZq1vKo7kjb+gVI3m5+krdbsLQ2Kut2Xrl+JEmSJKW0vrO/5O12VFr+01HJu/NJafPJlLyPgUyeHpwgNbS2lSzcp0on85lGkqS34/zKJOrnzpKlta3kOC301TZw9nepaX7q6caza2lLqd+2nDHFj272kqW1rdR8WmjWZUXxm/ASd3Z///zYCCtQyhf74jI7UgclyS5Z2vdtq3zHZu+Kou2TfeMclzUSGnNnXLI/TjGox+gF69h7cA0TrbK2K15atZIglUSa61D+7G6Z9W7LpAm//tAJE1K5uGodIYW+E8WZPo5Dx9DRJHPdyrHxaIUlII+OyLV/1IOPejHdyyZL3VbuOpIhdfRBE8XOgOuFV+xC9vTkHvYnpSGZtGWkV90s+1jK2osfPq2ZS0oZDkNnsGjm78z61jVry7Hchl4eNkAq4YejdTia3RKvWbOZO+V3fu1QLcsSfYuO9LbVB/7lbGSi9uQFZsCc2c2RVrXI37+J5ry/IxMkyjaz5FP7zEeQjDqDzKmlr4fe7TucOa+j/veVK9FlkhXdx1vRvHrWB5CKVlWora+H3t1kzv+bLb+URAJ2PwLk1B9jhb1h5mtpCQxa1aazsxzDSnooL2QeE6Hm9AYlKsC4pxUedbO2qcrqmvP5x2UANWe3JqJ9Eg+JCj2tHj7cbQAAIABJREFU6JalfuTU61EJBVDi8n3+zVbW4CA1oI/dN7WonWV+7RJ8+FkdXKrqwYP7HArS0YwsKXcJOfUEkGP3ZTWytMWWr4jHwA/R/izidetHhqIiwCOijqVhO96Oz5zK5Xue9CvhMSQDaVb1sc1nGiF3USvXc0YjgdNX/O6RM6aYMLItBkDC9s0cVmd+ylcUvwnaqFHFRxLwtze9xu8jWVaLHlO+4SU9H7N4eOgv5h5NAVlDvuxetxDKqKDd6AHYyFK5uHQevvl8Wvq2K9og26QGlQB52AombjvP/WyL9c3qYGlmnO2RRRLhIXEA1HdrpvXxesnGbWgk06NEfCih8e/vIDM9atPS0STnAhNTTACJFJJzOdCruTTV0tWmCvaOVQG4Gh5TzKdFyl18dAyJgGTljJOWR1Y2Lg4YaE2pwNTOGfeO7XE2KwHqZFSJSm7Ex3MjPp7HGT+Rao0Kta4KKzfFzrU1nbq4UFuuh1qdTGJifEaeyWjk6T/u99U6y1HIN31qtvwgZ2BkWAHranqAmoQbOvpeDA2o42KKo0sFypLGkxQNqjuPuHvrEXfvPKVkOYAnPE7Jmkw6f4eLqRJSxQo0qqutd6AM+19cGLe2Kd9+kilE0Nzj/JU0oAy1nMtrSVcC02aGKADNhbtZg+XnymDnrOVMqlweI/SAJzxKeXH9kc7f4WpGWevZaws3y1HPMT3kvXPqPjqZo+ffZP77P3v3HRXF1T5w/LsYdi2AkZIIWBGjWMCgYMOuMahJ1OQVNaLmF0sSNYktseRVUxRT1BijeWNL7L3FFrsoCmIFMSIq2ACVBZXFsosyvz/AyMKigAsoPp9zPEd2dvbenZ0788yd595JBcrYUNPVxOmwni1VLE3c1n7q7fMSNhkpcCoPZ97OmjbzBImx6Q/dedXeqZjOuFGY4jkRdgUAlw6tTMYUpZq1wFOtguSTHIzOHFMUwTkhS92X+DWgei1vPNv1YsDMo2g6DOGXtYuY6J01oSdn908v4qORa7iMFbXHjKWvmcc//culG1/6OmGRsJPJ804VTBnPmKLNyXbpzBf/2UC/VWfZPLYHGyc74uHRAO82TXnDpwmezqayTK9ySps+EFC7eQqfHzKV15PCORQgnlNxCi9qV5uiscbaOue8J5UhpytJSxxrVjW5xN7ZDoghRavjFubM2So82tj0QTVlnOxM5zHb2/IK5JD7nsiBhTP4bcUujsekP+mzwCVEsHLmbyzZfZh/tKYP1Rb6QqmJMKLGubyp7H1LbGyBaNAl6SGHvtC8MpyLY/vCKxw7nIIuNXe9QPeu3eUuoJQvRZ4yZq/eRZcKcJ+YeSdZYupMcfsO9wFV0j20BoVq2cZNqLG2fUzeZZbu3XvX9Bl1LYNTDquUq6QB7vAg6S63MMMjv5LucQsFxVadLccYAKuSlC0DZJ0NzSzbJ51t0xyOQznScUuX3sVRxtk6T2sKU67yT9wDwIrXnEx0SgHYOFLBWgWJ8cTGK+CWeWERnBP+pcbKuTouKTdJ1mrR6pI4uWs1f6qtqTCsm+kBl1kk7ZvGRyMXcFxXhpr9f2VBN9cCrK+GxoMH0njrBA4un8HSXr/R06F4T3JXxAMfrWn89RI2N1/G/1ZsYF9oNCeDNnIyaCPzsKSce3uGjB6Jv0fmw58BQ0ZweO3wdjY/9vP13NK9GLckcpLfIPhljemeFU3G6xZ6w3Pbk603pJ/dS+bwHSlpncN2S2TboJ4M3nMVRe1I0259eMu7KmUzesNv75/FyJVnzVvZ5BDG9viYlXFpvGTvydtDfWnsbPdvmUfmjGR++H3zlily6SVKmHxkuAUlMgKqBynmuZOW9s95fht+kSupCppqdrR4ww7nVy0zBsbd4cCPFzhrYgbMh+Uraou8PbLd8CAjBk7l6gEtVx/33tSMHvSso1/z+Iz43NTVUp1+QlYZ0nJIUcmj1Afcf2yZFqZPkubYPgCosLXN+0WYPqP0NI35Z1p58RjQ6xVAjTrHGwpWaDLatF6v51HoVATnBCN2vDN1Ge9k/JUSvZcVk39i8spJvHcy2vSAy3/piFowlr7fB3Jd7UizCVP4rVvtgu84c/bly25L6Lw4hF9mHaLr+MbPZWddbj0DU/hpqNKmL5Pb9AV9IqfDjnB412527NpDSPgmvulzhhvLVvCp28MeIzXWahVgSatfQ5jd+hn4CsXQXQyY2j30GWkJaZocen5y8Cwl7WjU6afTezmlWNxLypa6BMCJeXy/5ypQiW4LVjDJw7gf7WbCasC8B9RLy2eyMi6NB07tmL7sxyz59Xos15ZivlkfHn2HhTPP8Met3F2c6p3MNLvIcykNlcluqzQeZHQElLQyRy+NgWNzL3MlVUHt5crnAZWz9ErfIPLnCyb3vBIZ5atS8hiUqktkBJ1l6bi+Pi1NXkyYV27q+nDu6DxfNOTEsgQvZXyu6TLvc9fUAjNuHyXPpzA1GiwBvdzBMgs11hoVpBgw5JjTkYI+o01rMnfOFME54XGsXFry4eyqqLq8S8DpNYxb2ZOt/qaesRjP3tFDGLThLHftPRn20zQG5yG95OloqD14IO03jGDbuhks8G/IQJfi25v9bH0zjR1u3u3pPfp7Fu3cwJRW5cFwlrkrMw9fLI+rcwkglcuxsUVV02IuFW2s6YF02oxcQCt7+zzd4kzWFvZttJzZO6eHKLfj4kwG02kxcVwz8fq1sDNcBgwe7zHQI/uN6tjoOLPWE3ScPhwNgH3bnlkCbICrRMeZ+37CfY6f17E3Mnf/gi+mpyO8mAxcSzJ1MZJKclL6/6xszdFHo+Pc+TSgBC5dnLKnfaTcIzGH5ziVfLUUpQBV0m1y3jvTsgeZ5ctgZwlwj+tXC+du4MO6WlzNua43LqXvbRZ5TX/JiZU6Y/sYsmWEAJB0x/S2LYLt84iGstbp+9XtWHNeYL+oyuPqVAJI4VzMFdNvSY7nik4BHHF2fHQcLvxzAsTvX8Ofc6Yzb//1HN5RmXruDkAq5zOeTm1Ef5G/BvWl/4azPKjaiZnL5hVigJ3Bpi1ffFgXteEUv8/aabpTq5go0iA7JfokO7fs5ojJwXeOdOpQDzVwU5f5QGKHV5v0hKjoLXtzePxnPIe3BBGR8OwlNNwOW8uPAT/wXcA01kc/S/27xqKCjpjY8eM5cTj9IFTJO8uwSGsrygIvaU0FqHl7ZHqqvmBPWs41q2ADqCKPEpqtLB37dh0xeUGgz+g1StOos9/eSg5h6VZzPow2o8yM0Mfa3kTu5T+bWXXGLDfNM3lRZxeJZ/ecH/ku4AcmrziUy4O+nujwlOwvp9zk9GUF0ODkYo7b+Wmk75AW/6ZLGBW3LZaYHHK0VbXSB+6pbtzkxAlT+4qBI8P2MabDHgJmJT16WV2Wuh4WgJ7I7TdN9/Im3eREUBKJZrp6flhXbudUVx3HD+sBFRW9ypmnJ9vVhvKWKridTOS57MfjuwcSuIKJbVsE2yczO2c7AK5p456TtL38tK/C4oi3twsA53YdNNnBcnd/IMcMCopDfVq5PRqHURTnhKT9i5g4bT4/zNqaQ/yTSHRM+hZ+1d4u27Jto4cwfM9VSnn0ZvGy7/DN0yBHPcGjfaley4PqtRrw9npTWyt3KvUZTGc7C3RbZvDz6QdPXuE5VYRBtp6oBV/x8YihjJgWYjKg27TlBAYs8fQ2fhxA5Q69aW+tIi1sNh/PPZ5l3UQOThpB3xGD6DJyXQ47YdFJObGZ2YuWsGDRErZceHaDbIv9c/jvbuMGdGPnLGaeSQW1Jz2avmK8gksdXDNmdDmY5eLh9qF5/Lzb+Ale2djYYWOlQlGiCDyQvRc9Odl8Y7NLNGxHS3sLVAnb+WXWCaP958bOn5l8INnkQyAquKQH55rIYPZnvjDUx/HX6B846VAJNaDWJuWco2ljS1nA8vwe9kZn7QPWc8voa1pTrWr6ELBLQUeM9+WEQMZ8tR3LqumzNzx8/PBzL0/bx5wusWvOUhYsWsL/VoY/Psc2E+2ycwRfzXyCuM+lORc4m6qgVLSnvqkZK/LMCueKKiCVy0eMj3apJ84zd20qtuXSZ+u4l5TlZGXlQNs3SgGp/DP9DCeMlqeRuC2KLeEPwLIM3p0y92apce/uiB0qdBsjWR2a5bdIucm2cWEsmXCc/y1Mwiwy1fXUb2eJSskc3N4ndlkUh64oKOXsaW6uh9FY2dHQLT1YDv/tIvGZAuIHl+JYtvAWmJpdpCi2TybVPGpgA1hEniQ8Lys+Z+2rsFTv3pPGahWEzubL9eeML1wSAvlu2naSscS1Xy+aZ1pU+OcEqN39XWqrIS1sNkMm7+OSUUdRIkdnjyXgyG2gEs3aGI3Q5Ory/zLm74ukObQl4PdhNMjzk6kvERKWHhcoDm8wxPeVJ7z/MTQNGTKoMWousfDn9SYvboqDIkxo1uA5eBhvH/icv1Z8RPPQ+jSu6YSDtQaDLp6Yw0c4rtVT2mMw37xjPD8wDm35/pe+XBn4B6em9qX5uvR1S+qvEpnxNMYHTi2YONHP6PHed/b9yvCV54w+ShdzAQB96O98PHhdpiV1eG/Sh7Qxy+PR8yE5hHljlnMk82uGi5wDFP0x/hj8OVszLargN56xzcphHlY06exOxOCutPVqgGdVG1LjItgXFE0yllQfPILuWa9+HZrxftNXCd5zll/69iK2sy+ezipiwwLZvOsmLYZ1JnnyeqJJzaHnpRbvtnFkw4Y4DozpSMM5NahonYpBp0MbG0d8s4mcntHJTE+ZbM7Iz1uw96s9RM7pS/Od9WlS1QZD3ElCItPwHtWLVybPJwSM6mrRrDv/qbKZeRcC+a7HZ5zqXA8n7Rn27drDiQqDWD5RxVfvTiHi9FImBljwhs8b9GqWZd+t1463qixk1oVT/Ni1LWtcqmBDKrpkLVfiEqk+YRvru5X/9+21u/fAc2UAx0Kn0HNAFP4+FUmMPML+XeGkdZ/BwspzafNVEEnrfmKMnS/N27zPm89zflset0/RssargYG/PjjAYe9yvFoaUs4nERl9Hyw1eH5WlUqZ3p0aeo6lm3RGd0nSLqfnIhjCLvLnuEenYZWqNI1GvkYdKxVQigbvlmPHj4ncXB7B9KRXca+oQhuWyMmwB1T/2gPvbceZG5jKmUWn2HTNAY+3nKmoBrCg0qA6vHX5OBvDr7Hk/SR217LGrgzoLidz8fJ9wJLXPq/Nm5WM9xtVvWr4f5jC7/NucmxMMNFu5ajyigX3b9zh4um76FIVNB5V6N3bXBn5FlQaVIu3zoexMTKe2e/fpFoDa2zVCjcjb3Du8n0oU4ZGY2tQzygH+jah358l7PajYENlMBCXqgD3CP8xjCuZYvLSTV14v/3DZDc1dT+pTIUhMVwJi2b6+/FUrlUKS909Lp2+i2WrKjT85wIHTGQRFP72ybSlPBpRW72R4Ixpar1z2xv5XLWvPIrdwaSAzWR+goNKG8UtQJUQyLTB1zKNI7LEs/9k+ntk9Eo7d+aHiUfoMXYjB8Z0p93ypjSuaY+FNopDQeFcMcCrbf7L7/7GM28UxTkBl25MH3WEHt/s5fTCIbRebouLixPW6tskxVzISGuxovqwbxjnnmn2I/0hfpp6kGTA0vISS4f0Y2kOm1Jj3ZzPfu2TfZ7t2GOEXEi/UK/s/wHtnvKpjeW7DMJ/YQjz9s/hh8O+TPF66vmCnjlFO2rQoQVT1i6i2czFrA4KI3TXUXQGUKttcarZmHcH9WSoX0OT81aWafg5qzY3ZPnMxawODWf/1qPo1VbYunjyps97DOjnm236GkPcP+zcfcBkVUpoT7Fz96N5G1WqW3jr/w8ooiBbf5XA3XsINrkwiYjde4jI9Iprw6FgtiAbLDtMYLXvKr6buY6d62NIRo1tzcZ09f+UMV1qmQh27Wg/dTYzpv7Ib1tPsGXuT6xT21LFuyUf/fkjfpqNdHlsidY0nvA/ZthM57ddhzkXE8EJtRX29nY4eb9BW183s45ALt/1e9aUncOPM7cQHH2UHbFWONZsQM8ZIxjuE8XIqSqUh6POHx5INLUZtWAW9l//zJLDwSyedpAyTjXw6jCRzYPaUkmTwlcfHmDEohCOrljM1ZKe2Q+o1GbonJkoAbPYeDiSmMgILK2tsbZ3xMu3Jb51s2S6u/gxf4HCfwMWsjd0LT+FWmHrUhffUbMZ3aUWJfWfMXrrRaYdOMX6uUkY3N7lTZfn+UCVx+1TpCyoMMiDprXOsXmtlhOX73PfsgQve7xCU//qtKxnPFXB/WvJRBy8YfKTVDduE3Uwc/JvKtU/e/RXqfZ1GMQ51i+/xoXtV7hiaYl9rXK0mlKdVrVKQnlXPM+f5dj5JA6thVdbOVHx4fR5amuaT21EpY3n2bUtiYv/3CA+FUqVK4lLy/J4dq9KQ1dT925ewrnH63zpFsv25XFEnr7JidNpYGmJg6sddTtVoHX7vE4/9wTqsjSf6o3jxhj2bdNy8WAC0anp+dqvvVGRpr0rUyvbtIkGLh9OIuqmqZSZB2jDksh8H62krTO0f/S3hWtVPp6hYfPci5wMu0v0gXuUfNUK1351eeddayIHXwTSuG94gPHN3yLYPg85NOJt99IEHznLyt2X+djk4DZTnqf2lUe3zrJ/9x7OmVikMsRzZHd8plcsSemq0D/TK+U7fsdGl+b8PnclOw4fZXO4DsXaFiePN/jA7wMGdaiV/bcsinMCGip3n852j+38b9F69oee5FxkBAYssbKvRAOfpnTu/QF+Hll6mfWJXM+4O/QgLorQx6WL27xKdxMv3z1xjAhAsW7Eh+9Ue8wH5JKmNgMHtWPVyL/ZNHUVA5b1MfF8juebSlGUF3uOO5HJReZ3eZeAMxpazt7HHB9TcwAL8YJLimVmtzNcwIbO6+vTtBBm3hAiqzs7v6TZp39z07k7y3aMxruoKySKveOjfem2IQ47v/+xt5hPvWcuMv+deM5cZIlfdyaczPvz3u63mciJGZ0KpmdJCCEKUem2/ehVYyezzmxiyvr/Y0VnU/d8hTCXs+wNuwbq2vTp11AC7FySIFs8Zyrz9tRlNMrHDCRqa0cJsIUQxUR1Bg7tzMaPVnN45nR2tZ5YdGOIRPGXcIqQCw9Qt+lJz4J67HoxJEG2eO5YO1dBHiYshHjRlW7+ORPfOUjvDZsZO+0tGoxvLB0JokDcDQ3mFI68099X9rE8kMsRIYQQ4rlkTePRE+lVtQSJK8YwYndxnQhNFLVSHb8n4p+/meQuY7XyQgY+CiGEEEIIYWbSky2EEEIIIYSZSZAthBBCCCGEmUmQLYQQQgghhJlJkC2EEEIIIYSZSZAthBBCCCGEmUmQLYQQQgghhJlJkC2EEEIIIYSZSZAthBBCCCGEmUmQLYQQQgghhJlJkC2EEEIIIYSZSZAthBBCCCGEmUmQLYQQQgghhJlJkC2EEEIIIYSZSZAthBBCCCGEmUmQLYQQQgghhJlJkC2EEEIIIYSZSZD9DDs23pfqtTzwnnysqKvyjDvEWO/XqV7LI9u/NnPPFnXlRC7dXft5tt/vtVo9+S02LQ+fouPMuil80r0zjRt6ZXxOAzwbtqLdwOWcKbDav3j2DmsmbSy/YlfgZ+J41X19Up4+JjFsLeMG+9OyuTe1M/b1Wg1b0bLjCNYm5KXd5F7w6LZUr+VBxb5ruFYgJQjIS/s6y7QOngXfFneOytjHshyja3/AH0/c1xLZNqg91Wt50GJyCPcKrpbPnJeKugJCmI8VlXyaUNda9e8rDjXKFmF9RF6oK3jStvXDvxIJ2x2ONk+foOfslI/pOu8kBkBR2+Jc1YaSGUvvJeteqIO7eIapy9OwdStsAdATfziYUzolTx9x+9D3/OeDpVwGwBI7p8qU1aQf+1R6HckG81ZZvOCcG9LJNw39w7/18YTm+hhtR/uAsbzd6TP+WjiBkT7LmOFTrsCq+iyRIFsUI7Y0HzqZ8W4lHvuu+8H/YPlbAgClutXjTqesgbieORNCGRBdgnfHeLG6pmUB1VdkVsK7N7959wZAYT8jPYbwV2oePiD5ENNXRmDAEpfeU1k4qjmvFkxVhXg6Di0Y9muLjD8S+av3mww/kpeoOJGtMzdwGSjpPZg/fulHAxvVE9cyh7r9p7G4yz0U6yrFsH3p+Kv/m3ya1Jdta/pTo6irkyuV8AuYTRO9gpVzxYIrxq0L30/p8ujv5J30bz6CwNweo22a8+24TgR/+hdbvp5O9zXjaVpI+2xRknQR8UK7u+0y2wx560ESz6joY/yjU8CmBYOHNiuGAYAQGfSnCIm8AzjSdtj/FVqADWDlUpeG3l40cnMotDILzz8cirxT1JXIIw1OHg1o6O1FbeeST357ESrd9hOGNSiDRew6/rvyn6KuTqGQIFu8uCxVcCuJ4UHP20FVmJScxC0g1bkmr2mKfw+JeIHpU0hOUVCpHHF3lH3dbKKPcSyxYHLZBYAjXQa9Q0Xg8tz5bE4u/h1cki5SWBKOsnLmfFYFneaUNpFUgyVlnKpSz/steg/qRuvHXIGWQg3JEayc+gvzd5/gvDYNK/uquLfuwYhhXaibQy9GXOgyfp+7hcDIMyRo9ejVVji51KWJ30cM9atnoqfvFJPb+DMv3plea9YznK1MnDyXwLAYrmOFnXMdWvX+mNF+9cgp0zk1ei8L5i5hY9Bpzml1KNa2OFd1p4nfQIZ1qZXjekVBU/Nlqp+8ScS2WEJbv4Z3blc03CNw90V+DLrJrng991KBshrqV7NlSJfK9KmszrZKyr6TWM9NgkY1UfpZs2HdBX48dIMD2vtgaUmFmuX4rls1k+sCcFvHinWXmH4ymWBtKlCCkvaleKt+ecZ3dKR2mQI40eZ7n03k5Io/+W3dLo7HJJCgByv7Krna1/Pq7trPcf9qj9Frlqd/pVOtX7O9t1zvPwgd5fn0hcauwK/dJI44d2fZjkGUXTeHXxbtIjg6lmSscHKpT/tBIxnepiLm+qZ3135Og6/2kNrlF6LGVWHPzN+YteUA/8Qlo1jb4uLREv+hX+DnVsr0B+gTObL+d+avCyIkMgGdQcHK3omaXi3x6/d/dHZ72fR6yVFsmDqd+bvDOKfVkWZfmXpeb9N/VK8n99AkR7F+7nxW7zrMP7FakrHCzrkG3m3e49N+vlTPqfdVH8eBhbOZvzWU49Gx6AyWvGRvj5t7E7r2/ohe3q/kdrPlXr7L1BO/fw3TF23gUFg013UKirU9NT0a07Xfx+ata8Z+ZzQMXjnGpBavMynLW++7DWXvmr5ULqhygXve4zjy57s53jEKHt2W3htuUn/SdpY3jWLRtHksCQrjvFbPS/aV8fDpyYhRftl74TPKO+rQkfmB46m0ZSbfzt1MSKQWvdqWqh5N8Bv0Gf1MbNtj433xWxVHud5LCB1V5zHLsxwLDn1Hkw9WkZDxp6ljSJpzd5btGJ3780Ru5LN9pW0eSt2Ru8maYFRp2Gp29atucp1TkzrTefED/JdNx3v513yz9R9u2FTn3Ykz+c47gcXDRzE16Dx3bV7jjVFTmN6hktm+ZmYlGnanV41VBJwJ5Pfd1+nYuXjfc5QguzDEbqZ/j6/Yqy1BuZoNaOftgA16EqMjCFw/haBdf/PFn/MYkMMJstS9Y3zdYybLdZWo596CtoZLhIVGcnDl17x3Rsdfy/pkyx27uvwz3vpmL8lYUd69Me28NKh08ZwIDWbN18EEhv/C3xNbZAl61Wg0ACncCF/AhwG/EOnsiadPFdy0UYSEh7Dm66OciJnN+lGe2QKIGzu/peeI1ZwzWFKuZgPa+jhRKvkShw4HsnTsXjbtHs/SGV0z1fUOs6edYX4ur2YtKjuxqW/5jMFCT0//sj3jXk+h2/HrfHOsMps8NU9e6fYtfvjxFF9Gp0LpkjSra0f1MnDtYjKbj8XR91gCCz7xYHejMkarlbTMyBO/ncwPk87z5V0rBrSuQI+X0gg/dJXZJ6/T9/w9bn/rwScOWQ6vcVfpHhDFilsK2Jehc30b7Ejj9LmbrNp0llVHk1g2ujbdXzZjoJ3ffVYfxZL+A5hw5AZp1o54e7WnrY2BuMijhKyfwoEtf9Ft9lwmeucQ1OVR5sGSKm0EO8ITSLOujLeXC1lLKFvT3ixlotagATBoORHwEb9tTcWncw9G+qmIC93E0q2B/DnkJBd/Xcvs1uYZ3KNJb5ikJhxlXv/xzEh0p6vfELpqUgjftZTVQWsZGxZH2trf6OGcZf9JjmB+/0EEnLxJmnVlvNq0p7om4zfZuoAjW7ezdcpsfvfNclLVRzG/Tx8CztwhzboyzXxbUlFzmwuhCxjUI5JuLo8Z+xC9mcEDvmJbXBolnOrQokMTXiGFyNAD/D33KDt2HWDqn9/RwSHLPquPYknvAUw4eYMSTnVo2cYTB42KFG0Uh4LW8PXuPWyctIAVnc0YAOS7TB3HJn1E/8URJGNFJZ+WdHQqSWpcBPuC1vJ10HbWjJ7NMv/a5rnYyjxY0hBPWFAkCdjymo87ldTG2/GBs7PZLvCwrpxpkCYY4k6yL/LJw900aksgldun1zJ46myO1+xIr0FvUC45ip0rNhC4PoCeMTo2LsuS+5zRvlTJOs6vGMnQr49S2r0uzVu/hjYyghOHN/F936OEzTbj4DmH2jRvrSX5MceQNHt386agPUX7SqvQkOatH503E8P3clz7+POoWqMGEoicOZp9NGRgbzsWzN3F0m9+pJz7SbbQis96O7Fg7n62jP2RZj6/8F6BpCFVpq2vKwFnTnNqaxDXOud8oVYsKKKA3VOOjXpTcXWrr7RfeFa5m2Vp/JqRiqebu+IyYLVyM8uyo+PeVFzd3JVaHk2UpoPXKGfupf27LPXUTOUdD3fF1a2lMiz0fpYiA5XhXh6Kq1sTpdu6i0aLDOeXK908PBRXt07KhH+yrKdcUOZ1rp9RZkul88IIo/rGrxmpNHZzV1w9eiizrjwfaPDsAAAgAElEQVQwXvX6JqWft4fi6tZS8VuR5XteD1ZGd3hdcXWrr7y58EKmBbeUz4cGKvjvzd2/CdHKFZPbOEQZ41Uvh++UXerBU+mfNzNeMZyNUqr5BypMiFbOPdqAyuzx+xT8DyjvnjZkXlPZ/3tI+rpjTyvbUtIyLXughG09oVj5ByoMPKb8eiPzMkVRjpx69D1+uKic02defkeZPn6/gv9exWJxUpba3lZ+GbP/3/qeM1p2R1k5NTjjMy/lsG3yI7/77D0lYuI7iqubu/Ja10nKrutpRsvO/PmR4unmrlRrPlrZeSvL9skiTdmnDHf3UKq7mdjXcrLjK6WWm7tSpesfyoUnvzv/rq9T/N3cFVc3d6Vqm+HK5izfM2Lie4qrm7tSqfuf5qvHji+VWhll1h+wzOhYoCgXlMXdGimubu6Kz9STWVa8pxwc9fa/v0nQrRx+E+8BypLrxts5ftnHSi2T31Gr7Bn1luKaUZ/Wc6KylHlBmdc5vT5Nhm/Lsg3ilA2fvKG4urkrtQesVq5mWfPOpi+UWhnLsm47w/nlir+Hh1Kt+Whl+73H7z95kd8yb+/4Smns5q5U8+6hTD9xw2hZyolfM47PnZTRYU86JmmVDf4NFFc3d8VvXWLuKn1rs+Lv5q5Ur9VfWfSEtmRud9Z8pri6uSsV+mT//TJ7eP5ydWui+M6JyHJOeHS+GLz/tvGK/7av+krNZj2Ubw5l3rbaf/dnl7aTlBM5lOkVkLUdZF1+1HSlA/+reLq5K5W7zlYiH/PdzCH/7Su74KGtn/jeqJ/+k77dmg9TNt1KUxQlWdnQr4ni6uauVOk4STmUUfYq/waKq1sTZfD+J+y3t3Yo/Tw8lOq1+irzr+fyGP3Q8e/TY4mGw8zalp9FkpNd4FI4H6sF7HHzqJqtd6F81y9ZtWY9wT92yjGV4l7ZRoye2MUoz/SlWn78n3sZIIkTYdFZ1nDFf8pUfp74Pd/6Go82tnTpwPvulsAljp9MICe3q/VkcpYemPJdhzKohiUYTvHX7stG7z+7cAF7dQppzQYzvZur8fd0aMS3X3bEgVSiFi4l9N8FNkyb2hxlYYvc/RtfFecca5w/lq4V+NLFAs5fY8L5+49/8+1EfjqkByzp3asabxilaFjg/mZ1xpUH7iQz+JAuhw8pzbfvV6CaUc9TKXpm9HynXUwh80y5qadjmXQ5Dcrasa7fq1Qz+qxS/OeDqrxjqYKTV/kjzly5hPncZ5P389uGC0Al3h3/Ba2Neik1vNZnHMNqWKJK2M6c3TfMVNeiZInX4JFZemM11O7cCldAExlOmNnLrE6vL7tlyTmvTJsutQG4EHaGW5nfnryL+VsvAo50GvVZltH8Gl7rM4peVUqg0oWw6O/MbTqeXetCMQA1+gzJ8h3taDlsIC3Vpnu5Hhxaztwzd1AcOjJhYrssKQuOvD3hU1qqVej3L2NtljnQr0TGYABe9XLPlupg6dKZqWuXs2f1KNqZMec+f2UmsmXhLhKA6oMD+NTD+L5JGY9BTOxWFbjEuoVBL/TUkWnOnZjQL0tvvkNb3mtgBSTxT2RsDmumYt1hBCON7nrZ0XjYAFqqVVjEBrIi/EGB1btg5b99Pa009/a0sVEB1lRwsgHA2qtlRhqMHdWc7YEUErS3cv6Qp+VSh9pqFSRf5FRs8c7LliC7wFlhb28DxLNz6nx2x2Y93Nrh4laVV2xyTlVQez1sFMbrVXROD3F02iwBncYJj2at6djFh9c0KvT6ZBISYrkSG8uV2GQMmvS831t6PTmp6NPYxPRFjtTzqgCkn8wffZNEwkJjAKjbpqnJWz8lGrajvlqFRexRjubp4SIFrRTd37LHCgOL117jcY+CSD1/g12pQFkbepic1q80rdwz0ifCdaY/y96aN5yyN7uXy2b8/nfukzn8PBN+k6soUM2O9qYOui+X410XFXCXTedz/j3zJp/77OkQjukUFIf6vOlu6lanI818XYFUwoJOPveBh4rXaOllYoYFByccAIUUks08sCfNuT6tXLLvP69Y26EGLPQp3Mz0+oMTwRwzKCgOnrzjVdrEJ1bmDZ/0NIiooJOPAnT9WY7H3Acq/dvmjTh40rKG6WzD6KCjJAAGr5Y0MxUMOzSivbslcIHAwzeNF1V1QA3ELJ/BwrDrWVbUYO9Sk4oONibLza98lak/QWD4HaA67ZuanjatdpsmOACGsIOEm7XGz5cS3k1M5DFrcLC3Bkycv/5lS7M2HtnTXhzq0LjqS0A80dEFGAgWpKdoX0+rgovTv9vUJiMNzcH5USqd2jr9tXuGApxo3caRCtYqIJ7zccU7yJac7AKnoeXgwTQ+8DXBob8ysN3v2FZ1p5FXE3zaNKWFtxuvPCEV2Nre3mR+nZLDGDkAEiJYOfM3luw+zD9a08GXhT6nRmSJY82qJpfYO9sBMaRoddyCjHpd5ZQ2vUdBu3kKnx8ydQWewjkUIJ5TcQpm75J+Ctb1KzDE/joBJ2P5Kc6RSU6m33crQU8K6XnRpoeWQBVHNXAHbt0lFrLnj5fWYGdivZf+/S0z98ykcVWb8RvFX+PDWaYvAS4mKoDCofh7QA4D3/Ikf/vs3dh4EgDlXgRLh3/BWhOfbIhNz+W8ExvHNTDPwKwiomissbbOubdJVQBTQ963d8qWaw5gkRHMWmQpUxeXSDKQ6lQjx23t7OIExPBAG89VSL87kZzE9RQFlcqe1+xMfUdb7O1LAtknyY2NjQeg1Ok1jBq+02SZiXH3gTRiY+LI3Epe7vgJ/RYdZdaZQL7tEUiA/Ws09GpA8zataObjlfNgyaeQrzJj47hiUIBEAqd+yQVTFxP6S+gBC20cF/UK3i/ojDcvW5s64j2ZCkdcnUxts/I422vgTCoJ2kRMHGWffU/Rvp7WwyDa6DXN44KJgmCFjbUKEvUk6+4BZZ64xvNKguzC4NKFhZuqs3LufFbtCuJEzFG2xBxly8oZpFlXponfECYOakulHA/CeWwAySGM7fExK+PSeMnek7eH+tLY2e7fp4EdmTOS+eGPT414WWM68n84AMtCb8jUE2nAkHFyv3Z4O5sf+8l6buXxyWYFz4phHcsSsOAmAZsT+G9/04k79+5k9MBbWuQ4qKikZUYvY2oad029IY/Ptbl3O6PM+Fssi3/Cm++Y8Q5BPvZZvSH9Ys5Cd5ZdWx//eF+VIeW578kGzDe4rIDoM+5WpWnUOdZVo1ajBh7okx/9JgZ9xpPdLLE0eVzSoDH5uh69Pr19p8WEsDnm8fVLzvpYQk1thi5fi/eKP1m6fhd7I6M4sDWKA1uXEoAV1X0/4KtRH9Ik64DJp5GfMu89fHpoEhG7txPxmI9XGVJITVbAnHV+EaiscryI1WTc1TPozHX3rpDlu30VF2rKatLPlXcxIEG2eHoOdeg2eirdRoMu9iSHQo+wb9c2Nu8+TcjcEXSO+5GtP71hllG2l5bPZGVcGg+c2jF92Y9Z8r30WK4txXxyukWXLn3Hz757ZD5pP+pRU2OtVgGWtPo1hNmtc7tb3WHhzDP8cSt3Qbfeybyzi2Rm36wifdff4s+QOOb/x8bkZU3J0hkB9J20HAPEe6mPAnFz9CmXLGMBpEHrOih989cjlG953Gc1aisAUt0GP0dPSyveTF8UG9MbDBiANM2jR9D/O4MKqaTqFSDrCV9Hss7URZ2GshoNoMPO7w9CxudjykSNE017j6Fp7zGQfIHQw0fYt2s3O3cd5OzWGbx/5goL14w3nYqSX3kts2z6tlKpPBkXPJ9eL8CT6wpfTvueAX1Gp46pXtnnQr7bV3Fh4JY+DbD49xhVXElOdhGwdq5L2y4f8M2vy9m3bAC11ZCydRlbEszRqHScPpw+ENK+bc/sU2Rxlei4J/UhpqKNNT0oUhubCICVvX2mQW/lcXUuAaRyOTanQSym3Of4eR17I3P3L/jiXdO9w+agtmWsTxlITWbw5mRKmuhxtncoiRUq0N4mp37aC/EZ29a+NK5PXSkLqlTKCNUT7j02X7yg5WafLeWcnotsGRvDJf2zdrfixfSykxM2gGXcGc7k8J7Y6DgAVE6Oj1JKbGx5xVKFosQTlWjqt7zK+VjTrdGpZnq+VUJcHE+dMWtTBe827zFi0iz+3vQ/ujlZ8FL0JubuLsAHSOWmTPtKVFCrUBQtp8w24FhkpihaLpmcli6JWG36AHQH+5w6HkylQupJzjH/u5A9RfsqHlJI1imANWWf1wulXJIgu6DpE4ncv41V+y+bXFzG4w1aOJVAUXTcMlP712fkcVlnDCwx8s9mVp15cp5XVNAREyfIeE4cvgJAJe/M/ZR2eLVxAyB6y14umvzEeA5vCSIiIXOAX/Szi2Tm2r5C+kwd+6+yXWWiZ6qaLW0sgTvJLIs0tQ1TWHNSD6io7V7WLD3Zrm5lqYYKIq+z4aapg3EaZ8KvsTPucbdNzzKtgyfVa3lQvdZ7/Bz9hKAgv/tsvRY0sVJBcjB/HTZ9gkg5vZdtYVeePvgyu3h2z/mR7wJ+YPKKQ89g/fKpXiOaqFWoEo6x7bCpwPQs24MuAZZ4NGvwqCdbU53XXdIHlz1s80aiQ9h3wfTMDpW861MRUJ3YyGaTHQd6YvZvIzjboDUdcWEH2bQllGumPtihEe95lQdSuZnjoG09waN9M/b1Bry93uQnPX2Zmtq08yoDXOLg+tOmPzohgu37w57JC84zW2bwXcAPfDt1HeHPYP3SXSLkiIl9L/kUwTH3AUfcahin9lnbPG4w5TkCn5VHpj9F+yoWkuO5olMAO1xN5qQXHxJkF7Tk/Uwa8iWjR3zHnyZm1bgdtp3AuAcoDq9R39kcO5s11aqm9yRdCjpiHPAmBDLmq+1YVk0fKZ/zqG6w2D+H/+42Pu3c2DmLmWdSQe1Jj6bGT9uq3KE37a1VpIXN5uO5x7MEKYkcnDSCviMG0WXkuhyC8GfAyw6MaKiBOzdZfN5EcFDGjuE+pYBUFi4+z/bbmU9O9zm58RyT4xUoa8vEhqZmcsgHVye+rGEBqcn835zLRBgNbEvjUnAUHX86Q7tvIll2O4eTZewxQjIO2Oo2felhYnYKI/ndZzUNGehXB0hi84RxrM0yK0nK6bWMGjiUwT368Y3JgK8oXWLXnKUsWLSE/60M52pRV8dcbJrxwTuVgXg2TZ7OAaPZTnREzQ5g8YUHKA5vMOTNzMlqjjTzTb9wjpr7C+sy7wfJUcybsJAzOQ0VqefHJw3KoNKFMPWrlUQZBXF6rm7+ng8HfoF/z/+y2qg+Sfw94VOGjhjHV7tNhLwJIaw+fBWohGeNnCY8vURIWPq6isMbDPF90hMX81umHR37vU1FIG75BEbsz7JucgTzhg9m0MDevD/r1BPqUNj0XNi8ggWLlrBo3l+EP8NpzVFzprDM6Bik49iU+ew1KDxwaUlnN+NZjJw9qqIGDGF72J9lv4uaPYW/4p8QuNrYUhawPL+HvdFZOwr03DLbtnqK9lUcREdwyqCATWVqmyXueXZJTnZBc/Dlq0/+osvPIXzXsQ2rvN2pY2+HmhQSY6M4dDiGW2pHWo3/zGw5hrW798BzZQDHQqfQc0AU/j4VSYw8wv5d4aR1n8HCynNp81UQSet+YoydL83bvM+bRoGXFU06uxMxuCttvRrgWdUm4ylm0SRjSfXBI+ie9alyDm35/pe+XBn4B6em9qX5uvo0rulESf1VIg8f4bxO4YFTCyZO9HuGZ5SwwKeTI95BFwhNNRWwWtDs/Rp8fzGCL6Ov0X54Mk3dy1DDEq6fu8mm+PtQujQfDXqNd8z2mPNS9B9QkwMBp1lwMoa6n16lWc3SVFArXDqXnPFYdg3dBrjSI4cy7544ljEwy5E3+rV+ct7/U+yz1QdPZEr0AIbv2cEXHY8yz7sBdaxVaGMjCAmPxYAVVftPYJzRdHIX2TDmZ/42CrgSCUtVULjI6q+HEp5p+sKSbQczrfPTJ+O8GDR4jpnEqJhBTD6ynN7tgmnm407FjCc+7ovUoljXps+PX2SbJrRS96F8uP4T5l3YyciOHVjkXYNXSSEm7CgxFfz5qsMOvllvajSuI+8FBHBswBes2h/Am+3W0NyrKq9iIDbyKIdiklHUlegwaWyWJ8pVxm/Uf1g1cCl7B3ekmXsDPF0csFGDTnuBsMMnuaJ7CZfeY/ncLYen4WW6oKzs/0Eu5tPOf5klGn7OL5/H0OfnYDYM7Mgh96Z4umgwaC8SFhpJggFKeg9j5ie1jdaLWDCGmUYXmXriM+4uRi8cw8c7Hw1RfeDckW9Htyu6J+KdWM7nc0PIHFsa4k4CoD69jFGD92caUGvLG6O/okvWc0M+qVSevOtzhe86dmClTwPq2KtICj/I9kgtiroSXcb/Hx5Z1indzI9ujjtYHLuOQT1SeM/Xm+qaFCKDNvJXdDWG+r/Ot4uO51xovXa8VWUhsy6c4seubVnjUgUbUtEla7kSl0j1CdtY3628Wb5fftvXxXVfM3mX8XMGEsPT0zi16wL4+MSj6SYVm0Z8PKl7tu1U1C6FniQBSPNoUuxn3ZEgu8BpeG3Ab+x0W870RTsJiTzKJq0OA5aUcaqKm28fug36kC4uOfXM5IOLH/MXKPw3YCF7Q9fyU6gVti518R01m9FdalFS/xmjt15k2oFTrJ+bhMHtXd50Me55tewwgdW+q/hu5jp2ro8hGTW2NRvT1f9TxnSpZXKmgjINP2fV5oYsn7mY1aHh7N96FL3aClsXT970eY8B/Xyp+6wPEHIqz4jXr9DteA4pNWobvhjjScPdF/kxKIldRxM5kArYl6JdM2dGdq5IO4fHPG46Pxzs+fNbT7psusiMY7fYdTIpfWYn+1K0a1aeIR0r85ZTzk35RFA4BsDCowefe+Smh/0p9llNZd6euZoa62YzfcV+joftZa3OwEv2jri1fpeuvT+il3fW3sUkTuzfy85EU6kFKVwK2sulTK+UcvADCbJzT1ObD+eswWPF7/y2PojjuzZywJD+Wzbp1oc+/bvR2tlEi7bxZNSCuVSbNp15QWGcCdrLafvKePuO5sdh3Sg55xAQb3qGB+cWTFq2Ap8Vv7N0fSjhu6LQZZTZtHN//Pr9B1+X7AlVZRp+yaplr/P73JXsCzvFjshkUg1gae2Ii0cnRvkP5P1mFXOcKeXhBaVi3YgP36mWw7vMVaaGOgP+x456a/h54Xr2Hz7IznADirUtTh5v0LPz+3zSpV6WAFlPbOg+du4xfRfxRmQwOyMf/Z3qVpvhUHRBtvYEO3bvMZnhbKE7S9DuzKNTKlF+kEIXs+X0WeI+ajb+HjP5fuE+1u7WolfbUtWrE/8Z9hkDPEw8Ul3jyfiF07AOmMvGw4EsmraDl+wr4+HzHjMn+lNr1yC+Be7lmG5Um6FzZqIEzGLj4UhiIiOwtLbG2t4RL9+W+NY143k6n+0r8UQIO3fHmfzIOzFH2Zl5Rh+b0nSlu/nqbBYX2bn1NGBJA1+fHB/CV1yoFEV5VhOyRKG7yPwu7xJwRkPL2fuY42PmYLHAHGKs90esTKlArzXrGZ9TL9cL6SzTOvgx60IpGv26iUWtTZyYhCgmjo/2pduGOOz8/sfe8Y2f+SkWhQkJ6+ndYjwhqoaMC/5dZm55ViXvpH/zEQSmvs7ovfP4wCF3dzAeHPqedh8s5bJNW37e/hMdi/nvKz3ZQhRnCacIufCA+y6dGCIBdtFI3kL/5mPYm+eH01jiOnoNW/2f3QSrZ8tZ9oZdA3Vt+vRrKAG2KDjSpvMpnnUzN3AZqNTvo2IfYIME2UIUa3dDg4nAEo/e75t4tLEoFDbNCNi8Ll+DpqztK5m/PsVVxgWluk1PepopL1gIk6RN58udnbOYeuQ2ac5d+Kbbi5HyJ0G2KEaS2DdtFJ9nekqYQ+cRjG32pBkGiq/IoHDuObRgyJsVi7oqLzBr7J2tsS/qahRzd0ODOYUj7/T3LfZ5nqKovYBt+vQ6vpwb/GgQrD4+fYaQ3HZGJ+/jv99sIgFHOoz/jKYvQC82SJAtipUULgVtNxokV8mt/wsdZL8esJXzRV0JIQpBqY7fE9GxqGshRDEVe4hNW7dlGwSbu1A5kW2jJ/KXNg2n3hP4zufFSV2UgY9CCCGEEEKYmSSuCSGEEEIIYWYSZAshhBBCCGFmEmQLIYQQQghhZhJkCyGEEEIIYWYSZAshhBBCCGFmEmQLIYQQQghhZhJkCyGEEEIIYWYSZAshhBBCCGFmEmQLIYQQQghhZhJkCyGEEEIIYWYSZAshhBBCCGFmEmQLIYQQQghhZhJkCyGEEEIIYWYSZAshhBBCCGFmEmQLIYQQQghhZhJkCyGEEEIIYWYSZAshhBBCCGFmEmQLIYQQQghhZhJkCyGEEEIIYWYSZAshhBBCCGFmEmQLIYQQQghhZhJkCyGEEEIIYWYSZAshhBBCCGFmEmQLIYQQQghhZhJkCyGEEEIIYWYSZAshhBBCCGFmEmQLIYQQQghhZhJkCyGEEEIIYWYSZAshhBBCCGFmEmQLIYQQQghhZhJkCyGEEEIIYWYSZAshhBBCCGFmEmQLIYQQQghhZhJkCyGEEEIIYWYSZAshhBBCCGFmEmQLIYQQQghhZhJkCyGEEEIIYWYSZAshhBBCCGFmEmQLIYQQQghhZhJkCyGEEEIIYWYSZAshhBBCCGFmEmQLIYQQQghhZhJkCyGEEEIIYWYSZAshhBBCCGFmEmQLIYQQQghhZhJkCyGEEEIIYWYSZAshhBBCCGFmEmQLIYQQQghhZhJkCyGEEEIIYWYSZAshhBBCCGFmEmQLIYQQQghhZhJkCyGEEEIIYWYSZAshhBBCCGFmEmQLIYQQQghhZhJkCyGEEEIIYWYSZAshhBBCCGFmLxV1BQrfKSa38Wde/AOjV1/q8Aunf2qR609JjQ1m+czFrA4N51xcMgZArbbC2t4JnwkL+MmntJnrDWmbh1J35G5SNW356fgU3jZ7CUI8j8zTphPD1jJ9zjr2hZ8hQavHgCWW1ta8Yl+fT//8ga4O5u+TCB7dlt4bErjnPY4jf77Lq2YvQQDcXfs57l/t4XazcZz+/V3KFnWFntohxnp/xMqUtGxLKg1bza5+1YugTi+qi8zv8i4BZ1KzLSnl9z/CxzcugjqJZ8ULGGTbUq9ZS9pq0w9OupijHIpJzttHJOxkaI+RbNOmAZZY2TtSwVqTvkyfgk6nB8wfZAshTHn6Nn370Pf854OlXAbAEjunypTVqABQ6XUkG8xbYyHMw4pKPk2oa6369xWHGs//JcTzxYqqzdrS0eXRBU9KZCCBMfeKsE7iWfECBtmOvDlhKm9m/HVptj9tfg7P0ydcXjibbdo00uxbMO7P7+njUsr81TTBwvsz5v/ZE7CjZqGUWLiuLfiQZj+kMS54Pr1sVE9e4bmk46/+b/JpUl+2relPjaKuTrHwtG06ka0zN3AZKOk9mD9+6UeDQtr/6vafxuIu91CsqxTLXuwXok3rDzGi2UCCOs4nZLxnIRduS/OhkxnvVqKQyy2eki9eZ9amWBZEphB5Kw0sX+IVxzK0b+TI+DdeoZra1D5sR6thk2mV6ZVzkzoTGBNTWNUWz7AXMMh+WjqOR14AoErvIYUWYAPgUIWGDlUKr7xCpeNE6BmguN/m/IdDkXfglaKuh/iX/hQhkXcAR9oO+79CC7ABrFzq0tCl0IorZC9Imz5/lFMpSlHXQjylS8GnaTk3gZhUBUqXpE61Elje0nP80i0WXbrFov2JrB/txjsvF9OLRVEgJMjOsxR0GWkiTi7ORV2ZYuQcIeG3i7oSBS/6GMcS0yTIfpboU0hOUVCpHHF3lBOo+bwYbfpmeATnALuirojIv4R4BsxNICYVanaqxc5uDjw8uxsuxtH7p3OsiE+g8yoH7vR3oBC71sRz7hkIsnVc2PIn01fsIiQyFq3OgKW1Lc5V3WniN5BhXWrlOEglNXovC+YuYWPQac5pdSi5XC/vTA+sChncOFsfjUrVkHHBv5vp1uhZpnXwY9YF43JVTxr4GLsCv3aTOOLcnWU7BlF23Rx+WbSL4OhYkrHCyaU+7QeNZHibipQ0WvHh93Sm15r1DGcrEyfPJTAshutYYedch1a9P2a0X73s23bnKGp/upUUj2HsW9aHyjksv+M2lL1r+j5art/FkIbD+dvwsCfoGF83qsfXmb8vtRm6YzEfO5tp4FnG9jnq0JH5geOptGUm387dTEikFr3alqoeTfAb9Bn9vLNGwmeZ3MaP+fE1GbpjMb216/lh5gq2h0Wj1SmUcapBU7+PGNe/WfZb/4e+o8kHq0jI+NPy9K90qvWr0VvSnLuzbMdovM3zLYuOPo4DC2czf2sox6Nj0RksecneHjf3JnTt/RG9sm3XRwqtTWfsA8cyv6YcY1KL15mU5a33s+6z5i4Xnjjw8e7az2nw1R5Su/xC1Lgq7Jn5G7O2HOCfuGQUa1tcPFriP/QL/Nyynv7z36aPjffFb1Uc5XovIXRUnWx1erT8D0JHZUqTKIo2DUAiEQtnMHnFfo7FajGQ3pZ7DxvJe09YM32/W8nG0JOci0tGr1Zj5/waHj49GTKoA3VNHM/PTulGh3lnHpW+4gOqrzB+z+MG38aFLuP3uVsIjEwfaKtXW+HkUpcmfh8x1K9eAaYP6dk2qA2D9+hQqTwLKZXn0UDNVLfBhZQql/syr4RcZVuqApWc2ZQpwAZQV3Zi7n8SWTE3CU4nEooDuR9OLV50RRxk6zk26f/wXxzFPevKeHu1pJl9SSy08Zw4HMjSsXvZfuQn1k9sl+2Ac2Pnt/QcsZpzBkvK1WxAWx8nSiVf4lDGept2j2fpjK5masiZB1alEHP4COd1Ci+7t6SBfdaDUx0qa8xSKGCFm3dL2j4cUGG4SGhQNLonrabWoAEwaDkR8BG/bU3Fp3MPRvqpiAvdxNKtgfw55CQXf13L7NblMq+IRsltFCYAACAASURBVAOQwo3wBXwY8AuRzp54+lTBTRtFSHgIa74+yomY2awf5ZklQM8nTXkatmnFfV0cYUGRJGDLaz7uVDLKfatEZZO5cPmUsX1UyTrOrxjJ0K+PUtq9Ls1bv4Y2MoIThzfxfd+jhM1exgyfckarajSgoOPSlq/pNHMfr3Z4mwHD3qNEdDBL1+9m+7TBRCT+wbas28ehNs1ba0nWRrAjPIE068p4e7nwcqa3pNm7m+3Emhp+nvbrbnEnV+9+ibf61mFsZTMEPPoolvQewISTNyjhVIeWbTxx0KhI0UZxKGgNX+/ew8ZJC1jRuVK2VQu1TavL07B1K2wBDPGP2ffggbOzefZ1AOvKj8oFDHEn2RepfeJqmvSGSWrCUeb1H8+MRHe6+g2hqyaF8F1LWR20lrFhcaSt/Y0eRoHrC9Km0XFs/ED8V51Fr7alhs9b1LFRoYs+yuQ+/YjqUC7HNe+fXkSvHlM4ZlAoXbU+zXztKanXERN+lD2LxhB4JJzFS0fhpTGur3XN12nb2omUyIOExOkp4eRJq5pZLlW87E2WeXX5Z7z1zV6SsaK8e2PaeWlQ6eI5ERrMmq+DCQz/hb8ntigGs6A8HyzdnJjX0w6dkz3VTCy3cihJeVRcvXOfu4VeO/FcU4rSlXWKv4eH4tJ8mLLpVprxslsnlYDOnoqrW3tl1On7xsuub1L6eXsorm4tFb8VZ5W7RsuCldEdXldc3eorby688MQqXPy9l+Lq5q7UHL43l5W+oMzrXF9xdWui9Nt//8lvN6cry5Vubu5K9XrDlA2Pe9/1dYq/m7vi6uauVG0zXNl8PfO2vadETHxPcXVzVyp1/1Mx3kIPv5u7UsujpdJ5YYTRto1fM1Jp7OauuHr0UGZdeWBc5o4vlVomP9N4eZWuf5hefmuz0t/NXaleq6+yKOu+YG7/bp/6Ss1mPZRvDt3ItFCrHBz1tuLq5q64tJ2knDBa8dH2qebRSRkWmmS09HbgN+nbp95gZVVO3yHwv4qnm7tSuetsJdLMXyszXWC4gv/eXP7br7wXbjBLuXc2faHUcnNXag9Yne13Npxfrvh7eCjVmo9Wtt/Lsn2Ksk3f2qz4u7kr1Wv1L/h9L4s7az5TXN3clQp9VitXH/fGjPbj6uau1B+wTDljtP0uKIu7NVJc3dwVn6kns6yY/zZ9dNybiqubu+IVkPUzsy4/arrOhdmmT81U3nRzV1zdOiljjNrzvUff0c1dcRywWrlptKJW2dCvieLq5q40GrPXeNm9CCXAN32/e2fFxRyLjpj4juLq5q40nJDDdsjqXqAy3MtDcXVronRbZ/y5hvPLlW4eHoqrWydlwj+PO7+EKGO86uXifSYroPz9SVPFtbB+G0VRHtW34I99BVHm5a3H0o+VEy4oV3Lx/rMZ+0TdCQefolRRHBRtT/aVCM4ZFAxVm+CT9XaVTR2G/7qU97CjgrPxyOmzCxewV6eQ1mww07u5ZukxbMS3X3Zk70d/EbVwKaH+xeD2e75Z4jV4JB0cMm9bDbU7t8J1cRTnI8MJA5O3wW9X68lk/9pG27Z816EMWrSbCWdO8dfuy3zsb5Yb6EUoFesOIxjpnbk/2Y7GwwbQcutY9sYGsiL8Czzcs4/ct2w7hIlexr1jpZt3opXdWlYmnuXYhTTeM7FeYbH6f/buPCyq6n/g+HtUZiwZNJYSSFDEFBfwi4IbuKEpaoVmkhZm39QWqVzL7ZtaqfXLpVIr13LftxR3FBQFAZVVcQM0AY1BZQaXGZT7+wNUGAYFGTY9r+fxeeSu596559zPPfecczu2QOpY/vu9kpCEDrBzcy50XZk4+DBniwt3lDbU06sVFHm6uBrx/tcDeK3A+bPHq28zpsZGkBx9lkyaG6wBfZbz9PndQVwA7nl9zFcF8rMi3zEWHscY5LT2/4nf+6p50cWz4HlTNGOQTzOW/hxD9JEE7g6wM9IbDUf8Zs+hi0pOI+96BeaYOPTiPedZnIy8zKnYdHCqa5Q9FqSgcW9fhje8D9jjbLQ3r49jh9ewIdTRSNy3daMsjqrM9nnzGv7bNEB1uvR4GdETSyiJig2yrex5Bfg36i+mbHViml6bSxPbxjgWWimD6PDcoXFaeHUw+Hq9epvutJLvYE/KCU6k5OBu1HZ/VYeM1+jsZlV4hpUNVsAFslCrJTDQHq+eRzsDr+Wtaen2KpxNIjn6LHf97I33Gr1CmOPp5VL4GKya065BDYLOppGYmAnO5noLmNDCy83AsZtiqZRBhob0Eg69/qywamCFnLMkrZvHCrfJDHbJ3/5agaWDocEnRZ4urhzbVnRxKHzsLystkAM6bRY3wWCQ/ezmaQ1n8kZ8auLewsCxW9Mm7xgLU2Lj0h4bl7w/tWo0ah2ZOi0AdzHJnazToAUjNaexwcXThoe71KpRqzVo88Zi1ynkgI5MrdYYezOofq/PGderzDZvgDVdh31J1/LcpTH2eesmI2edY/ttCVwdWNlWdHkUSqZig2wHH756ZztDN54nYNJAdvxgjYtLa9y9OvC6R3tcbQ3dKq4Sr8rtCKgKmM3I44ba9WVxAQlIIz5V4nl99JQUSpTKots9ynRFDTtlgnWTBgbnWNpaAElkqTRkYqSbTgWRYY2jjaHzUxdbSwWczSZdlQHoB9kKXlGaGVhPTm3F8xn8PVCn92cMXXmC384G893AYGZavkYbt9Z09OqCp4cbjQx2sBJ5urjuWdoUaMf/QLW8mu1qz2Wevo4qb8QnS1sDlQqApYMNUNS4xRkcXTGP39cHciop9+u9ZS49jg0Lfmf1wQhOqwwH09W04gtIFSr9Xz6ZdZaFaTnQxJ7wz6yf12JHKIUK7viopN201QR0XMsf67dzODyR2JAdxIbsYCkmvOTcg88njMPPJf9tRYcu70ZyLWIfAY/dvpZMzfM9funT3jDrKAy/Q3zQAauaVkeV/56VzLTIhxBFXqcsnabsapOeSYpmjFq3Bff1f7FmWyBBCec4uvscR3evYSamNPL+kMnjP6J9gSZMIk+Xh2c3T+v4V5sDVOMF5IYXKbKTZQZ7RwzC/9BVJLk1HQZ8wBvuDR5+7fPWkd8Yt+G8cZOrDmPSwE/ZkJpDDUtX3hzlTTtbi4f7jFw8jmUx94y7T6FE/j2TRP9f/uHIbajj2YjID6yL+BCNIDxeJRjCT0F9ryH84DUEtBmciY4kIvAg+wMPERazk28/OMuNtev54uEXreQo5TLAhC7zw1jUtRIcwjPoDjoMXR7avFeYOQq5wRq1ouQ8eZEKkE22VgL0C08d2rygT64slwaLRpcdc5HXd2YWc+kavPlec0YZY3QRAIUNHQZPpMPgiaBOJjwiksOBBzkQeIzzu+fx3tkrrNg8Bc+H7YpFni4Pxs7TlYecB7k091gMHKOmiMeHqKX8eOgqYMeA5euZ4fJigdk30zcBxg2yL69bwIbUHO7bdOeXtT/p9ZnRYrLlBZY9eQwpoUzkcO7wGXotyeAiNWg3pCmBXeuIcbGFp1a57mYKC5zce+Dk3oPBE9L4e8QQxhw6z5IN4XwxpV3eQnVxtK0OaTr+SUnBcLc9oXSyUaWkY+jcqlIyADC1tCzR8FJqVTm9hi0BSVJxWSVBoTfM10lRaQETrCyr5icmtDdvE5RQ3Bt1dSzV9xlFGTR1MauPu1d93L36MzY9rwYvcSdLDo7D07tW3kIiT5e90uRpQzlXi1pVWQJBUxpaVodkHf+qVECtQkukJqQaXPNa9Fn+AXQu/flYL8AGSEk0vN7T03AmIhEAy26D9AJsgKskplbN9wlV3z1id8TRfqOarBdf4LMRzVnQQoTXQulUaJCdlRhLWEI6dTy6GPiUsTV9erVkwqE93NTkL8wtcPNygshoEncFccnPwIdPSCNi10VecGtNc6vK1cLwVvQWftt1AS0mNPf9Eh8DnZgqg3MhkWT62evddNOIirgCgJ27XhcqpSm1gbuqVK6hfyt/8Hnl4jFcu1wWLhMWeQWc9K4gdTyhSfeAejg1rpoj1VbM6CIaUqNjOZlSA7de7oU7MFq1pb9bXTZsT+WmVsujYEjk6fJQ0jytNFMCoDEYTF8gOKF4o7BDWedpCxo2sYXIJM6FxBY+Rm08f4dfM7imNq/dc45CXrhpnTqMNbsvFTsVtyle0zItuaOcKC2VhWeeDmCjwVFQjOvsrnlsjL6DpGjEWyN8cFYU47fJ9yGlHNu+rNs5pdDY4UVL4+DiVRxTSdRw6MSnvm2KVUlzJ+BrWo/bk/sOptdPhM16vQSVOyXZZw7nA8/kBdhK5kxowSj7ylUHKVRNFXg30HJu+WQ+HTuKsXPDKPxiO42du6LQYYKre8ERCex7DaaHUkZO9CI+XXJKb90Mjs0Yy5CxI+g7bivFLyLLR1ZUAItWrmb5ytXsSq6cjSgAqh1ZzP8OFrwx3TjwGwvOZoPclYEd9L7a59AcR7mMaiknOJZY8LhuHV/Kzwef8MENMwvMTGVI0jmCj6YXmq1Wl03b6HOLZ7M2JX96NZycvYwgncR9h874OBl5GD4zc2oDJhcPEZSo/1kDLZlVugn4dfZM/YJRY79h8kEDQU16GJsicl/Nu+o9vIg8XfZKmqdtXRrkjlgSfYgj2vzt4LWcWzSbv/W+gFtIOebpZr06Uw+odmQh34XcyDdHw8nZM9ieYTgfv+pQHzNAkRDKEXW+Y9Sm8veE/yPWyg45IFdd52oR+87tOAqaiCAitHr9BbRqvXbuSho2sAHgckhkwWs5PZiJk/dh0iC3U7Xhhxtj0JIcsJ7lK1ezcunfxBTzZ7gTdZI4AEx4bfCHJQiwAS4TuHgNy1eu5o8NMUWeS/10RoXE5L1HsePdj7xK+HGe4u9Td+kSg9bcIAs5g0c2EwG2YDQVeCUpcPUfzZtHR/L3+k/oGN6Kdk1ssFIq0GnSSIqI5JRKy4su/nz7VsGxRLHqxo+/DuHKx38SP2cIHbfmrltTe5WEvK8x3rfpxPTpvgVqxG4fns+YDRcKbEqTlAyANnwhn/pvzTenOf1nfIRXmX9utgjqMJZOXEdk/mm6S1wAJO1J/vQfye58s171ncIkz6K/alYyprT3cSbOvx/d3Frj2sCM7NQ4DockosaERv5jeVd/CDUrT97r8Aqhh87z65D3SfHxxtVWRkp0MAGBN+k02gf1D9tIJLuIzlVNedvLmu3bUzk6sTdtFjemnjIbnUaDKiWVNM/pnJnXx6gjH8hkrrztcYXve/dig0drmlvKuB5zjH0JKiS5HX2n/PfhMFtG07I7b9RfwW/J8fzUrxubHepjRjYatYorqRk0mrqXbQPKZxRZ47PHd/w7bPx4DUH+vfF0bo2rgxVmctCokomOiOWKpgYOgycxUv/h5XnI01HrGLkkrEB9py41FgD5mbWM9z+S7/o25/UJk+lrtKEKS56nX/T0ZYD1flalbGXEwCz6e7vTSJFFQsgO/k5syCi///DdylOP2Wc55umWfnzT8yDD9lxi+/A+RDu3wNFShirhBKc0zZg8oiM/zT3AXb2Asprnu7xTP4ClycF8P/BL4n1aYqM6y+HAQ0S9OoJ102VMfns2cWfWMH1mNV73eJ33PQvej17xfB3XuSc4mbiOdzsG07SBJQqdhixVBldUL/HO5m1MyXe9N3t3IK4bZnIyfDaDhp/Dz6MeGQmRHAmMIefdeaywX4LX5BCub53FRAtvOnq9R89K8HbkYcBr1gn/twp/sdX4LhMWnfdQ6D6IT4xd4fGQjvXrU4jMlsAEEracpkuRy5owYIgTn9pU/O8hVA0VPE52J2ZvWYnnglVsCokmPPAEGh3I5ebYNGnH2yMGMcq3jcFxc2u1GcnGgDasW7CKTeExHNl9Aq3cFHMHV3p69Gf4UG9a6N1MdamnOXDwqMGkVFfFc+Bg/MO/ZbJM3LX/pXyaLRigvUrwwUOEGpx5nbiDh/JqFXI5thkFRguywaTXVDZ5b+T7BVs5sC0JNXLMm7Sjn98XTOzb1MCN0YIecxYxb85P/L47il1LZrFVbk5998588tdP+Cp20Pexe1TSbuofzDP7hd8DI7iQFEeU3BRLSwts3F+nm7dTGQwtZoLz+EX4uSzgxxWH2XJQhVZuTgO3Prwz+kuGuxjvfD7SjFGLFyDN/I0dEQkkJcRholSitLTGzbsz3i2qZvOUB2q1+ZqNa//DwiUbOBwdz/4ENdk6MFFa4+DSh/F+H/OeZz2Dv+Uzn6dVUew/eMhgC+dqmvOEHMzfwc6OuiMk+hpxzLAS52mFK1NWzEU5cwk7IoJZOXc/NSztcfHoz4LpfjQNHMF3wN0ix3MuzzxtQec5C/nL6Vd+Xh/C6ZhQEpXmNHHrx6zRX+JzZTbzgKy8EVQe5jJFM8Yv/w3LaT+zOiKUVXOPUcumMW69phMwoht2iiwmf3SUsSvDOLF+FVdruhYKsnHw5fdFOfy0YD3B0UkkxKgwUSqxtH2NDl07003/QcnBl2XLJf43cwVB4VuYFW6KuUMLvMcvYkLfptTUfsmE3ZeYezSebUuuo3N6m54OhduLl6/zDwNeG58P6V0eD6opJwlLvg+Y03PoWwbjAOO4R1pm3huIbC3hCY+r2lfQWHxXXSgBmSRJYjwsIc8llvV9m5lnFXRedJjFHhX3xcIylb6NwZ2mECZrwzehC3m/omo2BaHMPSd5+rlznEnun7Ah61Xe16spLxMp2/DtPoWTclcm7l/Kh1ZlX5P7oD32LSd/9m4eZuBDSpXXhRk+eK9K4gXfP4h5OGiD8DwSDY+EKuYSq33fZWps8TtdPXDPazpR8/qUsF2fIAhlSr2LYR0nElTkh3SKYoLjhM3srqKfgq9K7kSFEgfU6j2EgeUQYAMkhMSgw5Q2fm9WqQBbEPITQbZQxdjz5py1tNXvYFQMcqW1CLAFobIx82RmwNan6vSrtCyPtsFCbsDbiAHve5TTF0HPExR9jRzbN/H3fvnJiwtCJSWCbKHKUdrWx8DgV4IgVElKLG2VWFZ0Mqqk6xyeO56R+b5ca+UzlkmexgxM8wJez0ll2PlQT3o8p5Kr02jC+/k+WlVZZXBozk9szzdKVVZCWgWmR6hMRJAtCIIgCFVSFpdD9nE53xQ7p2FGDrIbMWrXSUYZcYtPZOXDitM+5bnHUsgi6cgBAsphfHOh6hEdHwVBEARBEATByMRgj4IgCIIgCIJgZCLIFgRBEARBEAQjE0G2IAiCIAiCIBiZCLIFQRAEQRAEwchEkC0IgiAIgiAIRiaCbEEQBEEQBEEwMhFkC4IgCIIgCIKRiSBbEARBEARBEIxMBNmCIAiCIAiCYGQiyBYEQRAEQRAEIxNBtiAIgiAIgiAYmQiyBUEQBEEQBMHIRJAtCIIgCIIgCEYmgmxBEARBEARBMDIRZAuCIAiCIAiCkYkgWxAEQRAEQRCMrEZFJ6D8xfODlx9L0+4XmFqj16+cmdWp2FvJTgll3YJVbAqP4UKqGh0gl5uitLTBY+pyZnm8aOR0FxY02pNhe9TYjd5E4NBGZb6/qkacn1JIWY9v9xmc1JvcasYh1vmYF3MjGs5uXcQv649wKikFlUYHmKBUKrFo+THzF75LYyMnGyB0QjcGb0/nrvs3RP71Nq+UwT6EZzB/nf4N7/4LuVBohjXvrAtghnP1CkjUcyp9G4M7TSG00AwT2s4PY2XX5zB0Eaqk5/BKNaelZ2e6qXIA0CSd4HiSumSbSD/AqIHj2KvKAUwwtbTmVaUid542C41GC5R9kC0IZUZelzZdu5AbTmtJiwglXiOVYANazs/+lH5LY9EBktwc2wZm1Mybe1et4a6x0ywIRiDJrWnt5Uzdh1MscLOQVWCKnkMKOzp69+DR43wWySHHiNdUYJoE4Sk8h0G2NT2nzqFn3l+XF/nh9XNMibbwz4pF7FXlkGPZiW/++pEPHF4wfjIFoSJZdWL0/AdvdjL4e3BPxkTqir+++ji/bIhDhwkOg+ewYnzHcqtRbjFsLqv63kVS1n8Ga7E1/D2sJ19cH8LezcPK5E1ApRD1M10HrcZxfiiLyrvWsnZbPps9lY7lu9dnn+4mo8bH8LNKovVnbYloqyh6WTNXhs52zTchjdW+bxAfW+apFASjeg6D7NLScCohGYD6gz8XAbYgGJJ4ktMaCcw64T/Ks1yDXVOHFrRxKMcdlqvTHE+4DS9XdDrK1rXoWP5BwrGiEyIYx61Mfvz5ND+rSvI2TBCqPhFkl1gWmrxmIjYOthWdGEGonNTXyQSybZvwmkK8ajeaxJOczMh5xoNsLWfCz1Z0IoTSuqUjWaUm6EgaP4Xc4HR2DSxelJFxWwTawvOjEgTZGpJ3/cUv6wMJS8jtHGWiNMe2gTPtfT9mdN+m1C5izezEIJYvWc2OkDNcUGmQirleyRnuLBnm3w797j4yWRu+CV3I+2ZGCizU59g+5xeWHYzmgkpDjqU9Ld3eZNj49588NIz6HNuWLGNTYASnU1SoMcXCtjHuXv35Yqg3jQqk8RLL+r7NjOuvs2jNGxyf+D0bo//lvsPrTJ33HX20u/hm4s/8HXMTkwbtGT3rRwY76dfiZxC79S9+z9fRzURpjYNLa/r6fcxHnvUKpzGvg12k7bus3T+C2lsX8+vKQEITU1Bjio1DK3qMGMcYr3oP2/Ma7fxUJdpUjq5YxLLd4ZxKTEGjM6GGpSVOzu3pN/gT3ncvKurSknZkM7+s3M7x6ET+1UhISkuauLSj39BPH7Neyd3ZMhLnyYcKTDM5M58+TecXWvalwX8SPt610PSnUkQnzSd1fMztIHmTVjP2sa7DOVbOXcrqkGguqrTUsLTHxWMQY8f70lo/L+ft74RVb5YFT8Fu1wK+WxJAWIIKrdycBi7t8R3xJUMLndvcPDbzrIKeiw4zz0O/I92j+Z0XHWZx/vnHv6f9hxtJz/vT0HnNsX2Xtfsn4P7kM1Z8pchfqeFrWbhkF8EJZ0lXadHKTbFxaEF7308Y5dvSwO+SwSbfnkyIfdQs6ZB/q0JlbNGdb5+i/DGa40xy/4QNWTlkO/mXU1OeithnMenS8fniDNuz8wJqy9r8b4g99bbEMTxRBNnC86OCg2wtJ2f8F79V57irtMfdrTOeljWppkojKiKYNZOC2Bc5i23TuxcqkG8c+I5BYzdxQWfCS01a083DhhfUlzmet97Og1NYM6+fkQqd/J0ls0iKiOSiRqKOc2daW+oH082xf0xTsxLRnmPZBx8w8+xtcpT2eHp3pp7iFsnhyxkxMIEBDo/p7Z4YgP/wyexNzaG6TXM69WrPy2SREH6UPUtOsD/wKHP++p5eVg/SL0chB1lmMqsmfs+tBr58ZrmNubt3Mm2OBdFJB7ji8QGjbLcyd3cw07/dQKe1H2D/cIcZ7B39If57LiHJrXF2b08bpQKdKp7jITv4IeQoR2Ys5y8fu4LplCtQAOhURM38hN93Z+PhM5BxvjJSw3eyZncwf30ey6X5W1jU9SXjnZ+nEL4jhi9O3ivWspKJkm/HOtJDboSHLe05Vg8eztTYG1S3aU5nL1esFDKyVOc4HrKZaQcPsWPGctbrn1s0nJzxCcNWxaHGFDuPzvS2qUl2ahyHQ7YwLWQfmycsYq1fM8MPMCUkf9WVbl1z/y9TxbE/Jp0cpT3ubg7U0Vu2dhNLI+wxj9I+XydN0KXGcjhB9cTVFHITIJtbZ7bgP2cRp5r05v0Rr/OS+hwH1m8neNtMBiVp2LFWL3jJu2Zlag0X149j1LQTvOjcgo5dX0OVEEdUxE5+HHKC6EVrmefxkuGdl5RVMzp2VaF+zHnNsXQ2brOcUuSvq+u+5I1vg1BjSl3ndnR3UyDTpBEVHsrmaaEEx/zKnumd9CpC5Ni06Ug3q8zHlrHNbAxdrU9Z/ghlxIS2LV6iZp1a9G5jRW8nJeZoWbylotMlCOVMqkhXtkp+Li6SQ8fR0s7MnILzMmOlmT6ukqNTD2n8mXsF5/27Uxrq7iI5OnWWfNefl+4UmBcqTej1H8nRqZXUc0XyE5NwaeH7kqOTs9RkTFAxE50sLfVpJTk6tZeGHrn35MVLIW3tp1JTJ2epgdcYKeDf/OdHJR0a/4bk6OQsOTo5S10XnzOQxraSo5Oz1H7MXqngWUiVtn/2uuTo5Cw1G75Juppv+sYBrSVHJ2fJ4cH0u8HSGDcXydHJWXKZGJR7nu8GS/4uLpJjy+HSxvy/2am5UhcnZ8nRZaD0x8XbBY9j8zjJ1clZathxihSsf5D/bpX88o6j8HHeleKm95ccnZwlu3f/kvR/zac/P0/jvrR/foiEX1Dx/v03SlqtzXnyZovh9s6vpKZ5v5f+OdBdXCf5ubhIDTtOkPbdLbi/W/snS+2cnKWG7gOlX6JuFJiXFTVfesvFWXJ06iNNiH7SdayStvvlXhu+WzOKl+j9k6WmTs5S/X5/FkpzWbu9+UvJ0clZevWD/Nd3YSe+6Zl3jbSXvBfH6ZUjj8oY/yO3Cq748JptJTXxHCh9ezz/uVVJx8a/mZuPus2Qogqs+Kjs8DdYdhSjbAn+n+Tq5CzZ91skJTzm2IzhqfPXw3KjvTRg66UCs3QX10kDXFwkR6c+0tTTRV13qdIqn1aSo1MraVhgdvES+7TlT37xC6SexVnOoDBpoltLybGcfpuK22dp3JUWTTks4RcktQ69W8J1U6VVA3KvifeLe00IQiVQsW/Ur8RxQSeha9AeD/1XsmbNGTN/Dbv3r2JKk4I1JudXLCdII5Hj6c8vAxwL1sJZteW7r3tjRTbnVqwhvMwPoqykEbg1HB3Q+IPP89U4A1jQefTHdC6ilvT+8XUsOXsbyao3U6d3z1fbDGDNm1O/oLNchvbIWrak5ORNlz9cooVXh9waMYU9TW1rACa4eLTOPc8KaxxsqoE2g/T8Q7rZejN13o/MmT2Zd/U6g9bt3YcupjJk6XGcTMzBMBPc/MfpHaeCZj5dcAQUNE3cJAAAIABJREFUCTFEG+n8PJ1qdBvRAWlFp+L9W+rCICPt/0pCEjrgFTdnvd8STBx8mLNlHYc2jad7gbbPGexaEUg60Mh/Jl+4FKxLruUygukDGgCX2boi5LkeTi/Htg9Th+rV5lt1o39rU+A6pxNSilgzG2WvsYxzz39uLWg3ejid5TKqpQSzPuZ+EetWdqXJX474zZ7Dz9N/5Dvvgk00TBx68Z6zCXCZU7Hphld/GqUuf0rLDq9hQxg+9EM+GeCWb/i/slQR+xQEoSQqtrmIlT2vAP9G/cWUrU5M02tHbWLb2EDv8gyiw5OAfMGgnuptutNKvoM9KSc4kZKDu20VbJ2rPc+ppHuAHS3dXi0838qVzo1rEBSbXWhWYsgJ0gGdW2c8DXU6s2pLD2cTgiKTCY64yae2+ds3mlLPxirv/7lNSMASW9uaD6fVVlQDtFzT5t9mYzp6PXqprlOryNRq0epAQotUUwZZWfybZbg9nozX6OxmVXiGlQ1WwAWyUKslePAwVorzU9VYNbBCzlmS1s1jhdtkBrvkb+urwNKhSeGVtFEEx9wGGtGjg+G2qM282mO1Kolr0ceIoZNx2/JWIdXd2xs4dgVWlkpAg0ZV1OC85nh6uRRuamPVnHYNahB0No3ExExwLu7HeyqR0uQvhQ0unja4PNiUVo1arUGb19Rap5ADOjK12sLrPq1Slj+lZ03XYV/StYy2Xnn2KQhCSVRskO3gw1fvbGfoxvMETBrIjh+scXFpjbtXB173aI+rraGui1eJV+XWDqkCZjPyuKHalCwuIAFpxKdKUBUHAVFf598sCZnMktcMfgjBHEvLmkDhm1xKShoAL5zZzPgxBwxuPiP1HpBDSlIqkD8IUKI001/aBIXJg//LedDkXKYteMPKOrOPXxcsY2fIGdJLMKQygKRQolQWXfMr0+ndHEtxfqqaOr0/Y+jKE/x2NpjvBgYz0/I12ri1pqNXFzw93PQ6sOZJSeWKTgIyCJ7zNcmGHra0l9EC1VSpXNJKuD+no4DUUVo81XoyrHG0MXTO6mJrqYCz2aSrMiiYv6qI0uav9Dg2LPid1QcjOK0yHExX05awkHiC0pQ/giAIZaGCOz4qaTdtNQEd1/LH+u0cDk8kNmQHsSE7WIoJLzn34PMJ4/Ar8Kpbhy4v4LoWsY+Ax25fS2aJvlJXiei05N6aTDAxGPwoUBicrkWbF/zmJIURkPT43ajVxrkb3Yv6jfeHLCReB3Wcu/NRXw+aWT74wt9lNkz8maAnfK2rRJ3vnvr8VEGKZoxatwX39X+xZlsgQQnnOLr7HEd3r2EmpjTy/pDJ4z+iff5X+ncffFHxOnEH9xH3mM3LdFlkqyWwekbOV3mRmRb5YKjIa0qh0xixtrY8lSZ/qcOYNPBTNqTmUMPSlTdHedPO1oLaectHLh7HspjidSAuLmOUP8Jj3LyG77eJ7DPwTGXXpxnRPQrVzAiCQIUH2QAK6nsN4QevIaDN4Ex0JBGBB9kfeIiwmJ18+8FZbqxdzxdOD9ply1HKZYAJXeaHlf/XwMrLg1E3yCZbKwH6NzQNao2h9oUKaisUgAYL3z8Jm2KkYdIeK4Ndc1YRrwOF5zdsWvi2XtvhUxwzavtoSnF+nl74jhi+ji1ucKBkvLFGFwFQ2NBh8EQ6DJ4I6mTCIyI5HHiQA4HHOL97Hu+dvcKKzVMeNQ+qnRtgyGSufBO6zHhDSgr5FHXt6dDmVQTIlSUbaihTW1ZthkuoFPnr8roFbEjN4b5Nd35Z+5Nee24tJlteYBnGjHgroPx57uSQqcrmJoUrrbTZVbQiSxDKQeWKUBUWOLn3wMm9B4MnpPH3iCGMOXSeJRvC+WJKu7yF6uJoWx3SdPyTkgKFuoI9I8zMedlEhpSdxrkMCQo1V77KxZQ7Ble1aWIDe1Skp6aSiasRxwsvygWOJ9wBTGnr5134F1GnccXYbxRKcX6eTg7qyxqCEooZZJtUZ5gR916AWX3cverj7tWfsel5tYaJO1lycBye3rVyl7G041W5jDidivjUHDAz7nCGAkiSissqQ9fedVJUWsAEK0vDTVEMdzS9jrqyvHl76vyl4UxEIgCW3QbpBdi56yWmGrubbQWUP8+bOtbsWWFd0akQhCqnQnsEZiXGcmDXQSLVhgpAa/r0aokcuKnJX+thgZuXEwCJu4K4ZHDLaUTsCiEuvfKNmXAregs/zfw/vp85l22P6+muaMR/HGoAaURFXCk8PzGMw8mGRy6wc29FPUAWtYOAdEP70JJ0ZC+hiZlPcwiFSOjymqjI82rRC7q2dTPH9NtUl1Ypzs/TqajRRTSkRh9j565wrhmabdWW/m51gWxu5u9IpmhGd7dawGWObTtjeNPpcew7Es1lbeULQM7umsf3M/+P7+ZsJaYSpi/XZcIiDVx76nhCk+4B1jg1zv+Ia4qZXAZo0agM5L3EOKIyKklNdinylzavnbbSUll45ukANp4tRj+JvMGO7vDk5mwVUv4UksbBxT/x/cz/44f1xyluyXon4GuaNXWhUVMXnMbuK/Z6T79PLaETvGnU1IVGTVvz5jaDpYogCEZSgUG2lnPLJ/Pp2FGMnRtmoIBIY+euKHSY4OpecPQE+16D6aGUkRO9iE+XnNJbN4NjM8YyZOwI+o7bWkQQXnGyogJYtHI1y1euZlfy426o1nh65z5MnFvyK1tT8i2rPsfSqSs4Ky9i1Za+fNa6FjJNGHMmb+BcgSBFy9WAH/no46/wG/Q/Nhl8wCkZGXY0dagBXCc2pGBAdyt8AZ+vVONoKQM0qIroBFVypTg/Vcp19kz9glFjv2HyQQM3xPQwNkVcBexwLRDQWdB76JvUA1LXTWXsEb111XEsHePPiI8H895v8WWY/qehJTlgPctXrmbl0r+JqcTNms8tns3a/NceGk7OXkaQTuK+Q2d8nPK/QbDAoYklkE1sYKReuZXG3zNXcu5JOzQzpzZgcvEQQYn6NclaMo12rp42fylp2MAGgMshkQXL3/RgJk7eh0mD3Pa7RY/aYorSTAFkcyEwotC9QadWF3gTUDHlj77LBC5ew/KVq/ljQwxXi7WOlqiQmLzHCDve/cirhG8dn2aflwmLzi0LJKvX+dzbeF98FQShsApsLqLA1X80bx4dyd/rP6FjeCvaNbHBSqlAp0kjKSKSUyotL7r48+1bekOQWXXjx1+HcOXjP4mfM4SOW3PXram9SkLel8Lu23Ri+nTfAq8Obx+ez5gNFwpsSpOUDIA2fCGf+m/NN6c5/Wd8hFcFtmW1e3cUH237jKXJBxjXuxcr3RvzClkkRZ8g6VU/Jvfaz7fb0gysaU3/mTM5OfwrNh6ZSc/um+no1oBX0JGScILjSWokuR29Zkyiv1GOz55+fh4smHyIpMWf8276m3RpUI2U6FACQm7TZd4C+mwdwrA9KoLmf8OPV7zw9u2Jcyk7Jj79+alK7PEd/w4bP15DkH9vPJ1b4+pghZkcNKpkoiNiuaKpgcPgSYx0KtgkpHqbkfw6MokPfg5l+8e9Oe7cAVcHBTrVJaLDE0jXQU330Sz4rFmB9eKWT2RBxO18U7Sk5dU+Jq6YyKcHHnVRvW/bm+8mFP4ia7mJWsfIJWHkD510qbEAyM+sZbz/kXwdas15fcJk+hppSE+ZzJW3Pa7wfe9ebPBoTXNLGddjjrEvQYUkt6PvlP8+HMbuAVffN2i2fSHxgRPp53+Sd9wdqKm9RMTuHYTafsRHHvP5PURbeDSdB1p25436K/gtOZ6f+nVjs0N9zMhGo1ZxJTWDRlP3sm2AcUZMftr81ezdgbhumMnJ8NkMGn4OP496ZCREciQwhpx357HCfglek0O4vnUWEy286ej1Hj0d8v8mSjx9PDA7ugfV1i/odPw1HC0V6DQaNKpU/qnZm2XBU+n4cPmKKX9K71HAi/sgPnEqhyZdKScJy3sDYe/3od7Y+sZ0mxULzrP2dv7rOIfLV3P/jtx6Bu8jj+bYeDZiadtaZZQWQag4FTxOdidmb1mJ54JVbAqJJjzwBBodyOXm2DRpx9sjBjHKt43BG3itNiPZGNCGdQtWsSk8hiO7T6CVm2Lu4EpPj/4MH+pNC70AUpd6mgMHjxpMSnVVPAcOPqrRk8kycdf+l8IdfsqRmSvjly+h4dxfWBoSzdmQIM5Y2uPuPYGfRg+g5uLjQJrhEQxsOzFj7Xo81i9kzbZwYgLPodGZUMumAR18huE79B289T7aUBp1+n3HGtl8vluyi1Pb/iJSbk4Dl/aMXJ43OoztaN48+yN7EoJYtwIaeffAubSjWZTm/FQhtdp8zca1/2Hhkg0cjo5nf4KabB2YKK1xcOnDeL+Pec+znoHRWRQ0H/4H+1tu5ucV2zgScYwDMTokpTk2Lq8zyOc9PuvbUi9/aUkJP8yBQ4ZrGW8khHIg4dHf2U7NGAMVF2Sroth/8JDBRgXVNOcJOXg+3xQ76o6Q6Gu0IT1NcB6/CD+XBfy44jBbDqrQys1p4NaHd0Z/yXAXA59Ub/oZyxa9xHcL1hMcspbZB02oZdOYDr7T2TrMnaQRi4G7ec0kDBXPzRi1eAHSzN/YEZFAUkIcJkolSktr3Lw7493CiD0wnjZ/OfiybLnE/2auICh8C7PCTTF3aIH3+EVM6NuUmtovmbD7EnOPxrNtyXV0Tm/T0+HFApt4qfdk1ujq8NOSA5xKOkeUSo7SzALbJu3p69KhULvrCil/SuthwGtOz6FvlUseuhN1kjhAUrblo7caluGedEQlZLIns4iHxbRM9uR/PrO/x9K2ZZgcQaggMkmSKmuDR0EQhMonfRuDO00hTNaGb0IXipFbnhWnf8O7/0LOW/XVqykvG3cCvqb1uD3ccvJn7+ZhNH7yKqV2aoI3A7anYuH7B0FT2pVs2NQKlcZq3zeYGgtt54ex8lkdVUx45ogrVRAE4Vmj3sWwjhMJKnGHPxMcJ2xmt98zOmpTJZIQEoMOU9r4vVkuATacJyj6Gsib8cHQNlUowBaEqksE2YIgCM8aM09mBmx9qo6QSks746dH0JMb8ObYvol/eXU+TI8nLPk+cq9BDDJSvwRBEB5PBNmCIAjPHCWWtkosKzoZVVFmGL+N+YotDydY0Gn0OKN1mAUgPZ5TydVpNOH9Rx+QKmN3wkOJx5q3hnmXw7cTSkl9kiXT1uX7Um0Wycn3ECGLUNWIK1YQBEEQ8sh0aZzYnb9XnjUvfjDWiB1mASsfVpz2MeIGn+yF3j8S17tcd/n0tJc5vHsvoRWdDkEoJdHxURAEQRAEQRCMTDTMEgRBEARBEAQjE0G2IAiCIAiCIBiZCLIFQRAEQRAEwchEkC0IgiAIgiAIRiaCbEEQBEEQBEEwMhFkC4IgCIIgCIKRiSBbEARBEARBEIxMBNmCIAiCIAiCYGQiyBYEQRAEQRAEIxNBtiAIgiAIgiAYmQiyBUEQBEEQBMHIRJAtCIIgCIIgCEYmgmxBEARBEARBMDIRZAuCIAiCIAiCkYkgWxAEQRAEQRCMTATZgiAIgiAIgmBkz2GQHc8PXq40aupS4J/T2OASbSU7JZSVE0fwVjdPmuVto1nLDrTt9g5jQ24bJaUnp3jTqKkL7j/EGWV7lVL6NgY3deG1ZsNZpZYqOjUlFjqhG42aulBvyGauVXRiBEDD2a2z+exdH9q1ccvL361xbdOF7h+v42yFpu0W+4YcZFy3gywNz67QlFSEq+u+pFVTF14buJgYbWXK68a5J2REb+Ebfz86d3TPuye0pmmbLnTuPZYt6TllkvKcgFE0a+rCa/8Zw99lsgeh0lKHManbf2jUtAvDDpb07nOcSe7/KXTNN2rqgteS80ZO6CWW9W1tcF/O00KNvK/Kp0ZFJ6D8mdPSszPdVLmFnibpBMeT1CXbRPoBRg0cx15VDmCCqaU1ryoVufO0WWg0WuBFo6ZaEIQn0XJ+9qf0WxqLDpDk5tg2MKNm3ty7ag13KzJ5z7PE9Xz5QzBquSuTZn2Es0JW0SnKp/T3hFvHf+SdD9fwDwAmWNjYUzvvGGVaDWqdcVMsCJi1ZdqsDzg56E8OTZzOlh0/08+qpPWmpth5tKeF8lF+tGpc27jpxJQGnt3o7fDoQTMrIZjgpOejNH4Og2xrek6dQ8+8vy4v8sPr55gSbeGfFYvYq8ohx7IT3/z1Ix84vGD8ZFa0qJ/pOmg1jvNDWdT1ObxMiqnFsLms6nsXSVmfVyo6Mc8EDX8P68kX14ewd/MwGpdkVfVxftkQhw4THAbPYcX4juI3qRTSWD31F07qatBwwiSG2Fa2F6ilvSdksHvBdv4Barr78+evQ2ltVj4PEdXcv2TZX4MAC5qUyx7L17XlH+H5fzl8E7qM98vpnJY77XHGen5MSO9lhE1xLdGqNVp+yvR3DuG7MZj/fbuLDvP6lLDMM6fjqB+Y4lS9WEvrUlXM2foPyxOySMjMAZMaWNjVZmAPO6a1NcPc4FoWdBn9A13yTbkww4fgpKQSpbSqqmylXRWg4VRCMgD1B3/+bAbYwLXoWP6hMr3SrZxMHVrQxt2Ntk5WFZ2UZ8Rpjic8ZXOrxJOc1khg1gn/UZ4iwK4k7gT8zJzIW9xzeJvvBjSs6OQYnzaesITbgDXdRv+33AJsAKzq08bdjTbuDhi7/rHiaYgKr9gGXuXi4gnis572XqvAdczn9FDK0AXO5/8ijNNU1RD1mYt0+N9pJhxXk5Atp3lDJe0sIeNiBvN/i6Lh4mtcL7O9V10iyC6xLDR5zURsHGwrOjFlRMuZ56FwEyqfxJOczHjK9qvq62QC2bZNeK1SNUd4nl3ijyUHUGOC+9D/4vYs/i7aLNRZEjKZNc7Wz+DxVZgLhMXcquhElLmbMXFcKM0GzLrx1UctgDT+XrC9bPoG3brO17+lEJkNtj2acOWPNsROceXYjx3I/KY+ni/CzSPn6XtSWxZ7r9IqQTsADcm7/uKX9YGEJaSg0ugwUZpj28CZ9r4fM7pv0yKf0LMTg1i+ZDU7Qs5wQaVBKuZ6JRfPD15+LE27X2BqmH87GuktKZO14ZvQhUZ9taVQgC79BOvn/sHqwCguaiRq2TTArdeHjBvhXWRAkRq+loVLdhGccJZ0lRat3BQbhxa09/2EUb4tDdT0ZbDJtycTYh81IDzk36rQMbaacYh1PoZfDGWnhLJu8So2hZzhvCoDHaaYOzTG03sQHw/2KjKtklxGTbSkBS7hu8W7CEtIQY0pNk3a4TviS0Z41iveySqJ9BNsWLCMjSFniFdlkK0zoZZNA1q6v8HgEQPoaluz8Dop6/HtPoOTepPvun9D5F9vF117euB/NPvib57UNPMF3z+ImdKu8Az1ObYtWcamwAhOp6hQY4qFbWPcvfrzxVBvGlX1V6nHv6f9hxtJz/vT5Mx8+jSdX2CRHNt3Wbt/Au75pt3ZMhLnyYcKLGdoXYCXBv9J+PiSvY59rOvXObY8mfBIDdeu3+deNtR85QWsXSzpPNiBpnWLegWbW7ehu5BKwJJLxEbfQZMNNespcezjgM/bFkWUXTqu7Eji4F4VyRd1aLJzqFHLhDqOL+Hq60B391oG1slk16ATHPpXjtsf7fEhle2/XSL2jJY7gGldMxr1a4DPGxZF9CLJITP8H/ZtSeXCmbtcv5VDjVoKrJq+hKtvAzq0fBGTx5yi+8fXsfHsPTDrxvveLz9myfyqwD3BUDkgnWRGp/8wQ2/Re06jCNo8BHuj7Pg8c3v58ltywXuRTNGNWadm82YRa93ZMpLWkw+R3fdXzn1Tn0MLfue3XUc5napGUprj4NIZv1Ff4euk/2b2wb3Plvc3b2MMu5n+wxKCo5P4F1MsbJvTZfCnTPBtWejcnpzije/GVF4avJrw8c0LpenRfL18qQ3k8zZj2KN7ULt7kmltWzIt//HSjFH7V/GpkZoePTg/t72mc2ZeK07OmcWPu8K5kKpGUlrT2ON1ho3+jF6F7gnn+cHLl2VpTRi1fxWDVdv4vwXr2RediEojUcumMR18P+GbYYXfrJ2fPYBeSx9VZmWs/5BG6wsuU6PXr5yZ1emJ6bfr+zbtfoslNHwzaxN9Gelg3PpTVVgKf2RKYGfL7vdeIX/1opmjPWt8blJvzU0O70jlomsDnsH3VU+tgoNsLSdn/Be/Vee4q7TH3a0znpY1qaZKIyoimDWTgtgXOYtt07sXukBvHPiOQWM3cUFnwktNWtPNw4YX1Jc5nrfezoNTWDOvX8nadBYpf8eYLJIiIrmokajj3JnWlvrBTXPsFUbZ6UPV08OYNnABW3SOtHTrQHdNGlHRCQQtmcDxmEw2/jWw0HFeXfclb3wbhBpT6jq3o7ubApkmjajwUDZPCyU45lf2TO+kVzDKsWnTkW5WmY89xmY2BoJP4PrhH/nvF2uI10Etm+a4eDhTR5dBQvgJ/p57goBtfZjz1/f0sjIUEMpJ3zaSPj/E8qJzC9y9XiMr4QTHY/bz88dxJCxayzyPl0pxFvWkBDBs4GSCVNV5qUlrurtbYYaWjMQ4grfNJiRwD1/9tZTh+jcdpT1tunZ52PZMlxrL4QTVk/dn60ofby2Gn/OvEx0YwRUd1DZTFp6dGID/8MnsTc2huk1zOvVqz8tkkRB+lD1LTrA/8OhjzmtJ3WbR3LMsK+ZIL9Xsbdg5pG4RbfFKwKoZHbuqUKvi2B+TTo7SHnc3B+rkWyTH0rlQOSB/1ZVuXXP/L3vMugC1m1iWNpWPXE1l2ecJnLkBtRrWprGznBeQyPonkwv7LvPn0Qy6zW5ND0dDRWw1alxM4vcpV1DVVWLn9hK217O4kKAm7vcoUq65MO4zS73gVUvcdxEsD9aCiQnWLevQ8MVq3L2WxaXof9kXncG5r9wY8bp+oF2DGnKAHO5FJ7J4yWWu1lVi5/YiOdeySL6Yyalfokn+x9nAPnVcXhDN71vV3KM6li7mtH45d58XI64SEJFOzGfOfNrPvMhA++yuY6QDNTx60L1YtdhV5J4gr/uoHNClER2SQDrmvObhjJ284HHet7XFcIn5NExxcu9MtwedyHSXCA9JRPOEtRSK3JtSdvoJlg6bwrwMZ/r5fk4/RRYxgWvYFLKFSdGp5Gz5nYEFAlc5uatmcSNmOR/N/JUEW1dcPerjpDpHWEwYm6edICppEdvGuxrnOBV1aePVhXua1MecVzvs5casyMo7P5o0dowezoSDWTR2d6Vjk1skRUQSt3s5n0ckk7n2Z73zk1sJJqHh8q5p9FlwmFd6vcnw0f2pnhjKmm0H2TfXn7iMP9mrd36UTf5Dt642ZCUcIyxVS3UbV7o00XtUcStmmWXlyZvOLxIaeZ4dBy8y0kG/aqw07nHoRGbufz1fpoWBJV5t+zI91mSy9/JN9tyUGFGnilf6GJNUka5slfxcXCSHjqOlnZk5BedlxkozfVwlR6ce0vgz9wrO+3enNNTdRXJ06iz5rj8v3SkwL1Sa0Os/kqNTK6nniuQnJuHSwvclRydnqcmYoGImOlla6tNKcnRqLw09cu/Ji5fCiW96So5OzlJTl9aSq/9m6ezdR+co+/QKaYCLi+To1F4avOt6wRXvBktj3HLnDdh6qcAs3cV1eev1kaaeLir9qdIqn1aSo1MraVhgdvESm+83GbgiTrqZf15mrDRnQNvcY/HfIV0tsN5Wyc/JWXJ0aiU5uQ+UJh6/kW+mStrz2euSo5Oz5PjBmoLrlcpd6eT4npKjUyupxwq960eSpLTN4yRXJ2fJYfimgsdhwO3NX0qOTs7Sqx9sesr03ZXiZr0nNXVyll7rN0sKv6uXD6RkaalP7rlrP2avVPCKTpW2552fZsOfdv/6MqWRo4Il/IKK929qonTFKPvNE/w/ydXJWbLvt0hKKOm6+ydLTZ2cpfr9/pSenPNL47504YcQaaxXoDR77Q1JpzdXvSda+p/XAWnc+GS96ydL2vtBoDTWK1Aa3/OQ9MvmDOlWvm1mbDohjfc6II3teUI6rtG7DuLPSTO9AqWxPUOl3ZcK5skH+xvTP1Y6UyitD/Z5QBrfM1j6ZXNGvvTel9R7oqVpXgfytnu/wJrZR2Jz5715XNoary0wTxt/Qfq5Z6A01uuItCG+qDLiQVnZSvLdmlHEMnqq4j0hM0Dyc3KWGjUdJq3UT3NZu7JOGuDkLDVqOVra/rjl9n8tNXVylhydnKVWw9cWuJdIUrK0Kq989pgTq7fig9/QWWrq0lnyWRFX4NymbR4ntXNylhxdBkq/XSl4/Ty4f7nN1N+m/vwThtOcGSANc3KWGjUdUvbnNe/8NHRpLbn0migF/Jtvf5mx0hyfNpKjk7PkMjFI737x6Pw0dOkjjQ4veC++Ffxt7vlp6S9tLOIY4qa/JTk6OUttphZxHorpwXVbnPuWJIVJE91aPiEOeODBPeGI9PYZ/dJOf5mj0tv6edOA83nH3GLqsScuW9VVbJvsK3Fc0EnoGrTHQ/91t1lzxsxfw+79q5jSpOBr1/MrlhOkkcjx9OeXAY4Fn56t2vLd172xIptzK9YQXuYHUfZ0MlfGfONToKlFDacBfP2WPZDF4V1HySywhiN+s+fw8/Qf+c67YDMLE4devOdsAlzmVGw6xvLgN8Hdn7l+zQrWkJs1Z9QEP5ra2GCbHlfEGLnZWA+bxnT3/PWPFvQY5kU9QBYdyXGjpTaLiykqwBInlwaFal/q9vuajZu3EfpTnzLvTHQj4DuGLY3lrmUnpv46qlCb1fvH17Hk7G0kq95Mnd5d75WzNW9O/YLOchnaI2vZkmKMsXjNmDunI9KKTsX7N6UBz2rPhKJlk/6PDqhBXWezQrW4yh5N+PwPd8ZPerWI60fiftMGfNDPPF8TjWqYv1GPprVkkJ3Fhct6eaTuK/Sd2oQBk5rQ0a5g7biyizWvmciQ3VBz+nLR14DOri7vFKh1roayRyO6OFSD7FtERWblW1pL5DoVGsByYBN8msr0333JAAAWIUlEQVQLbEvetAHv9HkB0HJqSzoGR/3WXuBU0j3AGqfiDgsm7gllrBHvfz1Ar9mePV59mwGQHH1W717yyK2Gg/jBr1mBc1u33yhGNDYBXTx/H/ynrBJdbmQ6Oe5jxhZ8K2jWnC9GdccMuBW4lyNFjPFu0u1zprsVfNv6Ysc+dLGoBtrznEwum7HSH7Br0hgzQJYQa9zvAeiyuZoJIOc1s+pADjsWhCL76AiyT6JZdksCFDQ1kwHZXLp5z5h7r/IqNsi2sucVQBH1F1O2ni6UuU1sG+Noa6kXBGUQHZ479EsLrw4G28BWb9OdVnIZ1VJOcMIogUfFuuvSGa9C418qaOnpjByopp+pFDa4eHald18PXlPI0GrVpKencCUlhSspanSK3BtmptZYnRTSCA9PBKBZL8O/CS0/Y/uB3exbN76I18aNeKOrgZZctq/xKiCRhdpoH6sxxdLSDEjjwJxlHEzRH6/TAgenBrxsZuR2P3runVnJJ5N28q/cDt953xZ6DQmQGHKCdEDn1hlPQ+fNqi09nE2AZIIjbpZpeoUHqmNunntDiV96gdNX7+vNl2PlqMTctOhhsV7tYlU4AJfX5JWXAHK4k6W3TXMzGnvY4OZRhxfJ4V6WDs31O9y4eocb1+9TvRbAPe5m6W803ybcXsa60NQXcHTKLQ9UpzWPgmXdTU5fzAFeoFF7UwNbq4ZNB3OUgO7MDS4b2qFKxRWdhExmScPitp0V94QylWPbKvehSs/LSovce4k2i6JKkXoe7Qw0tbGmpdurQG6AXuVHPla40r2DfkMzqN6yHa0A1OeITzF0HzKhhZebgeYyplgqZYCG9BJ+jqPEXrXHDpCpM7hkzI89Zd/jDgAyLPKe0O/eugfZOXA7h9t582rmzbtzW788fL5VbJtsBx++emc7QzeeJ2DSQHb8YI2LS2vcvTrwukd7XG0N1X5cJV6V+yOqAmYz8rihgC2LC0hAGvGpElW9qs3C1vAYzNVsLHkFuKJScVV/ZnocGxb8zuqDEZxWGQ6mq2mN9YWEq1xIvQ+YUs/m6Yayk8nMsSzUvj3ffJ0xhxNU0Nnfn3ZHpxEaPp+Puy/EvIEzbd3a4+HVgU7uTrxctvE1pAfz9edzOKmrRasZC5jhUrhgB0hJSQPghTObGT/mgMFlMlLvATmkJKVC6VtHC09Ug4ZDHWgUfYHz0f/w5/tXqFlPiYNLHZq3t+K1lnWoLX/c+tWp9bKhVswPgh/DQaDuQir7VlzhZEQWmuyS54c6joaHG1XaKYC75NzQcRtyg/+ruZ0x4R5JS2NZbehOces29wDZ9buodBIN9dvIZl4lE5DkppgVt2OuuCeUqXuWNoX6KgBUy3uAr1ZkOWuCdZMGBudY2loASWSpNGSCEdufl7/7tvUNd843s8DKtBpkZXDJ4HB7Cl5RmhmYLqe2opzqMpVKlIBMl0WWWgKj9NERSquCOz4qaTdtNQEd1/LH+u0cDk8kNmQHsSE7WIoJLzn34PMJ4/ArEIDo0OUVBNci9hHw2O1rydRU/bGe5coiIr6achSAhA6tVoIHhYM6jEkDP2VDag41LF15c5Q37WwtHn6BLHLxOJbFGPOVjg6NVgLkyJ8yOM0dXaQcOfRlxc5GbFiyjI2BIUQlnWBX0gl2bZhHjtKe9r6fM31EN+zKYsgx7SVWj5nC36nVsfWdxSIfu6IWzP1dgZykMAKeMHa/WnxWrtxUt7Nj+J9mhK9NJvzYDS79o+b0P2pO77wMJgoc33ag/2AbLB4bbBdfzumL/D7mEleyJRQNLej0ugW2r5iQu/nbHP0pmfOPHe1MRo0ahm/21eW502W6nHw12ffz/p/N1aMGHuLzy86rQdd/vnsQsCnkJcjb4p5QWdVRGC7cH3QarKbVVfma7ByFWRHXat69LUtHdmUdpe5BPpO03DXmrcCkBrmP5xIZ2QDVeOcrT72vaNznZt4Q3S+8WLwP2zwvKsEQfgrqew3hB68hoM3gTHQkEYEH2R94iLCYnXz7wVlurF3PFw+/SCRHKZcBJnSZH/ZcfI2wWlGZ+q4OLSBDjiJfMHh53QI2pOZw36Y7v6z9SW/UCS0mW15g2RP7o5eEHKVCBlk6dJW1ADLEqjkDJsxhwATQpMRyPDySw4F7CTh4hrAlY/FJ/Ynds1438kdNNIRO/YKpkTd4wX08C6e0e0y7bwW1FQpAg4XvnyX+GtjTuc2KBWf5M7N4gYjWxkiji1RF5nVwH9ES9xGgvXqTixEZxB/9l9jI21xYd4ZfrkqMmWxrhHb9Ok4u+Ycr2RJyN0dGzrSn4JgDN0j4OZnzT7n1+7rcmnNJXu1Re2159bz/16b3tlZ0Nn2Kh025DAVAiYMvcU+ojO6Q2w9Bnzav2WGOQm6wlrwqqVZkM4sH9zYlJmX9lvNpPchnMgU1jfRwD4BcQYPagErH+Yz7YGPoYV1LkloCTGhaR+S//CrXx2gUFji592DwhB9ZeWA7s7vUBd15lmzI31WlLo621YFs/klJqaiUlqtrqlSDN6mcVBXXgPuWlvk6xGk4E5HbPtqy2yADw7pdJTHV2PUNdXG0qQ5kcS616N9Eq9U+LJArG6VtC7r1/ZBv56/j8NrhNJND1u617Eo3bvvNS+u+xn97Mvdte/P/7d15XFNn1sDxHyrBhdBhU4EiissAdUVFrSuitbh0xKWg82r9jB33sdqXaa1L9Z0qWK3a1hdXtK6tu1ZFqyKiYFVwAcSKDIuogI6BKkExQcn8gZ0SCMrYa0E938+HP0xMcrPc+5z73Oecs+TrgKeWE3N0cwTgdlZWuQlJynrIhVQtkUkV+zuVUfB4vd6rzaL+H/AY0Jih8zsx8+sGvG5uRkFkJnG5SsyaaklJLQKq4+rnSJmiXvkPyHlqzw4D+f8yve9prxXfXtO65q+JmPXrPF5/+YB/3XzG9/Ba/eJELP1vyKeQMaGKKESTaTpRXpOZA4ClnV259d3L0pGnUXKiRxnVNVfJMHVHXg6384sww4ZmtlV0GYZWi5bi5VmWivZNqEkn52rAI8IyyukoefseJ+8C5rXo7ly1wsrKVqmfRn7aRcIPRHDW5AHYgf59W6MC7mhL7oy2tPdxByDtQKTpHYJsYg9Ek3i76l28uhe/i4XBC5gbvIQ9aRUL4Kon/GgyozkpKgE9UNOtLQ1L3K57fKFXbWei5vJPYWy/YrIWgLHHZ8IFT22fAuCAl5crAGkHTpruOBX3Jb5tvGjecTI7FEtgfEa6HJKiDrE9ynQ2fJ1Wb9HdsToGg5a7Co4D9858zrj5J7mr9uTjlbPwqcCBsIFX2+LqKnH7CDMZ8OtIjzrEqTSlQvBXtbpINhGrFzI3eAHzt5558gmN/gE3Y7KJjTGdZajyqI97PYCHFDxzu+SSih7HKdUwV5U9ZOcfyiS9Amu0b8XmmHhfBaRcLt7HbT3UJWayX6NFq2qAjqTDd0xXD8m9Q1x0LjnlHSLsHKirMsNg0JBawWRDGROqblJmcvRZE7+fbOJibwDQwMt4ykD9uOa/1mQwncLxpIq3AC9UMpHvSfLOE5lQNnHvUdwpzgFF9g15Q6EGOKXdL6eLQoXdyOAaUGRni4uiyxxr4N2xuGpKQdQtE9V5ikiMuEkMBmhsR586VfQkpJJUYpCtI3n9TMYHTiVwyWmTO+/+A3HoMcfTy83oHpe+I+mjNqMofhXjQy+UemwOPwYFMipwIn5/313OAbfy5MeFsWrjZtZv3MyBCpb0Mbt9mIXL4ozeZ2HaVub/kAHY0NmvfYkZBDWNGxXPfl6LPmv8/m8fZ/rMw5g3Kk7QMH3wA7BEbWUBFJJyNLbMd6PPyyszs9404D16qM0gZhVTN14yfkxeIkuCt3IdqNN3OL0ruzthXhRBf/uYTwLnss7E4H8v/jDHsx5hsG9GWyeFtjUzjCmTvyNF74B38HzGuppOQiujtT8T2tXBTHuaxTO3kWw02Oi4GfY5o8d+xIjhsyr/5EUJVja8BpinHiMyrfQcuY67z+1CyDWOrv6W9Rs3s2JbwpPXIOfnsHf2ZbbNS+LEtbK5DfqfbnL5FhisLXGqr8TvxxIn5+JqJtfPGu+NhXGphO4qxMbaDHjIg9zyM/sNsdfZGW38md6PTuVYWhGYq2n3ZsmejypaBjhgixnafUnsiCn1XeTf4dCn8Wyec4EVG3JNv6CFC20a1QCyuXylIieBMiZUdEyoDNWiVjMrwngK5efwZYRcKQSVJ8M6G3f0dGrVCBWgjz9WapJIR/KqRezNfkoVCitbrCzNMBiSOX6y7Cx6Xt7zOBhks2/xJuMys7pk1oeEkwfY9Rxg1HFWCcWJo6CNjSS29MmEruxYW55rSVfIA3BtoVATvl9ZtnVmip0ZZN+kx7qbpP7nniJun0sh4PA9wIKRg+q/JJMuyqnExTMWeE76kHdOTmHv1nF0i2lLJzdH7NUW6LXZpMee5YJGR+1Wk/jHn0q11Lbvxedfj+LG2G+4tHgU3XYXP7am7iZJjzsVPnLszrx5/kZ1he+f+H/+d1uK0VNp068CoItZyfhJu0vc05whQaMrNNv4vDUeOBTnLWPpGuWJt9vjLmbRxR0CrXz+xoyexrU53wgYhue2YM7HLGL4mGRGdHEmJ+ksUUcTKApYygaXUHxmRpO7+wum2/rSzefPvG1U1klN14FdsDr5A5rdk+l+phlN7CzQa7VoNVlcr9mPtcfn0K3kizr1Y8G88wwP3EFs8HC6r29OGzd7aupzSIpJ4IYearuPJOTjbs+99vRT2fsyc8Je/L48zdx+Pmz3aklzO1tU5JOTmcyZ2HTuqhzwnv2Bcdm8uC1MCT1tNN+gz7oIgOryd0ybFFUiacaGtz6ZiZ9TNSCHvXOCiNQaeGSnpnrYIqaUm53VnOGLRpY4kDswJDiY82M+YntUMG/33km39o2oh57MpHOcSc/DoGpA36AZDKkCv9XfrHVvBjTcwLKrl1g4qBc7XRtiRSHaPA03snJoOucQe96tX7nbaOPAwJFZLFlzl31jf+Ssh5q6dVWY84gHt7SkJjygwNwCjw8a00KRrnS1aDfYmiMLc7izJZGvcuvR0tkMTXwOF+Mf0fT/WuF16AKhxwu5svES+2/Z02qAE85G6zKr07S3msw5p5jXypomdWvw8Od8rpy9TwFm2L3XhDfrG8+5mLVuzIjR+axcc4fz00+R5m5Nw7rVePjzfTIuF6AtNGDRqiEjR5a3It+Fji2d4MpV4qMv8mBg96ckQMqY8ER5p1kzfQtnS96mzyAFMOjO882kKRwscdfr/rOZ0VWpLrmWvDmwJYmTBtGrfTs8G1lRmJXIieg08jCn6aRAAkrN8Nbu6s+7DkfYlLmbicPyGeLrRVOLfJKi97E3rTFTR7Ths40XnvCaHgz2ceD777M4Ob0fHVb/EWd1IXqtFk1mFtld53F5aX9FE+Z1br0Z8mAt/r3306H9H3G2uEdSzEnisnQU2ffi0wkdFU/Qr9f1LTyXnON82hYCuh3Ho5EdFnot+ZocbmisGbpzD7Pdn5ZMmENMdHHo26BLO+XHWJUVCya4cO6LDKIirtDkdAbNHapjflfHBc1DwAy3/k1Z4VZe79dXV+WuULfvzqJdG+kasokd0fHEHD2HVg8qlQ2Obp0YPHE4U/07mEw8q9NhCtvDOrAlZBM7YhKIOngOncoSG1dP3u4yhDHv+9Ki1MFQn/UT4REnTW5Kdc0lwiMu/effZmZ38dL9Bai8wEWvLb4Oa2g9jGUTO7I0OJR9R/dxQ2ugjmNzuvmPY/bILpSpTeHqz9r1BmYFbyAyZhdfxFhi49oC32mr+MTPg5q6D/jkYAZLTl5iT2guevfBvO1a2+gprPvN5Fv9H1gYGs6F9GTiNCrUVrY4ub2JX6vOpZqiPH5Mr1ns3dWV9aGb2Rd9mZiIRHQqSxzcejCk7xDG+3d5PtU6/msWNBuznHD3LXy1MZzTSefYr9Gix5w6jo1w932PdyeOxs+11KFKE8eRiGMmF9BU0/6T6IiSqWcNqD/RgJ8TgB7t41mX6ppkjh5MfsKmFdBZNwKvkp+TU3eCvttKl60r+XZPDAlHk9Hqi7e188C/4v/+UHwrOjNe5b3B1NUhGIKXsS82ifSkRMzVatR2DrT37YFvi0o/RQOqUXdYWwKdrxKx/zYpqXe4FF/EQ8yoZV0Thx6v4xXQiLZNlMs+qtWnORNJYc+WW1w9fIMb5ubYeVjjvagp3h41oX4TPFP/yfnUXM7sgnrejjjblNzXiqju7cZk70zCNmRzKVJHAWDp/BrtAhozoI+1idboNXAa1oaP3TM5vCWLpMt3iLtcBObm2DexpUX/1+nZx/aJA7pH3844b7/K9ei9ROm6Pb21uowJ5dPd5HjEMU6ZvDOXxIhjJJa4pUmHqaBYkA3mfeeww3c7c0N2E74nnTxU2Lh1YtCIyUz38ygbfFp4MnvDEtTBoeyLPc7GJUeoYedCqy5DCJk3Ao+jE/kMeFBuno6aTnNWsNTqK5YfjSUlPZE4lSV2drY4er1FL193xQNeM4sWjF85hg4hX/PNwUhiNVoMagea+w5h8od/wft5lMVz9Wf5qiIWhmzleHw6SQkazNVq7Jya0blnD3pVZHnK7Sj2JtwHmvKnzs5P/e/PwryJC0c+s2T57musvJhPYmrxscDFzY5x/V34oKUlL8sopCQzg8HwElxjFkIIUdY9Do86w5Eb4BbUldFev/dMUwZr/QYTfAU8g8LYOlDZWj3iefvl+7Ogx6oTrO7ykpZnC5/GG5MPct99KpE7R5mcRKrKrq0agc+XCeD1KdHrBlegItYZZniNY1v+6/xPhWbKlZUSNBDfTenU8l9BwuxOv+tr/96k1op4wWSw2T+AORcrnjTzi4c+84hb+vxbpQshfuHCsPd9CPn7D8SEriXWdxrtq8TVLPHyeMXHhLwTLFhzEXDgnYm+CpecFb+VBNniBePCO4u/o+MzZJur1A4v9sFUiBdQrX4T+HDDCeZc3MmsbUP5YUSTyt4k8VJ5lccEHecXLeKQ1oDKZxIfta/99IeI35UE2eKFo3ZqiInihEKIKsmFPwdPYe+gYM4vmse6nmsY9ZzKoIlX06s6JjyMW86M7VcxWHVnxqd9n2EWO5cTS6YxRf3r1SX7gYHM6Fr3CY/5b+VwbPFCvi9RySs/KVvB56/aJMgWQgjxfLn689W0H+n3j0iCAtfgue59WsqyESGeXd5pZgeuJwUbvINmMNz+WU5c87kWfZhrJW5p4P5XhYPsfNKjwgmrSH+Ol5AkPgohhBBCCKEwuWYnhBBCCCGEwiTIFkIIIYQQQmESZAshhBBCCKEwCbKFEEIIIYRQmATZQgghhBBCKEyCbCGEEEIIIRQmQbYQQgghhBAKkyBbCCGEEEIIhUmQLYQQQgghhMIkyBZCCCGEEEJhEmQLIYQQQgihMAmyhRBCCCGEUJgE2UIIIYQQQihMgmwhhBBCCCEUJkG2EEIIIYQQCpMgWwghhBBCCIVJkC2EEEIIIYTCJMgWQgghhBBCYRJkCyGEEEIIoTAJsoUQQgghhFCYBNlCCCGEEEIo7N+ffkSJ4IkwlAAAAABJRU5ErkJggg==;" vertex="1" parent="1">
          <mxGeometry x="550" y="290" width="385.53" height="220" as="geometry" />
        </mxCell>
        <mxCell id="6S1AxzFZSBlunfZrIVeZ-19" value="Function: Step&lt;br&gt;&lt;br&gt;1. got how much demand is satisfied, d_sat&lt;br&gt;2.update new demand(by reduce d_sat) ,&amp;nbsp; self.demand&lt;br&gt;3.update new load,&amp;nbsp; self.demand&lt;br&gt;4. mask for customers with zero demand&amp;nbsp;" style="rounded=0;whiteSpace=wrap;html=1;fillColor=#FFFFFF;" vertex="1" parent="1">
          <mxGeometry x="70" y="420" width="320" height="270" as="geometry" />
        </mxCell>
        <mxCell id="6S1AxzFZSBlunfZrIVeZ-23" value="State" style="text;html=1;align=center;verticalAlign=middle;resizable=0;points=[];autosize=1;strokeColor=none;" vertex="1" parent="1">
          <mxGeometry x="80" y="160" width="40" height="20" as="geometry" />
        </mxCell>
        <mxCell id="6S1AxzFZSBlunfZrIVeZ-24" value="&lt;font style=&quot;font-size: 18px&quot;&gt;&lt;span style=&quot;color: rgb(36 , 41 , 46) ; font-family: , &amp;#34;consolas&amp;#34; , &amp;#34;liberation mono&amp;#34; , &amp;#34;menlo&amp;#34; , monospace ; background-color: rgb(255 , 255 , 255)&quot;&gt;load&lt;br&gt;&lt;/span&gt;&lt;span style=&quot;color: rgb(36 , 41 , 46) ; font-family: , &amp;#34;consolas&amp;#34; , &amp;#34;liberation mono&amp;#34; , &amp;#34;menlo&amp;#34; , monospace ; background-color: rgb(255 , 255 , 255)&quot;&gt;demand&lt;br&gt;&lt;/span&gt;&lt;/font&gt;&lt;span style=&quot;color: rgb(36 , 41 , 46) ; font-family: , &amp;#34;consolas&amp;#34; , &amp;#34;liberation mono&amp;#34; , &amp;#34;menlo&amp;#34; , monospace ; background-color: rgb(255 , 255 , 255)&quot;&gt;d_sat&amp;nbsp; //&lt;/span&gt;&lt;span style=&quot;color: rgb(106 , 115 , 125) ; font-family: , &amp;#34;consolas&amp;#34; , &amp;#34;liberation mono&amp;#34; , &amp;#34;menlo&amp;#34; , monospace ; background-color: rgb(255 , 255 , 255)&quot;&gt; how much the demand is satisfied&lt;/span&gt;&lt;span style=&quot;color: rgb(36 , 41 , 46) ; font-family: , &amp;#34;consolas&amp;#34; , &amp;#34;liberation mono&amp;#34; , &amp;#34;menlo&amp;#34; , monospace ; background-color: rgb(255 , 255 , 255)&quot;&gt;&lt;br&gt;&lt;/span&gt;&lt;span style=&quot;color: rgb(36 , 41 , 46) ; font-family: , &amp;#34;consolas&amp;#34; , &amp;#34;liberation mono&amp;#34; , &amp;#34;menlo&amp;#34; , monospace ; background-color: rgb(255 , 255 , 255)&quot;&gt;mask //&amp;nbsp;&lt;/span&gt;&lt;span style=&quot;color: rgb(106 , 115 , 125) ; font-family: , &amp;#34;consolas&amp;#34; , &amp;#34;liberation mono&amp;#34; , &amp;#34;menlo&amp;#34; , monospace ; background-color: rgb(255 , 255 , 255)&quot;&gt;mask for customers with zero demand&lt;/span&gt;&lt;span style=&quot;color: rgb(36 , 41 , 46) ; font-family: , &amp;#34;consolas&amp;#34; , &amp;#34;liberation mono&amp;#34; , &amp;#34;menlo&amp;#34; , monospace ; background-color: rgb(255 , 255 , 255)&quot;&gt;&lt;br&gt;&lt;/span&gt;&lt;span style=&quot;color: rgb(36 , 41 , 46) ; font-family: , &amp;#34;consolas&amp;#34; , &amp;#34;liberation mono&amp;#34; , &amp;#34;menlo&amp;#34; , monospace ; background-color: rgb(255 , 255 , 255)&quot;&gt;&lt;br&gt;&lt;/span&gt;" style="rounded=0;whiteSpace=wrap;html=1;fillColor=#FFFFFF;" vertex="1" parent="1">
          <mxGeometry x="-330" y="215" width="190" height="170" as="geometry" />
        </mxCell>
      </root>
    </mxGraphModel>
  </diagram>
</mxfile>
